<mxfile host="app.diagrams.net" agent="Mozilla/5.0 (Windows NT 10.0; Win64; x64) AppleWebKit/537.36 (KHTML, like Gecko) Chrome/135.0.0.0 Safari/537.36" version="26.2.9">
  <diagram name="第 1 页" id="VtgEGV8RqVr0ST0ItIJX">
    <mxGraphModel dx="1005" dy="417" grid="1" gridSize="10" guides="1" tooltips="1" connect="1" arrows="1" fold="1" page="1" pageScale="1" pageWidth="827" pageHeight="1169" math="0" shadow="0">
      <root>
        <mxCell id="0" />
        <mxCell id="1" parent="0" />
        <mxCell id="00UijC455V-xWasnX84c-2" style="edgeStyle=orthogonalEdgeStyle;rounded=0;orthogonalLoop=1;jettySize=auto;html=1;" parent="1" source="00UijC455V-xWasnX84c-1" edge="1">
          <mxGeometry relative="1" as="geometry">
            <mxPoint x="360" y="120" as="targetPoint" />
          </mxGeometry>
        </mxCell>
        <mxCell id="00UijC455V-xWasnX84c-1" value="" style="shape=cylinder3;whiteSpace=wrap;html=1;boundedLbl=1;backgroundOutline=1;size=15;" parent="1" vertex="1">
          <mxGeometry x="30" y="80" width="60" height="80" as="geometry" />
        </mxCell>
        <mxCell id="00UijC455V-xWasnX84c-3" value="提交库存扣减异步执行(AOP都行)执行本地方法，&lt;div&gt;然后提交到ConcurrentHashMap&lt;div&gt;key为sku_id，value为次数 LongAdder&lt;/div&gt;&lt;div&gt;本地scheduledexecutorservice/@Schedule 每隔&lt;font style=&quot;color: rgb(255, 51, 51);&quot;&gt;1S&lt;/font&gt;&lt;/div&gt;&lt;div&gt;上报到Redis，score为当前时间，&lt;/div&gt;&lt;div&gt;&amp;nbsp; &amp;nbsp; member为uuid:count&lt;/div&gt;&lt;/div&gt;" style="text;html=1;align=left;verticalAlign=middle;resizable=0;points=[];autosize=1;strokeColor=none;fillColor=none;" parent="1" vertex="1">
          <mxGeometry x="80" y="15" width="290" height="100" as="geometry" />
        </mxCell>
        <mxCell id="00UijC455V-xWasnX84c-4" value="lua脚本提交&lt;div&gt;redis.call(get)&lt;/div&gt;" style="shape=note;whiteSpace=wrap;html=1;backgroundOutline=1;fontColor=#000000;darkOpacity=0.05;fillColor=#FFF9B2;strokeColor=none;fillStyle=solid;direction=west;gradientDirection=north;gradientColor=#FFF2A1;shadow=1;size=20;pointerEvents=1;" parent="1" vertex="1">
          <mxGeometry x="370" y="40" width="140" height="160" as="geometry" />
        </mxCell>
        <mxCell id="00UijC455V-xWasnX84c-6" style="edgeStyle=orthogonalEdgeStyle;rounded=0;orthogonalLoop=1;jettySize=auto;html=1;" parent="1" edge="1">
          <mxGeometry relative="1" as="geometry">
            <mxPoint x="150" y="175" as="targetPoint" />
            <mxPoint x="360" y="175" as="sourcePoint" />
          </mxGeometry>
        </mxCell>
        <mxCell id="00UijC455V-xWasnX84c-8" value="&lt;font style=&quot;color: rgb(255, 51, 51);&quot;&gt;如果达到触发的阈值，则发送&lt;span style=&quot;font-family: Menlo, Monaco, Consolas, &amp;quot;Andale Mono&amp;quot;, &amp;quot;lucida console&amp;quot;, &amp;quot;Courier New&amp;quot;, monospace; font-size: 13.2px; text-align: start; text-wrap-mode: wrap; background-color: rgb(249, 249, 249);&quot;&gt;PUBLISH&amp;nbsp;&lt;/span&gt;hotsku sku_id&lt;/font&gt;&lt;div style=&quot;text-align: left;&quot;&gt;&lt;font style=&quot;color: rgb(255, 51, 51);&quot;&gt;其它客户端&lt;span style=&quot;background-color: rgb(249, 249, 249); font-family: Menlo, Monaco, Consolas, &amp;quot;Andale Mono&amp;quot;, &amp;quot;lucida console&amp;quot;, &amp;quot;Courier New&amp;quot;, monospace; font-size: 13.2px; text-wrap-mode: wrap;&quot;&gt;SUBSCRIBE hotsku&lt;/span&gt;&lt;/font&gt;&lt;/div&gt;" style="text;html=1;align=center;verticalAlign=middle;resizable=0;points=[];autosize=1;strokeColor=none;fillColor=none;" parent="1" vertex="1">
          <mxGeometry x="45.769999999999996" y="130" width="310" height="50" as="geometry" />
        </mxCell>
        <mxCell id="00UijC455V-xWasnX84c-9" value="window即为窗口期，比如多少秒超过多少次请求，则触发" style="shape=note;whiteSpace=wrap;html=1;backgroundOutline=1;fontColor=#000000;darkOpacity=0.05;fillColor=#FFF9B2;strokeColor=none;fillStyle=solid;direction=west;gradientDirection=north;gradientColor=#FFF2A1;shadow=1;size=20;pointerEvents=1;align=left;" parent="1" vertex="1">
          <mxGeometry x="650" y="60" width="110" height="85" as="geometry" />
        </mxCell>
        <mxCell id="00UijC455V-xWasnX84c-10" value="" style="shape=image;verticalLabelPosition=bottom;labelBackgroundColor=default;verticalAlign=top;aspect=fixed;imageAspect=0;image=data:image/png,iVBORw0KGgoAAAANSUhEUgAAA4MAAAHUCAIAAAAP4WrLAAAgAElEQVR4AeydiVtTV/7/f39GykxaxooGcGFRQgUhIIusoiAgoICAsooBDPsSk7CpuIIICLKJIqigGFACiEUUN6a17dg6nc7otLXYmbpVvtaS38SDx+vNIgpI0TdPnj4n96z3daG+8jlL/p/y7f48evRoaGw/9+/ff+XQLl686OvrGxIS8s0332gr/Pvvv1+7du3BgwfaCuA6CIAACIAACIAACIDAlBD4fxp7/f777xUKRW9vLxW4Bw8e9Pb2FhUV5efnl5WVfffddyMjI6Tu0NBQd3d3T0/Pf/7zH42tMS/W1NQIxvYjkUiYFZVK5fDwcF9fn0Kh+Pbbb0lWb2+vQCBwc3P76quvWIXJ259//jkmJkYgEGzfvn1kZGQsvcfFxT169IhUl0gkYxusqpSfn9/Q0JDGYeAiCIAACIAACIAACICAOgENJvrLL7+sW7eO2ttvv/22d+9ee3t7ppPZ2dllZWURT33y5IlUKhUIBPHx8dRc1XsiV8bigqQjdRMdGhry8/MTCAQ1NTWkNWKidnZ2y5cv92X8xMTE/Pzzz0qlcmRkpLS0VCAQODo6nj17diy9w0S1PTtcBwEQAAEQAAEQAIGJJcA2UapugYGBP/74o1KpfPToUVxcnEAgWLp0qa+vr7u7O1XS8vJyMpq///3vXl5ednZ29fX1usdHXFBHFJPq5thNlI6HJpjhyZ9//jk4OJiIMrHSyMjIW7duDQ0NHT9+PCEhoaio6N///vfQ0BDJVTfRoKCgU6dOKZ791NTUODs7CwSCnJwcckWhUJCwK7NT3RCQCwIgAAIgAAIgAAIgoFQq2SZKnFIgEDQ2NhJAjx49kkgkFy5c+P3335VK5e+//15SUkKcLzg4mMzIU3/19fX997//rYMsMVEHB4eUlJR8TT85OTkuLi4CgWDsJurs7FxTU0O9UKFQ9PX1DQ8P02EoFIq6urrh4WHSe1xc3PXr1xUKRU5OjkAgIKJ5+fLlyspKgUCgbqLMK1999ZWbmxszLqtUKskkPkyUAkcCBEAABEAABEAABMZCgG2i5eXlAoGAKZQjIyPEQWlzX3zxhaurK2tl5M2bNz09PZkKS8szE2OZHyeaGxQUlJGRoVAoqFPScClrdl5HhPX+/ftkf9R///tfuk40Li6OhD9pDJUIqLaYKI2hDg0N9ff3k3svLS2lO6/S09NZNJi3jDQIgAAIgAAIgAAIgIBGAi+Z6L179yIiIgQCQVpa2m+//aaxglKpPHv2rJ2dnUAgoDFR5iR+QkICdUf1Fl4ZE6Vx0pSUFAcHB29v79u3b7e0tOTn59NwaXh4OCkmFAoFAoG2CGtfXx/dckTimm8WE2UKq440YqLqjxtXQAAEQAAEQAAEQEAHgZdM9MaNGx4eHgKB4ODBg9rqPHjwID4+ngjZ1q1b6Q56pVK5d+9egUBA3FFb9YMHDxJ3PHXqFCvUyqzy66+/5ubm0rlyKpQ6RFA9q6amhlZkmui6detKS0vz8/PDw8MFAoGXl5dUKt2+fXteXh7tkQyGVldvXP0KTJT5BJEGARAAARAAARAAgVcSeMlE+/r6SLCzt7dXY80HDx6QmWhinLdu3WIW+99ZTgKBwNnZ+dq1a8zrzPRnn31GloGqm5zGK2RTFImJ0nDpGBN9fX33799nzrmTmOjaZz+s7tzc3JKTkzWaKGbnmU8QaRAAARAAARAAARCYKAIvmahcLtdxPOd33323du1aInBeXl6fffYZaxDkTCWBQKBNZMmxSk1NTUuXLmWJoMa3UVFRd+7cYfVy5cqVwcFBcpGYpe5gJJ2Rf/ToEUnHxMR8//33dJUnSdy9exc7llio8RYEQAAEQAAEQAAEJpXASyZKRE3jBqBz586RPeMCgSAiIuL7779XH9ZYTJTUevLkSUtLS0JCQmpq6l//+lcqheRYpZycnG+//Vb9O5ZGRkZOnDjh6Oi4dOnS7u5upVKpbqIPHjyorq5mnjBPTfTWrVtkP1ZcXFx3dzfj+FFVcufOnbQk62R7Mn1PArFk9apAIKBrVfPz81etWoUdS+q/D7gCAiAAAiAAAiAAAroJvGSi2mKiFy5ccHR0FAgEdnZ2O3fu1LYhaewmSiWSZb3qZklHPzw8vHPnTrJ4wNfX98aNG7QRGhP9/vvvyY6riIgIGkwlbXp7e0dGRm7bto3Mv7e3twuen5C6bNkycmiUNhPVGK9Vv0iHQceMBAiAAAiAAAiAAAiAgA4CL5moRpWkX7lkZ2dXW1vL3KLEalf3OlF6BpO6w+m4QvTu22+/Xb16NSnGjMhSc719+3ZtbS2d9Fc3UXI0FTmCPi0tjQyVHFlK7loikbBM9PHjx2RvlqOjIw2gLl++nNiwu7s7vUj6hYmyfh/wFgRAAARAAARAAAR0E3jJRDXunafbmFxcXHJycpi7hYqLi5lz6Lr3zo/HRL///vugoCA7OzupVPrrr7/SWyLuaG9vT3dB2dnZbd26lVmGjIpssfL19SXhT2Kfq1atys/PJ0dBqZsoPdMqPj7+8ePHpFOcbE/hIwECIAACIAACIAAC4yTwkolS92KeJ0psT2PYkhkFpF8KyvxGIubgfv/9959//pksCb1+/TqRwo0bNzI3D5F97itXrrxx4wYp+fPPP5PDnj7//POOjg568NPw8PD58+dJjJOOLSAg4NKlS8yo7b1798LCwsgXKV26dMnb25t8PRKN/tK66iZ6+/ZtUp75bU8wUeYzRRoEQAAEQAAEQAAExkPgJRNVKpVkTw/zTNAxmihVNPo1odqGde/evbS0NKKArMKkL6bgkkaePHly9+7d69evt7S05Obm+vv7kyly6pHLly9vbW3VuID11KlTy5cv//LLLxsbG8lRphcvXiQmmp6eTjdL3bt3r7i4mHmKU0dHB+mFeboqvc3KysrLly8rFIoTJ074+flhx5K2x43rIAACIAACIAACIKCNANtE6ffO02/U1FaTeX1kZGT79u2srwllFiDp33//vaOjgxyeLxAI4uPjHzx4wCymzUS12bC9vX1kZGRvb++TJ0+Y7TDTT548uX///p07d8hKU/JFpsPDw0NDQ2RpAVkzSqU2KSlp+NlPQkICNVfaIDXRmpqaoqIiWovcDp3Ep+WRAAEQAAEQAAEQAAEQ0EaAbaIjIyNkinzVqlUaj2rS2BDxVzs7u+bmZo0F6MUvvviCzMvHx8czz1oiBbSZ6N27d+mOJYFA4O7unpWV1dvbyxJZ2ot64uHDh9u2bbO3t8/OzmZ9kSldHfu/k1Dt7e3b29uVSiWV5sjISGYvTBNlKiw9WEq9a1wBARAAARAAARAAARDQSIBtokqlkn6fZ35+vo5YI21ueHhYJBIJBIKMjIyxlP/+++/Pnz9PV3zSdsiX1w8NDdG1ocysK1eunD59+ubNm/SwT2buGNN///vfv/76a1bh4eHhvr4+hULR29t79+5dZu6PP/74t7/9jXmFmSZrBoaGhu7evTuWG2fWRRoEQAAEQAAEQAAEQECDiSqVSjJ5PUbBIkI2xsIgDgIgAAIgAAIgAAIgAAKEgGYTBR0QAAEQAAEQAAEQAAEQmGwCMNHJJoz2QQAEQAAEQAAEQAAENBOAiWrmgqsgAAIgAAIgAAIgAAKTTQAmOtmE0T4IgAAIgAAIgAAIgIBmAjBRzVxwFQRAAARAAARAAARAYLIJwEQnmzDaBwEQAAEQAAEQAAEQ0EwAJqqZC66CAAiAAAiAAAiAAAhMNgGY6GQTRvsgAAIgAAIgAAIgAAKaCcBENXPBVRAAARAAARAAARAAgckmABOdbMJoHwRAAARAAARAAARAQDMBmKhmLrgKAiAAAiAAAiAAAiAw2QRgopNNGO2DAAiAAAiAAAiAAAhoJgAT1cwFV0EABEAABEAABEAABCabAEx0sgmjfRAAARAAARAAARAAAc0EYKKaueAqCIAACIAACIAACIDAZBOAiU42YbQPAiAAAiAAAiAAAiCgmQBMVDMXXAUBEAABEAABEAABEJhsAjDRySaM9kEABEAABEAABEAABDQTgIlq5oKrIAACIAACIAACIAACk00AJjrZhNE+CIAACIAACIAACICAZgIwUc1ccBUEQAAEQAAEQAAEQGCyCcBEJ5sw2gcBEAABEAABEAABENBMACaqmQuuggAIgAAIgAAIgAAITDaBV5vo3bv/USjOlpRUJCdnBwSEeXkF4AUCIAACIAACIAACIAACr0sgODgyKSlj79793d29d+78pFQqdZnorVu3Gxqa4uI2vW43KA8CIAACIAACIAACIAACOghs3Jj6+edfajXRrq7eTZsydNRHFgiAAAiAAAiAAAiAAAi8MYFDh5o1m2hzc8uaNZFv3C4qggAIgAAIgAAIgAAIgIBuAppNtLm5RXc15IIACIAACIAACIAACIDAOAloMNGurl5EQ8eJFdVBAARAAARAAARAAAReSYBtordu3U5KSn9lNRQAARAAARAAARAAARAAgXESYJtoQ0PTOFtEdRAAARAAARAAARAAARAYC4GXTPTu3f/gwKaxUEMZEAABEAABEAABEACB8RN4yUQVirPjbxEtgAAIgAAIgAAIgAAIgMBYCLxkoiUlFWOpgzIgAAIgAAIgAAIgAAIgMH4CL5locnL2+FtECyAAAiAAAiAAAiAAAtOWQN1nD5XK291vZ/wvmeibfKd8522lUnmrE99EDwIgAAIgAAIgAAIgMP0JPFM7pe6fUU/tvqV89FllQNVnjzSba+X1h8rbZ7x0MXnJRN9EfmGiOvm+CVI0CAIgAAIgAAIgAAJTQkDljiq5HJPAdN5WPrxe5aVuoqOG6vU2THRKMKFTEAABEAABEAABEACBCSbQfUupfPjwkc546AtPPaOaF1f7UbkpTHSCH8zYPhmgUxAAARAAARAAARCYtgTO3Fatt6z67NHDz+q0xESfK6ZXADPeqTY7/7zY24iJqvpgrBNlri14vtZVpczPgrfP74qxElZT+efF4H8gAAIgAAIgAAIgAAJvlYBKK3X9PI+JVnafeT6J/8cx0e5bz+3zmSkrR51apZvPxz0q0eStlvLT9sMEHBoEQAAEQAAEQAAEpjWBMcZENU/NP1PYh59dJzuZmHFTbUzGvWOJFRNlSKRqiC+2Vj23UrKs9aUQ6ajpM8q/VffXhgbXQQAEQAAEQAAEQOB9IzDWmChD+f44MVGyaIAR0n1unKohjqZVU/Mv1h88E9kXFZ6Xf9+eOu4XBEAABEAABEAABP4oBLTHGZkj1BwWVbncFK0TJRJNLVM1PmqWqlt6NiOvmqkfPVlKV3mGaDPvGWkQAAEQAAEQAAEQAIFJJMCKEr6IF46m6CnyZ26PxhZfxERHz3WaGhNl7ENSeeSzt9REn719+FkdYwped3lM0IMACIAACIAACIAACLxVAs+ihKOhQxpbHLXeZ7vMmRf/aCYawAyCknjni5ioV4CXSpNv33r4YuvSK8ojLAoCIAACIAACIAACIPC2CDDFzIts7FGq5rc/I+eG0l3pz8ej3USf27MqvDrZ37H00koC1YGo5Gc0/PkiJhrgpVo0wJivV92G7vLPb+P5DU9iIBpdgAAIgAAIgAAIgAAIPCcwGlJU3j5Tef2zzufC9pLXqUKQJET6bHb+uurb6pV0t/ozi2OsydRmcROyd/5FmFNbN7gOAiAAAiAAAiAAAiDwxybwbOXkM59kzsK/GDNdQvqykj4z0e4XxcgSTR3tPPddL6+AcZvoGGyXMTKEOUEABEAABEAABEAABEBglMA4TZS16whYQQAEQAAEQAAEQAAEQGCsBN7YRDWvGED4EwRAAARAAARAAARAAATGSOCNTXSsqjvGcaAYCIAACIAACIAACIDA+0YAJgqlBgEQAAEQAAEQAAEQmBoCMNGp4f6+feLB/YIACIAACIAACICAOgGYKEwUBEAABEAABEAABEBgagjARKeGu/pnAlwBARAAARAAARAAgfeNAEwUJgoCIAACIAACIAACIDA1BGCiU8P9ffvEg/sFARAAARAAARAAAXUCMFGYKAiAAAiAAAiAAAiAwNQQgIlODXf1zwS4AgIgAAIgAAIgAALvG4GXTJTD5eEFAiAAAiAAAiAAAiAAAm+HwNaiPf9P+fzn7XSJXkAABEAABEAABEAABECAw+XBRBEGBgEQAAEQAAEQAAEQmBoCMNGp4Y6PQSAAAiAAAiAAAiAAAjBRmCgIgAAIgAAIgAAIgMDUEICJTg13fAYCARAAARAAARAAARCAicJEQQAEQAAEQAAEQAAEpoYATHRquOMzEAiAAAiAAAiAAAiAAEwUJgoCIAACIAACIAACIDA1BGCiU8Mdn4FAAARAAARAAARAAARgojBREAABEAABEAABEACBqSEAE50a7vgMBAIgAAIgAAIgAAIgABOFiYIACIAACIAACIAACEwNAZjo1HDHZyAQAAEQAAEQAAEQAAGYKEwUBEAABEAABEAABEBgagjARKeGOz4DgQAIgAAIgAAIgAAIwERhoiAAAiAAAiAAAiAAAlNDACY6Ndzft89AphaCnXv2Xbn614sDl/eUVMw0NH/fCLy398s1MFno7M139eO7+i109uYamPyRUejpGwcKC5eFJv+RB4mxgQAIgMC7RGC8Jmq9Iji+/LCwsllY2RxfccQ/vWC2mQ0BxMwiBYSVzT5JkumCzydJErGt3MDEWtuAjS0dkmpbQ2R7tBWYkOvWK4JjSuqtVwRPSGtT0shMQ/Nrg589+e23v3/73Vd/+/rCxctTMox3oNNOxdm/3fjGxy9kGt0L39VPLD+f3zOY3zMolp/nu/qpD35JUFRMSb3GLPXCk3olYGO+cNthg7lWk9oLGgcBEAABEKAExmuiLuEJkvYLEUUV/ukF63dUieXnU4+cnrfYhcPluYQnyDovxZTU+6cX0NeSoCjat47EQmfvjGbFCmGWjjKTnRVRVJHW3Gls6aCtI2NLB2HV0aCcIm0F1K8bWtgn1baG5hWrZ2m74hKeIJafdwlP0Fbgj389LVPy6NGvLSdOvdZQI2MSfrzzU+WB+teq9W4Xlnd0fn79S7dlGmRO2413nOm6efPbZd6B2gq8teu+yTJtJhpRVJHfM/haf0qTMexPnPxFe1otnfwno3G0CQIgAAIgoJHABJgo05NsfcM2y/tDclWmRUzUN1mmsWPdF0kc5c3q6m557LmvNNGxN0VLGls6pDV3RhRV0CuvTLwDJlq0o+TBg4dFO0peebPMArHxogcPHtY3NDEvIv26BHo/7f/hhx//CGFUbSZK/ijE8v6k2lZ9wwWve4MTVf6DDw0jsvdFSfZ/8KHhRLWJdkAABEAABF5JYIJNlGlaOkyUWYzD5THfklpkLo/+lygpsxirFn0bubMqYlu5THElv2dQWHWU3D/XwGRtwV5Z56X8nkFZ56WgnO16+kbqaMxsPKM2718Vn0eydJgoCeGQ4bG0Uk/fKFi6S9JxMb9nMFdxdeP+JhIhZs5R0vti1SX9fmzE99+QG5tb87GxJRF6puuzhu26LjH7xLn8nsG8rqtJta2mdh6kgG+yLL2pM1i2W3p64NmsaL9nbBqtuyQoKqv1rIqG4kpMSV1W61kSc13stlq47bCjb5SevjEtTBI6slglmW/rG5qUL/88efKEKKmPX8gPP/zY+2k/Kc98W7Sj5MmTJy/XUxIlZRbjcHka357vHzh77vxvvz1VKpVffnWDtG9qITij6CHNPnnypPWkfPLWqs40NG87dfrXXx8rlcqnT59e/+KrgDXrKJbszfl3fhoaefbzw493ktPENKu+oenBg4dl+6uH7t5VKpX/93//V7htF4fLYwJhaWV9Q9NPQ3evf/EVbVCYlE4avPH1TRZDVl3aLythaueRVNua13U1v2cwq/UsmcfQ0zeKL29MaWyny29mm9mkNLZH764h1V/8KnZfyzjW7Rgcx2pWm4m6hCfknPw0NK84u7XX0uNFPHKGMT9q1wH6Zxu168AMYz6Hy1tbsFcs71/s/WKJQmDWVmnHgMOaaPK/iJDcYtHBtrzua3ldV4VVR+mAZxjzI7aW0wbXFuxlLlo1NLMT7Wn1CN7EGjbeggAIgAAITCqBCTZRW98wsbw/WKr65/PNTHSGMd/C2cc5NE4s718t3k42OpDFmmMxUZniSnJD2wphluv6JLoSIDSvWNox4JMkmWHM908vkJ4eWCHMplg/+NDQ1jNUuO1wzoHupJ3HbD1DSZYOEzW2dOC7+tn6hmUcVbBscoUwW9JxcaVI8tFss6Vr48VtfRvKDunpG5F9G6RKdHEduS/W1P8cvlN4enF2pSK9rN03ZvOfZ8zTbaIOq6Ml7Reii+uM+EsWe4ekN3WmNMjJv7u+ybLcrqsJB45ZOPtYOPsk1rRkHusiTrzQ2Tu7tVd0sI3v5k+yZJ2XiIkaLbCPyNqXtb8zvazdf0Pux0aqf/jJS0cWLaOeWOq+MjZedKDm4MOHjw7UHIyNF0XHJdnYu2mTSCKmNvZu0XFJhdt2PXz4qPWkPDZeFBsvWuq+Unctmvvbb0//8d0/Kw/U79hdKsndQkbVcabr8ePHtfWHbezdGpuODw8Pj2XePzy9OK1UznzFyKpnGFqo3ynzSuWB+sePH9cdPMK3ctxStPve/fuDf/2ciK8wKf2XX+59c/PvoRGxoRGx39z8+09Dd6mn1jc0jYyM/PrrY0XX2dz8ov1VdWQingCJjRcNXLrCsklSZeDSlTWhUaSvf/7rFqkVFLyeVLnz01BGliw2XhS2fsMr/Vvllw3y9KbOxd4hRvwlG8obs1t7Fzp7c7g896hNYvl5hzXR5GZV0fq2PvLWallQzslz0btrZpvZmNl7Jta0ZLWeNbP3ZGLRZqJrC/YmH2pf5BmY3drrl5JLq4TmFYtPnXcJE34028wnSSLtGCDLWhZ7h4jl/WsL9pKSRIhJPJX8L0Is7/dJkhha2K8UqWoFZm0lJSO2ltP/D5AGaRaHy7PxCE4rPWXlMvXLGCgBJEAABEDgfSAwASZK14nGlNRLOi6mHO5grhOVdgyI5efJK27fIcJUt1NyuDyNs/O6a5FcZsyG9GXuuDy7tZf+u0VCOwkHjpGwqHtwYkrJyaz9nWHpxSZWKkOiLx0mqvEuyMWQ3OLsE+csnH3IW8fgWK/4DDrnyLoF2pe57bKNWw5lV3Zv3HLIfnk4MySpY3Y+uqSO+iURBWnHgGdsKofLe/avfv8ijwDShWds6mZ5v3OoKky1Qpglab/wkk+8vA6VO3O+s3/ss/Eoojbvn2PhSMepI4uWUU9onJ3XGM6kIVIOl6dxdl53LZJ76/a/WSspIyI3/ve/v5xR9JCxzTQ0//z6l3+78c0rtWzWvMVz+E7Ml6GZ3Stnb9tPK3755V50XBLpLq9ge9n+6kW2SzlcHisre3P+Dz/8mFewnZSsb2j6/fffq2sb1BmSK+pT7SSMGhsvIgWqaxsePfqV+jeHy1Ovoq1xcp3162Hh7EMFkRUEjd5dk3yonXxKnGHMX+jsTWKWHC7PMzZV0n6BtbhZo4mSNiOKKlh/mBwubwMjBKunb+QeJXJbrwpY6ukbRRe/+M13CU/YLO93j1Jlkb+v9TuqyL3oGy4Q1beRuRHW/wc4XF7Unlr6fyQOl+cWJEwrPTWH76SbD3JBAARAAAQmlsAEmKi0YyC5oU1Y2Zxz8tym+pMfzTYjQyQxURrX5Lv6zbdxJVksIWO9HY+JJla3sAC5hCdITw+kNMjp/v3M4z10K1KkeH9a6SmP4E0fzWKfK/RmJrrAaUVqY4f09EBi9XHfZJkRfwlzPOp3OsoqYENWVVewaDtT+0aztOxYMjCxTj7Uzrxfou9k2wfrX32mzoZvKcs83mMicNfR/gcfGlo6+sXIqrMru5eu2sC8BR1ZzGLM9Fs20Rtf32T2Tma3h4eH//mvW198+Tfyunv3Z1ZwkVVlPG/XRQn//e8fhoeHb3x9s76haYXvGtral1/d+Net2yS+Sy/SRH1DE129QC8yE+payTJRsjmstv4wraVehWZpTEQUVZDfXvL3knDgmKTjIg38B2ZtzTjWbSJwNxG4ZxzrZsYU+a5+0SV1OSfPieXnJR0XZWcGxmKiDmuixW19pKRfSm52ay/9FCfwj8g+cU4s748vP7w8PpNqLofLc1ijmg3wTlItbIjeXUM/f6r/fSVWt5C/EefQOEnHRR2bIGGiGn8fcBEEQAAEJpvABJgoXcXonSRmBdtknZc07jpi/YPBejvhJkqjtnQLP41T6ukbuwZuFO06nl3ZHSWpsnT0oxGvNzNRDpfHNTBxCU+ILqkTt/XJFFf80/LpU1S/U5pl4eATLT2QXaVaIeAWJOTOnE+ymBJJC3O4PGKidC0sh8uzcPYRt/W90kQjiioymhVzrUZjP6z2eWaCQGFB+r72rP2da9N288wEtFMdWbSMxsQfwUR//fVx76f9R5pb6IvGKTWOmVx8s9l5DpdnaiEo2lEycPnqvfv3f/vt6eEjx0iDX35149t//JPER9X7nSgTZW7zegMTzTl5LiiniP6x+KcX0IUuFs4+Wa1nvZPE3knirNaz1BoXeQRkt/YKK5sF/hF8V78ViTlief9YTDQkt5gum1Ytre66ypTFGcb85fGZ8eWHJR0XJR0XXcKFBJq+4QJh1dGk2lbSLxVi9b8vpolulveTGQN18oiJamSCiyAAAiDwFghMpImSibb48kYy8f3KdaJ0Ek393w8ds/PaapFGmDFCgs/Sw1986vwayU4dNEmcb0N+fc6B7rHsWCJNqQ9b9e/Z+k1kDpFMI8aU1NP4K509pBEm9SHxzASrN23L2t8p3HqYrEdkmSKzCnP6kgaKyD/kOmKiPkmSzfJ+G5/R5bDM9q1cAjMrzqSUnFwWlkJVmPSoI4s5JI1pHSb6ad8FUoU17a57dl5bLdKIekw0PiH1/oMHJ9s6NAr3jG8AACAASURBVA5Px0Vbz1DPEBHz5bAykqzf1VFr5559O/fsIwVmGppfvjJI46+s2fmQsJi6+saQsBhSePwmWl3b8PjxY7LPibT5uibql5K7Wd5v6xeu7Qajd9ckVrfEVxyhe5XUV4O4rksci4mST1Mbyg6RZdOLPAJSGuQbyhs5XJ6+4QKv+AxqwDOM+ckNbcy/brJoNXbvwazWs2QZq8a/L2qi6rPzzD9VDpfn5BeTVnrK3HaZthvHdRAAARAAgckgMJEmyuHymGFRHSbK4fLiShsyj/fwXf1mGPNDZLtzFVeZfjZvsUvmsS6y73WGMd/Qwp7cvI5a2kyUrCpT7VJKzNHTN5pr7byhvDFiW7lGmnP4TtauQSRLFTs8qrD1DSP/TDK/IYa5Y4lsP7Jw9iGzhxFFFWL5ebIi04i/JLG6JbmhjR6Pr2+4IKm2Na3pjKmdB9fAhAYmWYPR5y2w8wojCwaemWL/isQcOgy+qx9pcGnYRkn7hfAtZVwDE1M7j5QGeWpjB9kFpcNEyY6lxJqWudbORvwlCQeO0h1Lc/hOC+29aVSYOSodWcxiGtMaTZTD5V0b/Gzo7t3YeJGNvZu8vfPp06fMdaIBa9b9NHT3y69uuC3zs7F3oydi6qilzURnGpoPXLoyPDx8oObgTENz/6Dwzz7/4uy58xpHO/6LvZ/2P3jwkOjgCt81X39z8x/f/ZPMyCcmZ967d//iwGW3ZX5uy/wuDlz+z3/+GxkzelisNhNl7lii24/IwUz1DU1Pnz49JT9jaiFI2JT+w4936I4lciNHj598/PjxnhLVwWF+AWtNLV4Euf88Y15E5l7RnpYFtl70rs3sPTOOdac3dS7yVO3dcVgdldrYQYOR9AMPc/aDw+V5xWeoTqXI3vbRbDNb37D0pk76S0W/Y2m1eLv42WJlulBnSVDUZnk/MwiqWmbd2mvuuJxEPTOPdZFhkAOG40pfrKAln3vzewbpEnDdJsrh8lR/m219ZFO/Y3CcuK2PebKvue2ylJKT9ssjKAokQAAEQAAE3gKBCTZRooMkLKrbRBd5BGQcVaiOH+q+lnDgWHJDG9NEOVyef1o+OYwpr/tadHEdYaGjljYT5XB5M4z5MSV1uQrVqTR53ddU28ZdVBuxdb+YRzWRCUR6Lrd6Fv13d7aZTUxJPe0rvamT9fVILuFCcsZTfs9gUm3rx3NVRzXpeBGMzBnM/J5BuuZheXymWN5P7iulsZ3elw4T5XB5ZFM/Ofsp+VC7+uYSHeN5gyxtJipMSr/z05BSqRwZGfnbjW/+8d0/mSbK4fIOHzlGDmMaGRkZuHSFdK2jljYTVe2Mtne7dPna06eqo51GRkb+8d0/Y57v8nmDO9JdxW2Z3+Urg7Qv1lFNO3bt/eWXe+R8pf+d1pS9+cXiDW0myjzFiVRUKpWEFalCjoVSKpV3fhqipziRQQasWXfr9r9JrYcPH2VkvTjf96NZ5nH5dVmVCjuvMOYdLfIISG/qzOu+Rs75ithWzlyjST5Nsc7+nGHMX7/jAPm1l54eiCttkHYMEMXUeH4ZiW4G5RQR76S9LwmKEsvPkzl05mFSrEPKSHn/tHzWcU7q0xQ0Jsrh8ph/mzLFFdZ9fTTLPL6wIVg0unuMDgkJEAABEACBSSUwXhMd5+Dm27iyTjJiNkiiKTSgSLN016LFWAltrbGKTchb3X3p6RuZLfHSceOvNYY3a01P38jUzmOGMZ+5rf61+p2owkHB63Wcu25qIYiMSVDf4qO7lraxaWtNW/nxXNfd15uNX308dMfSUveVQcHr1QuQKz5+IRqPcOLOnK/tUCoDE+vX/Zr4GcZ8c8flzEM6tY1n7NdZu/JpRSLEdC0Qvf7KhI5BegRvEu1uUd81+Mo2UQAEQAAEQOCNCUyxib7xuFHxjQkYWzok1bb6JEm4BiZm9p6b6k8yV7K+cbOoOCUEqIlOSe9T1amevlFAZqHqcNPVo4ebTshI9HkLNhTUBwoLNC5QmZAu0AgIgAAIgACLAExU18w4C9a78VZP38hXJKVz+urrB96N23xP7uI9NFFyRoRMcSU0v0Tjl6WN59GbWrtv2nnMJSB+PI2gLgiAAAiAwNgJwETfOxOlvxzGlg7qKx9oLhIg8MckQL6GbaIWt6jf48dGfIO5i9Sv4woIgAAIgMBkEICJvr8mOhm/T2gTBEAABEAABEAABMZOACYKEwUBEAABEAABEAABEJgaAjDRqeE+9s8KKAkCIAACIAACIAAC7yoBmChMFARAAARAAARAAARAYGoIwESnhvu7+skG9wUCIAACIAACIAACYycAE4WJggAIgAAIgAAIgAAITA0BmOjUcB/7ZwWUBAEQAAEQAAEQAIF3lQBMFCYKAiAAAiAAAiAAAiAwNQRgolPDfTI+2bzBF4VPxjDQJgiAAAiAAAiAAAiMkcB0MlEDE+uIbeXCymbyithaznf1o/epp2+0LC4tpbFdLD+f0iB3CRfSrPEkyLe0h8j2jKeRV9YNlu7aUN5ou3ItKbksLk1Y2bx07et95aBvskwsP89k8sp+WQVMF3tEZO6NFFdEiivWZe/zDBHp8xaQMswsUiBSXGHtGsRsYVlYqn9c7p9nzKMXrV2DaGH/Dbk8MwHN0pHwXp/pE5nN4fIW2HqFpOycw3f6aJZ5oLDQJWADSdA2Azbmz+E7kaZYWaSMS8AGDpfnE5lNqzATZPzquYHCwo9mmesYIbJAAARAAARAAAQmhMB0MlFjS4e05s7Emhb/9IJg6a60pjPSjgHX9UkERHjhPpniSkxJnX96gbDqqExxxT+9YPyMjC0dhFVHg3KKxt6UoYV9Um1raF7x2KskVrfk9wyuLdjL4fL0DRck1bbm9wz6JsvG3gKHyxu/idq4r0kvaw9KKPQMEQUlbk0rPSXcethgrhWHy2NmeYaIyGue5VI6wo+NLYVFR9L2tZvbLqMX3YKEGeVnfKJy/GIlCduPZFUqPII30VxtiaCEQuHWwzMMLTyCN2VVddkvj5htsnjTzmNuQULSS7T0gGeIyCcyW1h0JKPstK1HCIfLoyYq3HY4q1IRLT0QKa4gJmrrGUoGvDZtNxkPc/xRkqqE7UfoTXmGiBxWRjJ9Wts4cR0EQAAEQAAEQGCcBKafiUYUVZB7nmHM31R/MvlQu4GJtbnj8uzW3uiSOpKlp28UU1Kf3dpr7rh8nIDeoDoxZjrOsbSQWN2S13U1+VD7bDObxd4h4rY+meLKlJhoWqncxn0NGfMCgVfavvaV0ZuJiTKz1G+KqGpG2ellYak01y1ImFZ6ioQtP/jQ0CcyO31f+ydO/rSAxoRH8KaE7UdmzvkkKHGruPrs8vC0OXwn0Z4WG49gYqJBCYWkInfm/Ni8mvjCBmYIk9kpq32NWVGSqihJFask3oIACIAACIAACLwFAtPYRDlcXkRRRVpzp7Glg4Wzj7itb/2OFz5h6eHvkySZbWbD4fJmGPMjtpbLOi/l9wzKOi+tLdjLNTChcBOrWxKrWwIyC6WnB/J7BlOPnDa0sCeN5/cMkhdLKxOrW+IrjmQcVeT3DOYqrsaU1M0w5nO4PL6rn1h+ntbSWJf2y0wkVrdkHOvObOlxWBMdlFOU0azIONZNTdR1XWL2iXP5PYN5XVeTaltN7Txo3eXxmWJ5f37PoPT0QMKBo8zZeesVwelNnXnd1/K6r6U0tvNdVtJa2hI27muYusnUPlaWegtBCYXxhQ3hGSVRkv0ffGhICrDMjzQYmrpLvTrziv3yiOTiEyZWbnF5taLdLaGpu6xcAlNKTvAdVjKHRKqoAqhFRz42tqQtsDql1zlcnsYsmCgTEdIgAAIgAAIg8DYJTGMTHY2JNrQZmFjr6RtFFFXkdl5et32/EX8Ji2DE1nJpx4BPkmSGMd8nSSLtGAjM2krLJFa35HZdzTiq8E2WOYfGua0fnT42tnTgu/rZ+oZlHFWom6j09MBKkcTQwj5EtlumuELm4rkGJgudvUmV6OI6vqsf39XP2NKB9qUtkVjdklTbmlTbGl64L/lQe8S28rTmTmKiDqujJe0XoovrjPhLFnuHpDd1pjTIiWHb+oaJ5f0byg6ZCNxtfcPSmzqpiS509s5u7U2saTGz91zo7J3SIKe1tI1BPfCpiomWysmSTd0mqs9bsHHLoZXRm538YlJKTtBZe3XzC88sZYUw1cdDvNN+ebhw2+Fg0fYNhQeXeK8X7WmZw3dimSiJicbl1yEmqo4RV0AABEAABEDgj09g+pkoWScaml+S2dIj6bhIdyZxDUxCZLulpwfyuq6mHO6g18nEPVmCSZ5H1J7auH2H6LNJrG7JPnHOwtmHXmEmNE61kzAqKaanbxRf3kgWCZArGqsw21RPkwYDs7ZK2i/knPzUKWQDNdHokrrMY13zFruQWu5Rm6QdA56xqhnwkNxi5siZ60RZWQ5rosVtfS7hCepdM68wF4OuTdudXta+ccshuk40s+KMuPosfTFntC2d/FNL2mzc18yxcBTtaXVbnUiaVTdR9RAmcwAkrZqL393iuTYlcUezS0B8wvYjZEnox8aWxETJOlG/WIlo1/H0snabZ+tEaTvqnerOipJU0ZsSV5/NrDhD1yfQikiAAAiAAAiAAAhMBoHpZ6KZx3uElc0phzvE8v7F3qqtKszXDGO+Z0xKamMHjVM6h8ZJOi6uEGYxizHTidUtZIqfeZGmNWol00Q5XF5QTpG4rY+6rMYqtEGNCdKgjU/oZnm/qL5tkUeAuK3PN1lmYGKdfKg9sbqF1iILAMgOqsTqFlF9m77h6PZ2pokmVreI5eeFVUfJOQOJNS25nZfpdD9tjZWwcV+TUXY6Lr8uUlyRXHwyLq/2T3+ZS8rojon6x8rIFPkHHxpGSfZHZO8jE/TqUhiUuJU1mc4aA4fLmznnk4TtR8IzSuK3NJjZeAqLjqzL3heXV/vnGfOIiW7adTxSXLFxy6H0fe1mNp6sFtQ7pQU0ZmF2nvJBAgRAAARAAATeMoHpZ6JkotzC2Sf7xDlmpJMJTk/faN2OSmKHzqFxm+X9JIjILEPTE2OijOOT3thE9Q0XiOrbgnKKiG5SExVWHaWjJStiqYkm1rTo6RuRXJaJpjd1+qcXMF+WHq/YKsTUzaWrNqSXtVs+313EzKKDIYmPZpnHFzYww4qiPa2GZnbq6zL/PGNeXF5tpHg/qwXWW9KgaHdLlKTqo1nmcfl1iTuaSC3m7PwcC8fk4pP+sewTBjTqJulCYxZMlMUfb0EABEAABEDgrRGYribK4fLWFuylc9OesanS06Nz1oSdf1q+tGNgSVCU+uy82/pNdDEoh8sbp4mS2Xm6z4nD5b2xidKnTk2Uw+VtKG9MaVTtqSe5DmtUy0ZJiDd8S1nm8R4TgTvJYppoRFFFZkuP2RIv2uZYEkzdJEs/aXSTmcVqiu+wMq30lFuQcA7faQ7fydYjJK1U7uQXo26itp6hGWWnl65SnfGp+0VmzFfF53G4vPDMUnH1WbJfnmmiHC7PP1aWXHxyjoUjszWNukkKaMyCiTLpIQ0CIAACIAACb5PANDZRZljU2NIhtbEjs6XHMThOT9+ItbMnoqhC3NbnGBzH4fIcg+PEbX3Mwz61mShzxxLZfmTh7EP2yKvmvp81qKdvtCIxR9oxwGyQHAia1nTG1M6Da2Ay12r06HXyXK1cAtNKT61O2sZ8zKzpfqaJLg3bKGm/EL6ljGtgYmrnkdIgT23sILugRjcz7a6ZbWaz0Nk7rekM3bFk6xu2Wd6fWNMy19pZT99oeXxm8qF26xXBtNM/z5gXkblXtKdlge0LW2XpJjMsSrKcV8UR3ST/JfuEVkZvpkFQcq6nahN9Zikx0fR97VYugXP4Th7Bm9JK5ZHiCu7M+XQY2hJBCYU5B3rIaaArozeLq8+Sg0hZJsoMi37woaGhmd0cvtOKdZm0U+aeenUzJr1HSari8mqZ92VoZke3/5NjSsm2LW2jxXUQAAEQAAEQAIE3IzCNTZQctETDoqZ2Hkm1rXldV8lpR5vqT9Jzi2ab2cSU1OcqVFkyxZWIbeVEKAkybSYaUVTBOo9J1nmJbPpJrG7JOXlO3NZH+oopqWc2yOHyXMKFko6LpHpSbevHc1+cMeSwMjK7sjtGVs08O12HiXK4PHpUk/p5TKqjAJ4dPiVTXEk4cCz7xDn6HUtL18aTs5/IGU8BmYV0Hp/4Ylx+XValws4rjP7qsEyUaB8Ji9q4r2HtWBJXn3ULEpIJd+KdtJ2V0Zs37Tw222SxW5CQzNrnHOhJ3XvKKzxNT9+YFtORWB6elllxxsolkMPlOfnFZFcqSJCVZaKqRboJhSQsSrKYiwRoJJV2pC0myqrFXMlKmmVuz6KtIQECIAACIAACIDBOAtPJRMdyq1wDE3PH5SwvJBVnGPPNHZczTxIdS4May1BxnG/jamBirbGMnr6R2RIvjUc4zZzzyRiFjLasozWugYnZEi9t92Vs6WC2xIvpoLRN7sz5Mwwt6Nu3nJjDd0orPcVSwD+g8BETZan2W2aF7kAABEAABEDgXSXwrpno23lO1ETfTnfvZC96+sbGCx2Yc+Jz+E6z5i3+o90sPaDqjzYwjAcEQAAEQAAE3gECMNFXbJ3R+IxhohqxvJMX9XkLPnHyp8tG38l7xE2BAAiAAAiAwFQRgIm+iYlO1dNCvyAAAiAAAiAAAiDwLhGAicJEQQAEQAAEQAAEQAAEpoYATHRquL9Ln2ZwLyAAAiAAAiAAAiDwZgRgojBREAABEAABEAABEACBqSEAE50a7m/2uQG1QAAEQAAEQAAEQOBdIgAThYmCAAiAAAiAAAiAAAhMDQGY6NRwf5c+zeBeQAAEQAAEQAAEQODNCMBEYaIgAAIgAAIgAAIgAAJTQwAmOjXc3+xzA2qBAAiAAAiAAAiAwLtEYJqZaFDw+th4EXktdV/5Lj0J3AsIgAAIgAAIgAAIvG8EppmJ3vj6pvL5T31D04Q8LWnu1ps3v33w4OGPd36qqTs009B8/M36+IXcvPmtvKNz/E2hBRAAARAAARAAARB4VwlMMxMljyE2XvTgwcMJMdH6hqYnv/32txvfHGluGbh89clvv509d378MurjF/LlVzeOt556rd+bjjNdN29+u8w78LVqoTAIgAAIgAAIgAAITFMC77WJLnVf+a9bt7/9xz8X2S4lz+9kW8fjx48luVum5HH2ftr/ww8/+viFTEnv6BQEQAAEQAAEQAAE3jKBd8REffxCfvjhx95P+wk+1tuQsJibN78dGRlRKpW//vq47dRpEvVc5h34/fc/fHPz7zQIGhIWU1ffGBIWw+HyZhqaNx9t/fXXx0ql8unTp5evDLot86OP58bXN7/+5mbz0dbh4WGlUvn99z+QWGbvp/3Plw8o6XhIrRtf37x+/as7Pw2RBi9dvmZj70azaC2SgJJS1EiAAAiAAAiAAAi8qwTefRNdZLv0y69u/PDjnYRN6Tb2bvL2zidPnpTtryZPtLHp+G+/Pf3s8y9CI2JZz/jgoaYnT57I2zsdXVZsKdp97/79Cxcv0zI3vr759OnTOz8N1Tc0FW7btXPPPpLl4xcSGy/KyJLd+WlI3USHh4frDh5Z5h0ob+/87benHWe6SC2yE2vg0pU7Pw1lZMli40Vh6zdQP6adIgECIAACIAACIAAC7xKBd99EZxqah63fQKe814RGDd29Sx1xpqF5bf3hBw8ejoyMDN29S3cskYn7z69/SXWw9aScuYjzxtc3f/nlXnRcksbfBlZQlpS58fXNG1/fJOmZhuafX//yX7duM08AwOy8Rpi4CAIgAAIgAAIg8K4SePdNlMPluS3zO9bS9tPQ3QcPHj58+Ojp06fURMlzNbUQ5BVs//qbm7///vvlK4OLbJdGxyXdu3+//bRC24O/8fVNHRPorzRRDpd3vPXUvfv3mS4LE9VGG9dBAARAAARAAATeSQLvvokusl16/Yuvfv75P6VlVdrmzemjbT7a+vjx48Jtu4iJ6tj8PiEm+uDBw9h4Ee0dJkpRIAECIAACIAACIPA+EHinTPTTvgvkmTFDkuTIp8NHjpEsv4C1P975icRE0zIljx79ytTNHbv2Dg8PVx6oV5+dl+RuKdtfTXfZj9NEyew83edExgYTfR/+5HCPIAACIAACIAAClMA0M1Gys6dw266HDx+1npTHxosiYxJMLQQcLu/a4GdDd+/GxovItiQ6BR8aEfuf//z3q799vcJ3TcCadQOXroyMjBATJeHSBw8eVh6oN7UQhEbEfnPz7//97y+RMQkcLu/wkWO//vr4QM3BmYbmCZvSf/jxzuBfP6fLRrWZKHPH0sClK7Hxoui4JLJH/sbXN+/dv5+/ZedMQ/MDNQcfP35MdyyR53H0+MnHjx/vKangcHl+AWvJfZEsl4ANoam7Z81bTJ8cEiAAAiAAAiAAAiAw3QlMMxNlfscSOe2ITnALk9LJAUkjIyN/u/HNP777J10MWlFZ+/DhI6VSSbKG7t797PMvyJNzW+Z3+crg06dPSe7/WsjenE+yTC0EZxQ9T548IVmfff7FCt819HlrM1HmKU5khE+ePCnaUcLh8lQmeu/+vfv3SYOXrwzSU5xIswFr1t26/W9S63/rWTOyZLS7oITCtNJTc/hO9AoSIAACIAACIAACIDDdCUwzE30l7qDg9XSbPLMw2UHP3Kg+xlxTC0FE5EaWMjLrjj1N984HBa/XNhIOl+fjF6J+hFNQQqFoT6uhmd3Yu0NJEAABEAABEAABEPiDE3jXTPSPjJua6OsOUp+3YOOWQ0EJha9bEeVBAARAAARAAARA4I9MACbKe2uP541N9IMPDflLVn5sxH9rQ0VHIAACIAACIAACIPAWCMBE356JvoXHiS5AAARAAARAAARAYBoRgInCREEABEAABEAABEAABKaGAEx0arhPow8rGCoIgAAIgAAIgAAITBIBmChMFARAAARAAARAAARAYGoIwESnhvskfbBAsyAAAiAAAiAAAiAwjQjARGGiIAACIAACIAACIAACU0MAJjo13KfRhxUMFQRAAARAAARAAAQmiQBMFCYKAiAAAiAAAiAAAiAwNQRgolPDfZI+WKBZEAABEAABEAABEJhGBGCiMFEQAAEQAAEQAAEQAIGpIQATnRru0+jDCoYKAiAAAiAAAiAAApNEYDqZqIGJdcS2cmFlM3lFbC3nu/pRLnr6Rsvi0lIa28Xy8ykNcpdwIc0aT8LY0iGptjVEtmc8jbyy7tK18fS+NpQ3rhBmcQ1MXlnrrRWYb+MaU1JPR0gTMSX1821c39owOFye6WKPiMy9K6PEH3xoyOHyPja2DBZtDxQWfjTL3HSxR2jqbtPFHnQ8LgEbSBaHy/OJzPaJzKZZNOESsCFSXKH+cgnYQGqxsjQ2QltDAgRAAARAAARA4LUITCcTNbZ0SGvuTKxp8U8vCJbuSms6I+0YcF2fRG44vHCfTHElpqTOP71AWHVUprjin17wWiw0Fja2dBBWHQ3KKdKYq/GioYV9Um1raF6xxlyNF32TZdLTAyGy3f7pBTEl9dLTA8LK5hnGfI2FWRdD84qTalsNLexZ1yfw7WwzG58kiX96gX96QXpTZ3pTJ0n7JElmm9lMYEevbMrGfU1mxZnk4pNzLBw5XJ6dV1hWpUJYdORjY0sb9zVppXIb9zW0kaCEQpLF4fKiJFVRkiqaRRN8h5WeISLPEFFQQmFG+ZmghELylu+wkppoXH5ddqUiLr8uUlwBE6XokAABEAABEACB8ROYfiYaUVRBbnuGMX9T/cnkQ+0GJtbmjsuzW3ujS+pIlp6+UUxJfXZrr7nj8vEzet0WiDHTcY6lum+yTCw/T0O8nrFpsjMDK4RZY6kbUVSR1txpbOkwlsLjL5NY3ZJY3TL+dt6sBWKiWVVdS1epYpbBou2ZFWfGY6J0GOoiO5YsWgYJEAABEAABEACBNyAwjU2Uw+VRCbNw9hG39a3f8SLoZenhTyN2M4z5EVvLZZ2X8nsGZZ2X1hbsZc59E7UKyCyUnh7I7xlMPXKaxBcjiiryewbJi6WVidUt8RVHMo4q8nsGcxVXY0rqSPyS7+onlp+ntTTW1fiQWCZK2vFNlpHC1iuC05s687qv5XVfS2ls57uownUcLi+xuoXVF1VSVoMa33rFZ2Qc61YxOTPgHBrH4fJcwhOyWs8GZW8Tt/URVkHZ7GAwy0Rnm9mkNLYn1bbqGy4go9I3XJBU25rS2D7bzIY0GFNSJ1Ncye8ZzD5xbunaeErA1M4jqbY1r+tqfs9gVuvZJUFRNEtbgviicOvhiOx9PDNB4o7mddllMFFtuHAdBEAABEAABP7gBKaxiY7GRBvaDEys9fSNIooqcjsvr9u+34i/hAU9Ymu5tGPAJ0kyw5jvkySRdgwEZm2lZRKrW3K7rmYcVfgmy5xD49zWbyJZxpYOfFc/W9+wjKMKdROVnh5YKZIYWtiHyHbLFFfIXDzXwGShszepEl1cx3f147v6jSVayTJFz9g06ekBr/gMDpe30Nk7u7U3sabFzN5zobN3SoM8pUFO5sTn27jyXf2ii+syjipsfcP4rn5mS7z09I04XB6rQfW3eV1XJe0XwgpLHdZEL9+YRRp0CU+QnRlIaWy39Q0zEbhHF9eJ5ecXe4dQVkR/WTHRwKyt0o4BhzXRpJjDmmhKWNVg56XEmhYLZ5/F3iHpTZ3Zrb0Lnb05XJ5KYRvk6U2di71DjPhLNpQ30ixmd6w0MVH/DblJO495haeJdh33icyGibIo4S0IgAAIgAAITBcC089EyTrR0PySzJYeScdFujOJa2ASItstPT2Q13U15XAHvU4m7tcW7KWPJGpPbdy+Q/RtYnVL9olzFs4+9AozoXGqnRkX1NM3ii9vJIsESEWNVZhtqqfpOtGArC0b9zfJzgxs3N9E4qwhucXM4TmsiRa39bmEAPVfSgAAIABJREFUJ9BGaGCYXhmLieZ2XfVOEjOrkJioWN7vui6RXLfxCd0s7/dJkjCLMe+dXDez98w41h29u4a8jSiqyDzWNW+xy/MGz9PROqyJlrRfIKsOVgizJO0XqL9aOPtkt/b6peQy+1JPExN1WhmdsP1I+r720NRdbkFCmKg6KFwBARAAARAAgWlBYPqZaObxHmFlc8rhDrG8nxWu43B5M4z5njEpqY0dNE7pHBon6bioY81lYnULndRWf2YatZJlY0E5ReK2PuqyGquot8y84pssy+28nFjTknDg6GZ5f9SeWhLaJDFIsfy8sOoo2bGeWNOS23mZTtwzlyiwGmQuPFWPico6L1FBpBVdwhPE8hfiyFokQIqx7p1cXFuwl+jyvMUumce6qPezGjQRuGce7wnfUkaGLT09kFh9nNxXwoFjko6LrNgzHRhN0NWcoam7sqq67JdHrIrPg4lSPkiAAAiAAAiAwPQiMP1MlMiKKoR24hw1HhZ0PX2jdTsqiR06h8Ztlvd7xqayytC3E2OijP1Gb2aiVByp1ZERJla30L3qZMe6f3qBpYc/Hf+bxUQn1kStlgXlnDwXmLXVO0ksbuujnxA0mih5ghFFFTknzwXlFNGb8k8veOVSUWqi9ssjEoqaZpssphvkaRYlQ7N07J2nhdWrjyWLlkECBEAABEAABEDgDQhMVxPlcHlMY/OMTZWeHmDqpn9avrRjYElQlPrsvNv6TXQxKAk6jicmSmbn6T4nDpc3ThNlSbZqsrulx2yJl7anq91E+xd5BJBakx0T5XB50btr0prOpDTIN5QdogFdlomSJaRkut8vJXezvN/WL1zbfWm8ru6LVDfnWS5NLWlbFjb6kePPM+bF5dVGSfaTk0e1neJEe1FveSxZtAwSIAACIAACIAACb0BgGpso09iMLR1SGzsyW3ocg+P09I3I5hi6syeiqELc1ucYrNoe7hgcJ27rYx72qS0mytyxRLYfWTj7kLWbidUtpEE9faMViTnSjgFmg2TzeFrTGVM7D66ByVwrJ+aDsXIJTCs9tTppG/MiyxSZkm3rG7ZZ3p9Y0zLX2llP32h5fGbyoXbrFcG0Otkw5B4l4nB5c62cyLEA9qvWbZb3B0t3cQ1MCA0acyWrSCc2Jsrh8lSWeXpAevrF1iWyTlR2ZiB6d81sM5u51s6JNS10WxJZXZre1LnIM1BVfXVUauOL1b3k7lwDN6aXtVO55HB56r5ITfSDDw0jMvemlJywcPDR0zf2Ck/LrDjj5BdDmoqSVMXl1c7hO9GXoZkdkVRSQL1lDpc3a97iOXwn51Vx6fvanVfFzeE7zZq3mJL/aJZ5oLAQJ4xSIEiAAAiAAAiAwOsSmMYmStYa0t08zCOB8rqubqo/SU87mm1mE1NSn6tQnRYkU1yJ2FbOPDRem4kyT3EihyVRe0usbsk5eY4cdZTXdTWmpJ7Z4DMDE0o6LpJaSbWtH8+1pA/GYWVkdmV3jKz6zzPm0YssE3022f0pXXuwdG189olzpDXp6YGAzEIadORwefMWu6Qc7iC5Ynm/rW8Yh8vT0zcKzS8hZydJOi6u21GZ1XqWnlfqmyyj90LHoL7BaOzrREmPiTUtzOOcSIOS9guqI6ieHdUkbutjnuK0yCOAnE6l8bmQg+VzDvQEi7bTQar7IjVR1VcuGfHDM0tzDnSLq89mVpzxXJtCXTNKUiWuPst8kdWlOlomc/rMKuLqs8zj8T82thQWHWFeoa0hAQIgAAIgAAIgMBYC08lEx3I/XAMTc8flLC8kFWcY880dlzNPEh1LgxrL0F07821cDUysNZbR0zcyW+Kl8QinmXM+0dM31lhLx0VjSwd6SJN6MY25E3jL6j2yriz2DhG39bH249PZ+RnGfFM7D6ZA0+oGJtYLnb01PpcPPjScOecTapO0iu4Ed+b82aa2r1tLd5sac4mJhmeWaszFRRAAARAAARAAgVcSeNdM9JU3PCEFqIlOSGvvQCOzzWyEVUfpcgh6R9RE6ZV3KWHp5J9a0sb8ftF36e5wLyAAAiAAAiDwFgjARFVfVvS6L5gok5hPkiSv+xpr5p0UeLdNVJ+34BMn/7cQfGXSRhoEQAAEQAAE3iUCMNHX1tB36fFPyL0YWzrQvVwT0iAaAQEQAAEQAAEQeE8IwERhoiAAAiAAAiAAAiAAAlNDACY6Ndzfkw86uE0QAAEQAAEQAAEQ0EEAJgoTBQEQAAEQAAEQAAEQmBoCMNGp4a7jwwGyQAAEQAAEQAAEQOA9IQAThYmCAAiAAAiAAAiAAAhMDQGY6NRwf08+6OA2QQAEQAAEQAAEQEAHAZgoTBQEQAAEQAAEQAAEQGBqCMBEp4a7jg8HyAIBEAABEAABEACB94TAe2Gi821c+a5+5MX6mnhjSweapfE74t+T34NJuk2ugclCZ29CWNuXy09S13+EZvX0jQOFhctCk5mD+QtvvrGZxQcfGs7jW/6FN59m/YU333TRoj/pG9Er40xMeIPjHM/0rT5rnvmseeZ/0jeaz7f8yGAu80aCEgpXrMvE92wxmSANAiAAAq9FYJqZqJ6+0bK4tJTGdrH8fFJtq8PqqLHcbWJ1S37PIHn5JsuYVSKKKmhWRFEFM2uS0saWDkm1rSGyPZPU/oQ0u1IkST7Uznf1G2drfFc/sfw8ISyWnx9/g288nmDprmDpLh3VF3kEpDS2rxBm6yjzulkBG/OF2w4bzLViVgyM9pfuE82aZ150MCsw2p9mBUb77zshM7d+qTDNfYPEhDc4ljEERPptqUmfwLsYS6fqZf6kb7QsaJnPWm9mlqHJguTC2JLjkuJmcUxm2MdGJjSXZpUcl8RmRTCzOFxegjQyQRppbm1V3Cx29XWjtThcnqm1u2h3i9vqROZFpEEABEAABMZOYJqZqH96gfT0QHRJnU+SRFh1VHp6wDM2dYx3S6yIZaKkrrGlQ1pz50SZqKGFfVJta2hescaBGVs6CKuOBuUUacz9g1xcIcwWHWwzs/ecqPH4Jste10QXOntnNCtWCLMmZAyJ1S2J1S06muK7+iU3nPKMSdFRhpWl+0F/4uQv2tNq6fTCNUl1aqLb6jNWhr1QpfGIY3TG2tyKZIM5pswRjqdBZjuvlV4Z7lNQlTrXgs+qtTLMe8ehLNNFi1jXJ/ytpZ1t+o74qo6C2q6tCdJI2r7pokW7j4i31KQHxa1anxpadiI3uziB+7Exh8szNF1YVJ+560hOcHwgK4tUpya660iOvYcTbZMkPII3bdp13HihA+s63oIACIAACIyFwHQy0XmLXTKPdVFf1DdcIKw6mnyonTXhru2235qJTqzXarud6XX9DUxUx/N6g3t/pYm+QZs6HvQHHxpGZO+LkuxXn7cNjPbP3C2cNc+84EAqM8A2HnFMkEYWHcyaNc+ceRfjaZDZzoSk39pgJPs2ba3L8Fvnu+NQFtNEw5LWlByXmFmNhpwDY1ZVtOURrfSP9C1ry7VZuoTcaWDMqrK2XGsne3rjCdLIqPQwc2urooNZ6uFeg7lWSTuProzeTMsjAQIgAAIgMHYC08lEPWNTxfLzS4JezMi7rkuMKamfb+PK4fJmm9nElNTnKq7m9wxKOi76iqR6Ly+502E2GpVCT9/IVySVdFzM7xnMVVxdv+PADOPRSI+evlFAZiHNiimpn21mw+HySBd0up8kqDrrXgngui4x+8S5/J7BvK6rSbWtpnYe5Cn6JsvSmzqDZbulpwfyewbF8n7P2DT6gB2D4zKOded1X8vrvpZxrNsxOI5m6Uhoq8UcPyuE6RKekNV6Nih7m7itL79nUNZ5KSj7RVh3SVBUVutZ1XXFlZiSuqzWsy7hCcwBaDRRUzuPpNrWvC7VI8tqPUufrEt4gqzzEgsjDWZre9DkIYbkFosOtqmAdF0VVh0lz4XD5ekwUR2LN/T0jYKlu+iD3ri/ad5il1c+aFWYzcxOtKfVI3gTEwJJ/4U3f9Y88w8+NJyzkM9cdBgY7V92Ijc6Y21le35t19byk7nMyWVXP/eS45Larq01nVtyK5LnLBz9VZTuE9V2bWW+qJIy5c9CsHj3EfHmvUl03nmRg2DHoawaxZYaxZZtdelE0cysrEqOS0QFMXTYhqYLdzVmZ+1JYCq1z1rvilN561NDaTFza6t9J2RkGKw1BgnSSObwaru2MgvMWcjPrUiu6dxS27V1z9HNRA3J0oWig1kHzhQeOFMoLRORxJq4ANqjtgQJc5IWmCZq7+G0InQFyeVwectWe5W15TqtUP2vg7WgdmWYd1lbLjP2OWue+V948/+kbzSPb6lxIW9o6q74woaPZr30SUDbCHEdBEAABECASWA6mahGmyE3o6dvtKHskLitb+na+JnzrUJku2Wdl1hr/l7XRFcIs2Wdl0Jku2fOt3KPEonl/XTC3S8ll2YtXRsvbuuL3l3D4fLIBh1b37CMo4ro4jqyU4duhCK7o0gu1VMyfofV0ZL2C9HFdUb8JYu9Q9KbOlMa5MSifJNluV1XEw4cs3D2sXD2SaxpyTzWRXxoobN3dmtvTImqlpm9Z2JNS3Zr70LnFxO+zCdN0zpq0Q1Gq8Xb1U1UdmYgpbHd1jfMROAeXVwnlp9f7B3C4fJIg6KDbXw3fzJCWeelV5robDOblAZ5elPnYu8QI/6SDeWNdPAzjPkWzj7OoXFief9q8XaCkUS+dTxoYqJieb9PksTQwn6lSCLtGAjM2kpuXIeJkg1tpDvqu6TWCmG2pOPiSpHko9lm5EFvKDukp2+k+0FzuDwbj+C00lNWLoEU+ysTgdH+NYot0n0iMysrMysrWXlycbOYTHMvWeZcfio3ZUvcrLlmVk52Ow5lFVanEac0NrMwt7ZK2RK383D24qX25tZW8/iWxBqpiRINlZaJZs01I8MwXbSo+OhmWXnyXAu+6aJFhdVptEFRQQwzdui3zreyPd8zcBlz/OtTQ2sUW5jC+id9I9NFi8ytrSJEwUzR5HB5s+aZk+vlJ1XmZ25tRTdmfWxkUlidtuNQlpWT3ay5Zpm7hcVHN5suWkQ8Mn1H/JwFFqSAmZVV+o74ovpM1goE5qiYaXUTZeZ+8KFhypa4rXUZ1MtprumiRdsPZor3JjE/JNBcbQm3IGFaqXz+ItWnFLxAAARAAARei8A7YqI2PqGb5f1UO/QNFyTVtorq2/QNF1Acr2WiBibWyYfa48sbaWB1bcHetOZOY0sH9aygnO1Jta2GFqPTeRojrHQYGnOjS+qoX3K4PPeoTdKO0SWwz/y7f5HHaDTIMzZ1s7zfOVQV+1wSFLVZ3u+dJCaNmzsuXymS0GAq7ZGVGEstdel3CU8Qy/td143uzCDAfZIkHC5vhTBL0n7BYU006ehZyfOvNFFWLQtnn+zWXr+UXDpajc9Lx4MmYNfvqCIt6BsuENW3CauOkrc6TJQU0NhdSG5x9olzFs4+pIxjcKxXfAb9pdL4KEnJZ2pyag6fvaaQ5Gr8LxVHkrtstVf5qVwyfZ+yLW5XY7ah6UKS5Rm4rOJU3rLVXrQdHbPzrn7uu4+I86tSaHUOlxeVHsbUzSVezqUtUtLX4qX2ZSdyQxNXc7i8Dz40lOzblFuRTEOJpEdVQHeBhcboIOsu6Ag1Xl8Z5l1+Kvd/vZNiZlZWxUc3B8asYnqkdJ9Iuk9Etg3RcC9tVluC2YJ6mTUbAvfL873WLGdmBUb7k9jtltr0eXxLZtYr0zbua9JK5Tbua15ZEgVAAARAAARYBN4RE10hzJJ2DDDtJ6KoIvN4j4nAnd6wRtUguepKQQqnNXcKK5vJK7Wxg4QJLZx9xG19IbmaNyRxuDz11ugYNOYStWXupyG9k11NLClkep6+4YL1O6pkiitpTWdCcoutlgUxO9KWHkstVqccLo/ZL52eJhHE8C1lTNSskmQY6g1GFFVITw8kVh8neBMOHJN0XGSGijU+Lx0PWh070z6ZaY1kNHa3wGlFamMHGadvssyIP7qUkLSg3iNtefwm6urrVnZCZaJ/4c3fUpNObIy0T6bCw5JeeI82E61szy89Lqk4lWfn7kjHxuHypPtEZSdyxXuTyEtWnnzgdAHZyP/Bh4ZZexJIvNDKya60Req3zpdZV3dao3FyuDyN1xOkkfvl+ZKyTWQYkn2bKtryEqSRTI+ccBN18/coa8uNzYpgrjcgc/Tm1lb2Hk6F1Wnb6jNYi2513zVMVDcf5IIACICADgLTyUR9kiSb5f02Pi9WpxmYWJNTKlUBto6LJFJI7palRyx5YhFRVwriJTEl9f7pBfTlkySZbWZDTFTH5nf11pjdqecSE6XROw6Xx+yC5XDqnme1LCgktzituTO36+rG/U10MSuzU/W07lqsTnWbaERRRUazYq7VaPxPfYQcLk+9wYiiipyT54Jyiihe//QCulRU2/PS8aDVwTLtk5lWp6GtO7LiwiU8IbqkTtzWJ1Nc8U/Lp9XVe6RZE26im/cm0cb/t6aztEU6FhOt7dq6rS5915GcovpMZkxUuk+041BWcHwg87XQZjHpQiXBbbmegctisyKYsVg6AB0Jjcapw0RLjkvCN61hDsPew2nyTHTxUvuS4xKhZD1LQ5l35OrrVn4qlxlyZuZqTMNENWLBRRAAARAYC4HpZKKLvUPE8vPMCVxV4PPZoknWjLOevlF8eSNrW73GoBdhpK4U5EpMST2dnac01WfnlwRFjXHSVmNMlMPlbShvTGlsp9trHNaolo2SA4xYDsf0PEsPfyLHZGxeGzIk7ReYgWE6ZmZiLLVYneo2UdYnBOYIab/qDfql5G6W99v6hdMyrITG56XjQas/RKZ9MtOsjshbjd25rd/ktn5015GevlFMST1ZoUGqqPdIW3byi0krPWVu+9LySpqrMcFyOBoT5XB5mbuFzEWNS7xUy0aZJ0Bpi4mWnci1ECxWTbi3qSKgdO1jgjRy9xGxtjlo7sfGuRXJuRXJuxqzozPWahyttousu6DFNF4nu9TppnVaeJJM9JMltmQ/FuVAelyfGlpYnUZN3d7DqaztJbx0YNoS9ssj0kpP8R1WaiuA6yAAAiAAAtoITCcT1dM3ii6uyzl5ztY3jMPlua3fRHcR6Rsu2Li/Kav1rPWKYD19I7/UPOnpAeqszC0pZAcM/b4f5i4issfIwtmHhBWDcopkiivB0l1cA5PZZjYRRRUbyhs/nqtaQOaflq8yxcQcPX2jRZ6B6U2dZCMLoUxWqaY1nTG18+AamNBgoY6+loZtlLRfCN9SxjUwMbXzSGmQpzZ2kK1OLIdjep5LeIK0YyBEtodrYMI1MAnKKRLLz9uvWkcf9sfGlhsK6oVbD8+aNxruIk6prdbLO5ZUq1H5rn7kaAJmv6wIItmxlFjTMtfa2Yi/JOHAUbpjSUeDZvaeGce605s6F3mqtvU4rI5KbexwCRfSwZNDu8j+9xnGfLIMV8eDVvdCpn0mVrdsqj9JNj+R/5ot8SIfM3T8ekQUVYjl50ms3Yi/JLG6JbmhjZ4apu1Bc7g8c9tlKSUn7ZdH0Nt5ZYLlakwTXbrStfxUbrx43Z/0jeYs5KtPH4cmrq44lecZpDr/dbaJ6tuAWGHINRsCD5wpDN80OqFP3FRWnmxosuCDDw191npvqUlf5CCgg/Rb51vdWchcS0qzOFye+t555o4lujPJ2MyC1vIMXLZfnh8iDPrgQ0ODOabEBeda8HcdydlxKItvpzp6Yomn87b6DFd/98kwUXJoaEFVmqW9rbm1FXmREbr6ulWcyotKW/snfaOPjUySt8aRjVN08K9MrIzevGnnsdkmL/7KOFzeR7PMA4WFPpET+V0JrxwJCoAACIDAtCMwnUyUHNUUW9pAzv2RKa5EbCunk9FG/CXCqqOjWZ2XgnK203Am85ge1vf9ME9WIlnUovT0jULziulxQhnHuu38R8WCa2CytmAvycrrurqhvJG1gtAlXEiO/snvGUyqbSX+qqMvDpe3PD5TLO9XneLUfS2lsZ3vMhpf0WGizHOmNJ5dxTMTiHa3pJXKzWxenFGvoxaJC7KOTyILWHWYKIfLI/vKyRFUyYfaaWhWR4McLm+RR0B6U2de9zVy/BPzaZI/JP+0fJniCmESXVxHLmp70K80UdZ90eimjl8P5olRed3X0ps6rVcEM//INT5oYiHxhQ3Bou3MwrrTOkyUyF/5yVzVKU6MQ5dog4amC/8XNCUbbspO5C5eqto8x2zwgw8NhZL11FZVj8zHlRwLVdu1tbJ91BFpg/+/vTtxa+Ja/Ab+/hnB20Eui00IskuoCigii4i4sInIIqDsGMCwg5FVVERBREUEEVHBBVwAAcXWautWW6utrbf3tmpxu3VjsWjhvfTwO51mM0AgRL4+edrJnDlnznwmPn5zZubkY1OLokMZ7KfjaRGH4Uo/O8+exYnO2cS+t3WqwfTMHXH72wdna6o8u9F95dBosdUcGzKZ1OD61gJhdthUg+ljkUTpA0m0e9XnNpMeamnzfMO995wZ5K0+t7n0RJazx+DsTkq+tLR54Vl7g5Ilf8FLj28tLKwLzxp6hE7J1rAZBCAAgckmoGFJlJweXb7AYv4SxuCvH+ujp43eOUrXjHJhio6h+bzFdCYmdmuMganF/CU0CrOLOAxXQUWJLenbEVQhdU1sF5CRS9oUXZg6zULeNIcKatHqyi9M0TE0m+umyxewn+5XprriU0ZGVekwJG1QcS26mUoW5PWBNC7vrLkFrBMVNxhZ/e1RodH0h/xUvYInaaYZW9ApnJTckbwqi1a47zqZQ59ql2hNwbPzEltKvJWYuZOWyltPN2AvvDf1sjce1jLf3EoBr7ymLOcsFpU0Sj84T5JoSHqZvIpYDwEIQAACHIarkUkUZ25CCfCtHRKqGz0SshgDU3P7RetqTtHhxgnVz3HujA7XMmZjzQrhRgUPx4xzl5TcndEMwdaD6enbhROz5/ROAHqR3WL2LPadAEoepko2Y/RNwsTloek7pa2sHX2SS09LJ1SV7BeNQAACEPhgBJBElb0G98GccpUfCLncT28tkL6ErfI9akqDZrMXrtt23MU3VlM6zGG4seLV1ec2bzucaTXnb3c9atAhjGdXfaJzYzfVGkwf+hFR9q51uJafOPpIJ1T2NliGAAQgAAEkUSRRlQmQaf/xl4otoGcoMJg+k71mgi/zza3obyBN8K5OhO4ZWzvrcP/6+YyJ0CX0AQIQgIBmCSCJqiyHadaJR28hAAEIQAACEICA2gWQRJFEIQABCEAAAhCAAATUI4Akqh53tX8FQQcgAAEIQAACEICA2gWQRJFEIQABCEAAAhCAAATUI4Akqh53tX8FQQcgAAEIQAACEICA2gWQRJFEIQABCEAAAhCAAATUI4Akqh53tX8FQQcgAAEIQAACEICA2gWQRJFEIQABCEAAAhCAAATUI4Akqh53tX8FQQcgAAEIQAACEICA2gU0LIn+U88kIUCUF51LX2u8IgmiFsNzm+e5J21nbfb+vOhcc1NbleBqMTwba6eV7sESrdlYO5WIttVm7y8RbbOxdmKXKiiaNs0yfXVmTXZV5fpy/8Uh/5hqyK444mWeoSB4WRiXO4PdgpPtYqqUF52bFZE1w2IuewMsQwACEIAABCAAAfUKaFgSNTGefTCnqjSpmGYsmkT9Fq06kl8T4xe3xNGnIHZjtbjC0nzOaHB5hoI4/3V1eTWnCo9uEhawm3KyW3w490B6aLr7fK/00PTDuQec7BaTDRQUTfvYcmfyjpLE7V4LVoZ4hh/MqYrzX6fF8NgtD2uZ0THycQ2oyNhzckt9bfZ+E+PZ7OrxAaLDuQc2xuQTKyRRNg6WIQABCEAAAhCYCAIalkRnC5wPZFU62C6SsNObZr4rpTQ5JJWs/6eeSWlyCX0rsbGSb+P811Vk7PFxDSiM28JOoloMb+PajVviNn+kY8RhuFoMLysyi7xVUMRhuMsXBtRm77cyHxqY9HBZUZNdRd8q2Sv2Zg62iw5s2Bfnv261V4R0Es2KyGJ3m10RyxCAAAQgAAEIQGAiCGhYEnWwXVQtrrCysJewMzOxPZSz38c1gKz/p55JsaioKKGQhEWJjZV8S+tuEhawI53BxxZ70nbGB4hIO/+YapgZtr4iYzeXa6WgiMNwRUFJu1JK9aaZk4pLnZbX5x9caO+pZH+kN/vHVEMypOrjOphxJcZENwkL0kLTpWthDQQgAAEIQAACEJggAhqWRD0X+B0vOFQtrji5pb4+/2CU71pyq6WD7aJjGw+RJDrDYm55WlnD5jp27BsNt0QSNTGeXZu9nyRRLs+qKGHLic11JAgqKOIw3E3CAtKlf0w1jFkhPF5w6OSWepqeR9ND6SSqq2+2M3lHTXZVff7Bk1vqd6WU4ibR0QijLgQgAAEIQAACYyGgYUnUbZ7ngQ371nhFCizmJQenNGw+ErwsjMNwSRJdvjBgqdPyQzn7Y/zi1gUljnUSnTvTtVpcIQ4XBywJlUii0kU0iZoa22wSFlRk7HGZu7Q2+69x3NGcXekkOlXPeJOwYFvCVvtZrm7zPCvXl1dk7OEZCkazF9SFAAQgAAEIQAACqhXQsCTKPviPdIy2xG0uSdw+Vc+YJNG96bsP5x5Y7OjDYbjxAaIxTaKV68uP5NcEe4RrMTwaBMmYqMwikkQP5x6ozd6/ce1GPQMzsvEYjYmyoTgM13nukqP5tUscl0usx1sIQAACEIAABCCgRgENTqLsuDlb4Hwkv2Zn8g7j6TOJpigoaWfyDl19s9HjSlyd5xta7xdXVIsrZgucSeN+bqtqsquMjWYpKOIw3KyIrBObDpPwymG4Zia2tdn7PRf4jb6HNArLa0qFqVfeLrAeAhCAAAQgAAEIDFdAk5Kotu70jTH59FEhDsNNC00ncZNEwFVL15Dj/0jHqCihMCsia7gcMreXSKJT9YxLErezHwZKC00nQ7MKijgMN9wnmjyhlbw8AAAgAElEQVTYRPay0N6zNns/jbMyd63kSukk6mq/bE/aTjqPlZWF/eHcAypJvUp2CZtBAAIQgAAEIACB9wpoUhLlMNyI5TEHc6rsZ7lyGK79LFf65BCH4SaHpB7YsM96hoMWw/N0WXEkv2ap018Xo6cZ2wQlF7v4xrxXRHoDiSTKYbiBS0Pr8mtc5i4l3TiYUxWxfKhlBUVW5nNrs/evCxT9Y6rhtGmWRQlbikVF/9QzoXt08Y0JSi6eZmxD1yi5IJ1EpxvN3L++IjU0/Z96Jv/UM0kNTT+QVWlhaqdkg9gMAhCAAAQgAAEIjIOAhiVRRscoMSjpxOa6U4VHT26pz4rI0jMYuv6uZ2CWH5N3ckv9qcKjxwsORSyPZU8abyRwTCk74xf3twnqlfSVTqLsbpzYXJcems78Obcoh+EqKOIw3MWOPodzqknnd6ftNDP52w9B+cUVpJSdMRI4Ktkxupl0EuUw3NkC5yrx3lOFR08VHj2QVbnIwYtujwUIQAACEIAABCAwEQQ0LIkSsn9MNeQbWtPwx3ZkdIz4htbSv6JJkqhnxAb2xqNcVtANBUUchsvlzqCzirL74BdXICpp5P3f1PfsohEv600zl/gV0BE3hYoQgAAEIAABCEBAtQIamURHQOC8PEZU0mj652X9EVQfhyo6XMu1mw6NbNR2HLqHXUAAAhCAAAQgAAGVC0yWJGowfeYM+2Uq51Nhg1raPME8Tz1M+clwVaiKpiAAAQhAAAIQmMgCkyWJTuRzgL5BAAIQgAAEIACBySmAJIoROAhAAAIQgAAEIAAB9QggiarHfXJ+78FRQwACEIAABCAAAbYAkiiSKAQgAAEIQAACEICAegSQRNXjzv42gGUIQAACEIAABCAwOQWQRJFEIQABCEAAAhCAAATUI4Akqh73yfm9B0cNAQhAAAIQgAAE2AJIokiiEIAABCAAAQhAAALqEUASVY87+9sAliEAAQhAAAIQgMDkFFBBEjWbvTA8a5+R1fzJKYijhgAEIAABCEAAAhAYmYAKkqiWNm+FcOPazYf0+NYj6wRqQQACEIAABCAAAQhMQgEVJFEOw9XjWwsL67wixZNQEIcMAQhAAAIQgAAEIDAyAdUkUQ7DdQ9OFpU08sznjqwfqAUBCEAAAhCAAAQgMNkEVJZELezcU8rOOHpHSgu6+gnTdp919RNKF2ENBCAAAQhAAAIQgMCkFVBZEiUX6P3iN0tTeoRlrq887xGWKV2ENRCAAAQgAAEIQAACk1ZAZUmUw3DDs/aFZ+2TptTS5ukbfaKlzZMuwhoIQAACEIAABCAAgUkrMB5JdNLi4sAhAAEIQAACEIAABBQIIIliZnsIQAACEIAABCAAAfUIqCyJfqRrHJ1XHZJepiD2oggCEIAABCAAAQhAAAJUQGVJlGc+V1TSuCQkhTZNF2Yv8AtN32lm40bXYAECEIAABCAAAQhAAAIqS6K2C/0Td5y0sHOXNnX1E6aXt9ou9JcuwhoIQAACEIAABCAAgUkroJokqqXNC0rcFibe+5GusTQlmU9U4OApXYQ1EIAABCAAAQhAAAKTVkA1SdTOLTBxx8lPHH2kHbW0eaGZu+SFVOntsQYCEIAABCAAAQhAYJIIqCCJTrd2Sth23C1gnTwyMxs3/AqoPByshwAEIAABCEAAApNWQAVJVIdrOd3aadIK4sAhAAEIQAACEIAABEYmoIIkOrIdoxYEIAABCEAAAhCAwCQXQBJVzzyuk/xjh8OHAAQgAAEIQAACHIaLJIokCgEIQAACEIAABCCgHgEkUfW442sQBCAAAQhAAAIQgACSKJIoBCAAAQhAAAIQgIB6BJBE1eOO70AQgAAEIAABCEAAAkiiSKIQgAAEIAABCEAAAuoRQBJVjzu+A0EAAhCAAAQgAAEIIIkiiUIAAhCAAAQgAAEIqEcASVQ97vgOBAEIQAACEIAABCCAJIokCgEIQAACEIAABCCgHgEkUfW44zsQBCAAAQhAAAIQgACSKJIoBCAAAQhAAAIQgIB6BJBE1eOO70AQgAAEIAABCEAAAkiiSKIQgAAEIAABCEAAAuoRQBJVjzu+A0EAAhCAAAQgAAEIIIkiiUIAAhCAAAQgAAEIqEcASVQ97vgOBAEIQAACEIAABCCAJIokCgEIQAACEIAABCCgHgEkUfW44zsQBCAAAQhAAAIQgACSKJIoBCAAAQhAAAIQgIB6BJBE1eOO70AQgAAEIAABCEAAAkiiSKIQgAAEIAABCEAAAuoRQBJVjzu+A0EAAhCAAAQgAAEIIIkiiUIAAhCAAAQgAAEIqEcASVQ97vgOBAEIQAACEIAABCCAJIokCgEIQAACEIAABCCgHgEkUfW44zsQBCAAAQhAAAIQgACSKJIoBCAAAQhAAAIQgIB6BJBE1eOO70AQgAAEIAABCEAAAkiiSKIQgAAEIAABCEAAAuoRQBJVjzu+A0EAAhCAAAQgAAEIqCyJmlnN2Vay6/qNr7+8cq2ktFyfZwFclQjo8gVWTh6CBd6CBd7m8xZP0TFUSbPvbcRyzuIw8V6D6bOkt1RQJL2xytf4BayJihWRl/NCT5W3jwbNZi8Mz9pnZDV/4lBYz/cOSi7mz3CYOF1CTyAAAQhAQCUCqkmi+jyLr25+0/f27b9++s933//wxZfXVNK5idyIw8rwhOpGcdOlpCPN7tEpYxcQXULictqu5nfczO+4mXK0jW89Hv8Ym8x0EW0/4RYgkj4FCoqkNx6LNXd/uDfwf39qauvHYhea2GZb+4Xv7/7o4R04+s5rafNWCDeu3XxIj289+tZG34KN68qk0pMLVqxl9E1G3xpagAAEIACBCSWgmiSakp7V3d3TcPLMsI4tLDLu0eMnFZU1w6o1ETZesCYhq+VL4b5jHglZEaUHctqu+mUWjnXHQgvLh5tEg/J2JFQ38qzsh9U3LW1eaPrO0MxdWto8iYoKiiS2HOu3UbGi16+7pJOo5n6o3ivW0nru3r2f3JetkLllU0vbrW/vuLp7yywd7ko9vrWwsM4rUjzcimOxfUh6WUR2pfSncSz2hTYhAAEIQGCcBVSTRAuLSl+/7iosKh1W7+WFiWE1Mv4b6/AsE6obhfuO6fAsyd5DC8szGz+1mL9kTDszgiQ6giochmvt6JNcetp2ob/04Sgokt54TNfI+/DIWz+mnRmfxj+9eLmz85FKRj2V6bB7cLKopJFnPleZjcdum6nTLGILasOz9o3dLtAyBCAAAQioUWC0SbSmtv7/rpQO/b+vr49EUol4yn5bWFTa19cnUZGMb3l4B3Z2Pvr04mWCIvPtpctXLnx26e3bdwMDA3e+u0u2NLOa09reQZrt6+trPNWkzL2qjIHpqo07yeXvnLarqzbuZAxMSYPxVQ0ROw7E7DmSd+5G3vmvkg63WDou5TBcW48gcdOlpcIMetrsPFdFltbMXhrAYbjyGvRKzNnQdDmj8UJ+x820Y+1px9rzO24mHW4xtnHhMFyvxJz04+fW7q0n+0qtb5vp5kvbJwsyY+XspQGp9W15578a7OGRZoHL0H2T8VUN5II+/S97PFVeLbIjz4gNcVvr9I0+kegAh+HKKyIn98DBun//5+f+P/9U1xwm1QODI+/d+6m/v39gYOC3355n5W6izdrau17+4io9ZZe/uGpr78phuDJPOv1IkOrSiVPBh4rucbgL+jyLAwfrenp6BwYG3r179/mlL0kPff1X//pr58+/3CdjkLb2rrfvfP/8+YvI2MH7GfR5FkePNdJa167fpEOV8hrkMNya2vonT599e/s7Atj56LEwIZV0mH1DAvlbQyMp+6jpSnqYRdt3vnjxcmBgoL+//969nwKDI0lRTW1956PHTc1tb968GRgY6OrqLtstGfUs7NxTys44eg9VoW0Od8HGdaVwy+H5XuFTdPjDrcthuGR0Fkl0BHSoAgEIQEAjBEabRJ0XekbFiir3H+zq6q7cfzAqVhQRnUD+tWZHTw7DZb+1tXeNiE4o2LK9q6u78VQT++kTxSmElL59++7f//m5orKmqLiMJpuW1nO9vb3VNYdt7V2P1J948+aNMtf9g/J2ZLdc8UjI0uULPBKysluuBOXtIGcuvqohp/VKYE4xz8reJUQoPv15RPF+DsN1CYkTN11yCYmTeYLlNeiVmJPV8qVTUPSyBPGfV/O3OAVFb2i67JGQRZJo3vmvInYcMJ2z0HlVrPj050m1TR+b27J3IZ1EZzgty2z8NH5/g7n9ohlOy5Jqm2gtE9sFggXeETsOpB1rt/MKZj/tpKAWh+FqafMisivDxHvZuybLCooKi0p///33N2/eXLl2o2DL9j0V+0nocXX3/vmX+52PHielipd6+X9z6/bz5y/CIofoWlrPvXr9esvWHYJZ86trDvf29ra0nhtxElXwoZI+FiXXVFTW9PX1NTW3zXdZWlJa3tXVTXrIYbii5PUvXry88NklfZ7FkfoT3d09RcVlpNmDh+pprU2FxS9fvaJ3TitosKa2vr+//8rV6/5B4aQWTbrkIa0rV68/fvI0LSMnKlYUvCaGfNEiRx0VK7py9bpEEs3J29LT03vl6vWlXv5JqeLOR49pgzW19X/88cf3d3+MiE6IiE748d6/njx95uu/ms1CIqBf/Gb2yhEsG1rah2bsytjblrq72ScmV89QMKxGVNWNYe0UG0MAAhCAwLgJjDaJko6yUybtusRKibcchis9rPXeFEKS6P0HD+kgE9ldaNja589ftLZ3kLf6PItb3975/u6PiodFTecsTD/RQfIlqRhRvD/9RIfpnIUchhtf1RC/v4E+ihRReiC57uyfqVRuElXQoFdijrjpkmCBNw2yggXe4qZLXok5JImSUtKNZQniDU2X5/mFk7fkv9JJNDB3R+bJz6ycPMgGDv4R4tOfsyOydBUOw1Vca+gf/rgC9q7JsoIiMjJH/Wndisqanp7e3Pyhm2gjohOeP39x8NDQY0bf3LpNT6U+z6KktHxbya73fgZI4zI/PPI+VLQ/w1pwXuj5y/0Ht769Qz9Fre0d7LRHAuiJxjPshCpdq/FUE7m/U7qI3WBNbf3r111Rf46qchhuVXVtd3cP/aLFYbiKr85Ll165doOdL4tL9/T29u7cVUHGX7u6uumY685dFd3dPQVbtkv4hGftU3IwUkubxzOfayRwpK9pxjbs1hh9EyefqLWbDmVWtIdv2Kvkg/mMvsni4NSUXc02rivZrWEZAhCAAAQ+GAGNTKJ3f7gncQIKi0rfvHnz8y/3b9/5nryePfsvOzRIbE/ezvMLz265QrIgWUOuodt6BA0l0aoGWpGmOholaRFdUNDgsJKorUcQHS6ljdMO0DXxVQ3ipkvCfceEFUeFFUfj9zfktl1jH450FXJcCmopiJsKikgSlX5+6NOLl9+8eXP3h3vkpHx/98fe3l56nT1DnPfixcuuru6vv/m2vKKaDKVPnCRKwm5n5yP6oXr4sJMdFvV5Fhc+u9Tf33/7zve08xHRCS9fvWo+205PE11Q3KBEEiVPAdKbHIabREnqZf9NIXs/0Tj4WKHEvqS/JZI+K59EdXlWkTlVKWVN9BWSOnRtgR6+ljbPer53ZE5VZsV55+UxdL28BfJ5y9h3bmFAvLxtsB4CEIAABDRd4MNJoj09gxGn7mgDfe3eWzXTzlnBGZrnF57V8iW5Pk4280jI2tB0WXESJVfVF0Ul05Z1+YIZTst0+QIFDY4gibIzJYfhSsfK+KqG1Po2n9SN7Je1mw/tmHQVkkQV1FIQNxUUKUiiL168bDh5hp6UuqMN7HE+W3vX8orqr7/5tqent7e3d+u2wYfeFN+hQY5uHMZEyS6uXb/J7nx1zWE6Hq8giZLAR08Eu8/yGpRIhySJssO99Kgnu32JUpJE6V3UHIZLIvIYJVF2T6SXueZzVgg3pu5qztjbtiqlmGs+R3obmWum6PAXh6RgTFQmDlZCAAIQ+DAExjaJdnV1F23fSaSkx11khgmSQi5+/gWpJTOUsEd6yGaxccmvXr8+dbplWGfFYv6SzMZPV20c6iGH4a7auJM+BT94dV7WmKixjUv68XOhheV0X95JueKmSzbLAhU0OKwkuixBTG4qpbuQmURDC8vTGzrM5y1mb8ZelplEFdcijyoHJUteqOUwXAVF8pLowUP13d096etz2b0iyzPtnHfvraKp1Nbe9d//+ZmcWcWfAVJd5odHtVfnSTeuXb9Jr85LHAW5On/0+MmXL191XLhISqUvwWflbiJfihQ3KJFEq6pre3t72VfMJbKmRGekS9k3P3AYbm5+YU9PL7l5WmJf0n83OQz3I13j6LzqkPShm18ldqf821kuK9LLW5NKT7kHJ41gQtCh7z+jvl1V+Q5jSwhAAAIQGE+BMUyiQaFRv/32/Nr1m7b2rkGhUT/e+xd9rJ4coa//6idPn9357q6ru7etvSudKPGrm988ffYsKlZka+/a1Nz27t07ej2X/FsunUT1eRZXrl5/8+ZN5f6D+jwLH7+Qb27dvvDZJTblghVrU3c3uwf/NZY5GO827xE3XXZds47DcF3XrBM3XQ7dvIfUkpdEOQzXb31hdsuVheGDD0rPXhqQ0XghZvchckepvAbfm0Rz228EZG9nDExnLlqRWt9Gnz2iv7HEfvyIzG9v5xW8oely/P6G6bOdpugYLolNTzzUTB7hJ4ewImMz7ef0WY5kWoD31gpK3h6dV/2RrjFbjyzLK5KXRINCo54+e9b56HHcusHHwLNzNz982EkGPmfaOd/57u6Tp89IEZkH9Kub35AdKfgMkMd32I+7hUXGmVkNDbPJ+1BxGO40Y5ug5GIX3/dfF6YH3nDyzNu37840tZpZzXF1977w2aVvbt22d3RX/MTS4brjPT295KMYty6189Hjm1/fInFWQYM1tfXv3g3ti9SiDxiR/hw7caq3t7ekdPArkLfvKnLI7CeW6PNMZKanzYUlPT29HRcumlnNCQyO/PmX+w8fdpIiZZIoz3yuqKRxSUgK1RjZgpHAcYb9shHPBkqSqJK3q46sh6gFAQhAAAJqFBjDJPq/GViqaw6TaWLevn138fMvfvvtucSco4frjpPJmMhTwwRCmJD6+MlTMvXM93d//Pd/fn5vEh2cXMne9eq1r969G5zaqb+//9//+ZlMqUNxPcIy11d2BIi20jUchqvLF6wpqsxtv5HfcTO3/caaokpd/tCzvQqSKGNgGlxQltN+Pb/jZt65GzF7jhgK5pFm5TX43iSa03Y17Vh73vmvyDRPdBYn9m8s0SmZ6Iis86rYzJOfkfXZZ6/4phfQR6w4DNfYxiXpcAspFTddtvMKJp1UXMvROzK59LS57SI2FFmWVyQviXIYrjBhMIqRWZzevn134bNL9JZK9gRPEtMMKfgMSE9pxL53k8NwZX6oOAzXSOCYUnbGT9bDWNJHStbo8yxaWs/RGceePnuWuSGfw3AlZnHS51nc/PrWy5evRMnrOQyXPaFYf3//N7duL/UampxVXoPk3s2+vr7HT54Sq8dPntInikhnfP1X33/wkMzi1NXVnZYx+KwbkZeYEI3+fSmvqO7q6iZ/Ix48+JX+jVAmidou9E/ccdLCbjB2q/GF+UTViI9dQwACEBgHAdUkUQUdNbOaExq2loYP6S3NrOaERcZJ/4C4X8CaEUziLa81Mj+RvtEnMsdm6I2e0t1TsIYxMLWYv4QmV/aWw22Q5lQD09kmtgvYTSmzzLd2UPCT9PJK5a0no1A+UYNBR+KloEhiS4m3zgs92SOX7FJbe9ewyDiZn5CRfQZIFpT+UJEk6hmxgb13ZZb1eRbBa2KG+2lU8MmX2SBNh84LPf0C1sjrmId3IJ3CSd427PUy98XeQOayljYvKHFbmHivzKFxmVXGbqW8kfix2yNahgAEIACBcRMY8yQ6bkei0TuiSXSCHIWjd6SouMFs9uBsVhIvBUUSW060t87LY0QljaazBifPn4AvmkQnQt/s3AITd5z8xPGvp9/U2KtPHH1SypoWB6eO4DZTNXYbu4YABCAAAWUEkEQnRCiZaElUS5vnuzY/puCgLs9K4mOkoEhiy4n21mD6zBn2yyZar2h/Jk4SnW7tlLDtuFvA4M3TE+RlPd87QLRV+YfuJ0i30Q0IQAACEHivAJLoRPm39r2napw30NLmGVnNl3kzg4Kice4kdjcWAjpcy+nWTmPRMtqEAAQgAAEISAggiSKJQgACEIAABCAAAQioRwBJVD3uEl8I8BYCEIAABCAAAQhMQgEkUSRRCEAAAhCAAAQgAAH1CCCJqsd9En7pwSFDAAIQgAAEIAABCQEkUSRRCEAAAhCAAAQgAAH1CCCJqsdd4gsB3kIAAhCAAAQgAIFJKIAkiiQKAQhAAAIQgAAEIKAeASRR9bhPwi89OGQIQAACEIAABCAgIfABJlHTWa6+a/ND0svcAkR6hgKJA5b3dooOf4WwwD0oUd4GWD9BBKYZ2xgJHMlr6jQLdq8UFE3R4Ydm7JrvFc7efljLJjNdAkRFAgfPYdXCxhCAAAQgAAEIKBDQyCRqMtNl7eZDjt6R0gfm6B2ZUdEet7UuTFwenlXBn+EgvY3MNb5r84VbDhtMnyWzdIKvbGu/8P3dHz28A8e6n1OnWawQFrj4xoz1jhS0H561T1x1gbxc/YTsLRUUcRiunVtgUulJG9eV7CpKLpvMdBFtP+EZsUEi+ypZHZtBAAIQgAAEICBTQCOTqJHAMWZjzdylIRKH9JGucXRedVTefkbfRKJI8dtPHH1EJY3Wjj6KN1NjaUvruXv3fnJftkJmH5pa2m59e8fV3VtmqQpX6vGthYV1fnEFKmxzZE0ZCRxTys5IJFHSlIIiv7iCmIKDOlzL4e7UM2JD3NY6faNPhlsR20MAAhCAAAQgoEBAI5OovOMZWU7S0uaFZu4Kz9or8zfW5e1rnNd/evFyZ+ejcRj1VHxcIxNW3ObIShXETQVF5raLkktPyxxNV9yNkPQyYWGdHt9a8WYohQAEIAABCEBgWAIalkTlXX4l4YNetCULSg7d8cznikoa3QLWScDp8ywOHKzr6ekdGBh49+7d55e+tLV35TBcX//Vv/7a+fMv98kYpK296+073z9//iIyVsRhuPo8i6PHGmmta9dvsocqE1PEnY8e9//558GDX0kVDsOtqa1/8vTZt7e/I0Wdjx4LE1JJf+7+cG/g739oJC0sKu3r6yOFdCU9iqLtO1+8eDkwMNDf33/v3k+BwUM3MxQWlf73v78dbzj98tWrgYGBvr6+4w2naS3FCypMoqQpz4gNMfk16ys71leeDxOXk9FKib1IvCU9VBA3FRSRUfOQ9DLFhyldGp61D0lUmgVrIAABCEAAAqMU0LAkSh5JmeWyInVXM/vK7BQdPn+Gg+WcxfFFR4MSt5HHWZQcwbJ1C0gpOzPLRfLCd0VlTV9fX1Nz23yXpSWl5V1d3S2t5wi3KHn9ixcvL3x2SZ9ncaT+RHd3T1HxULg5eKie1tpUWPzy1asvvrxGaoVFxj1//uLHe/8KCo0Ki4z7+Zf7NM7W1Nb39/dfuXrdPyic1KJFfgFromJFV65ef/zkaVpGTlSsKHhNjD5v8EkdW3vXiOgEUiqRRHPytvT09F65en2pl39S6mD8pQ0WFpX+/vvvDx78mpaR4x8UfuXq9devu5JSxcp8kmSGwk+cl4tKGlLKmtiv9447kqZSdzW7+Mbo8qwWrFibtvuse3Ayh+FK7EXiLemngripoIjDcP3iCkZwnT08a19EduVEHjVX5vRhGwhAAAIQgMBEE9CwJEr45EUNmZHlveKufsKUsjNGAkf2ls4LPX+5/+DWt3dI5uMw3Nb2DnbaIwH0ROMZdkKVrtV4qone39l8tv3Fi5cR0QlkR7n5hS9fvSosKiVjoq9fd0X9OarKYbhV1bXd3T1ZuZtolxRfnZcuvXLtxpOnz3z9V5MWikv39Pb27txVwWG4hUWlXV3dRdt3kqKU9Kzu7p7qmsN0XwoWZAoz+iZGVvPp8+wyn2qXbnOoqfjNpIiMVoaJ9451EpV5uqW7R9dM0eE7eKxJ2dXsujKersQCBCAAAQhAAAIqEUAS5cqMJlGxotevuzo7H92+8z15PXzYyQ6L+jyLC59d6u/vv33ne3LVnsNwI6ITXr561Xy2Xea5ufvDvdevu+58d5c0+OO9f/W9fVtTWy+dRKXToXTWZO9CopQE4rs/3KPbkMM50XiGJNHXr7tIAuYwXFJEukG3l7cgM4nK21jxeummwrP2hWftm2hJNDxr3/rK88tj86bo8BUfEUohAAEIQAACEBiuAJKooiR67frNuqMN9FVdc5je9KkgiZLAJ30m7v5wr/PRY9oaWYiNG7weXVNbz465JImy06FE1pRoXKKUJNE7392lm5GIPPokKnMWp9FcnWffyzsxk6iWNs9+SSjGROlnCQsQgAAEIAABFQogiXIdvSNTys5Y2LmzWT28Azs7H127fpNenWeXchguuTp/9PjJly9fdVy4SEqlr85n5W7avbdqpp0zh+F+evHys2f/DV4jYzJOiSRaVV3b29tbsGU73alE1qTryYJ06Te3bt9/8JDm5tz8wp6e3orKmlGOiUrsl7z92MzO1T9+UaCI/TK2HjxkBa/3j4n+34V76S05DFfeHRqKizgMd0lIiqikkWc+V0HfpItwn6i0CdZAAAIQgAAERi+gYUmU/cTS0tXpRgJH/gwHetlUZmR5r5GFnXtS6Sn7JaESWzacPPP27bszTa1mVnNc3b0vfHbpm1u37R0HA6uCJ5YO1x3v6emt3H9Qn2cRty6189Hjm1/fInE2LSOnu7vnx3v/8vEL0edZlFdU/3L/QWLK4KNCNbX1794N7YvUog8YkV4dO3Gqt7e3pLScw3C9fVeZWc2ReGKJPs9EZnraXFjS09PbceGimdWcwODIn4mdzp0AACAASURBVH+5//BhJykqLCod8dV5LW3eghVC6ZlcJeiUeSt9suiYKIfhBqfuWLftuJHAkdE38Qhfn1lxno6eKvgMKCiiXQpJL4vOq/5I15iuUWYBz84ro4RtIAABCEAAAsMV0LAkyp7FiUzVxH7YSDrcKMMxdZpFbEFtgGirxMb6PIuW1nN0mqSnz55lbsiXnsVJn2dx8+tbL1++EiWv5zBcM6s5re0dpFZ/f/83t24v9fKnLW8qLCYzKw0MDLx58+bosUYSUmtqB5+4f/zkaX9//8DAwOMnT+ksTqSur//q+w8ekgmburq60zJyyOgm7R6d6OnTi5dJlfKK6q6ubjKLE3vGqNEkUYPpsxK2HYvIrqTpnx7acBekTxY7iZrMdIkvOiquurC+siM8a290/gGaRBV8BhQUke6RnS4JSRlubzGf6HDFsD0EIAABCEBAGQENS6LKHNIItnELWCcqbjCymi9dV59nEbwmZrhTyptZzQkNW0ufZJJo1sM7kM7ERIro1XnnhZ5+AWsktqdvpSvSIpkLI+u8zKbUsnKasY2SU3Ep2b15y9aItp8wnTU4L+ywXktCUtZtO/6xqc2wamFjCEAAAhCAAAQUCyCJDiYSHa5lzMaaFcKN6powkiZRxWcLpaMRMJg+S7jlsFekUjOnSuyIP8NBVNywMmELfndeQgZvIQABCEAAAqMRQBIdGhszm71w3bbjLr6xo9EccV0k0RHTKVlxig4/JL1sdeZuRt9EySoSm5nMdPEXFVraLZZYj7cQgAAEIAABCIxYAEn0r6u0eoYCg+kzR0yJihNcwNx20ehvb53gx4juQQACEIAABDRLAEn0rySqWWcOvYUABCAAAQhAAAKaLoAkiiQKAQhAAAIQgAAEIKAeASRR9bhr+jcY9B8CEIAABCAAAQiMXgBJFEkUAhCAAAQgAAEIQEA9Akii6nEf/XcItAABCEAAAhCAAAQ0XQBJFEkUAhCAAAQgAAEIQEA9Akii6nHX9G8w6D8EIAABCEAAAhAYvQCSKJIoBCAAAQhAAAIQgIB6BJBE1eM++u8QaAECEIAABCAAAQhougCSKJIoBOQKmNguMLFdoCl/yecuDg5JL/tI15h2eI77qtWZu/QMBXQNFiAAAQhAAAITSgBJVG4KmVDnSXFn2tovfH/3Rw/vQMWbqbHUU5SVeKhZsMB79H2YomPoHp2SdKRZ3HQpqbbJJUQ4+jbltRBf1RBf1SBd6pGQJaw4Kv3ySMiS3nh81ti4rkwqPWnn9rfPAKNvEiYuX525mx1Px6c/2AsEIAABCEBAGQEkUc1Ioi2t5+7d+8l92QqZJ7Wppe3Wt3dc3VWQ82S2P/qVS4WZooOnze0XKd/UDKdlaUfblwozJKqEFOzKab8eWXrAJ3WjcN+xnPbrPqkb6TbyatENhrUgL4nO8wv3Sd3ok7oxtLA8++yV0MJy8naeX/iw2lfVxjpcy5iCgz5ROdINms5yFZU0OnpHShdhDQQgAAEIQEDtAkiimpFEP714ubPz0UQe9VT5R1mwwFvcdMkr8W/pymL+kszGTyNKD5DdTdExjCytyWz81GL+ErJGZq0R901eEqUNuoTEiZsuuYTE0TVqWXBeHpNUetLY2lnm3gNEW2MLaqdOs5BZipUQgAAEIAABNQogicpNovo8iwMH63p6egcGBt69e/f5pS9t7V05DNfXf/Wvv3b+/Mt9MgZpa+96+873z5+/iIwVcRiuPs/i6LFGWuva9Zt0qFJegxyGW1Nb/+Tps29vf9f/55/OR4+FCankY3H3h3sDf/9DI2lhUWlfXx8ppCvph6lo+84XL14ODAz09/ffu/dTYPDQqFhNbX3no8dNzW1v3rwZGBjo6uou272P1pK34BISl9F4IbL0QE779fyOm5knP3NeFUs3JoHMS5QtOng67/xXeee/ItepSS7M77iZ33FT3HSJfXWeNOiXuUV8+vP8jps5bVf9MgtJgy4hcTltV0kt+l8SSa2cPMSnP19T9FeHrd18PBKyPja3VVCLw3DN5rolVDfmnbuR33Ezq+XLgOztU3QMye50+YLQzXvIHnParq7auJMxMCVF7CTqKcrKbrnim15AK3IYrrwkSir6phdkn72S33Ezue4sz8qew3A/NreNLK3JbR/sRk7b1fDtlbr8oZs4p+gY+qYXZLV8md9xM7f9RmRpzcfmtlR49tKA1Po2Ypt0pFng4kmLOAw3JL0sIrtSS5vHXkmX7ZeEppSdETj8rQopXR6bl7KreZaL7LF22gIWIAABCEAAAmMkgCQqN4lWVNb09fU1NbfNd1laUlre1dXd0nqOnAZR8voXL15e+OySPs/iSP2J7u6eouIyUnTwUD2ttamw+OWrV198eY0UKWiwpra+v7//ytXr/kHhpBZNun4Ba6JiRVeuXn/85GlaRk5UrCh4TYw+b3B8y9beNSI6gZRKJNGcvC09Pb1Xrl5f6uWflCrufPSYNlhTW//HH398f/fHiOiEiOiEH+/968nTZ77+qxV/wkjOi9/fYOXkYbMsMLW+LbPx0xlOy0itwdLWK9lnr0SUHnAKil4ck2Y2143DcBkD0xlOywQLvFeKt0on0ZzWK0lHmu28gk3nLIzYcUDcdMlm2eBtjrp8gZWTh1NQtLjp8krxVsECb8ECbwPT2RyGO0XHMLSwPLft2uqtew0F89h9VlBLh2cp3Hcstb5t5qIVunxBYE5xTtvVxbFppHro5j3ZLVc8ErJ0+QKPhMG4uSJjMymiSZTEUP+sbewYqjiJ5p67kXas3Ssxxyko2nXNuqF9FZaLT38+PyCaMTAl+wrI3k6KvJNyc9quBuYU65vMcl4VKz79eUTxflI0w2lZZuOn8fsbzO0XzXBallTblFTbRHOqvtEncVvrlsfmkY2l/2skcEwpO+MWMNQH9gbBqTsyK847eIaxV2IZAhCAAAQgMG4CSKKyk6jzQs9f7j+49e0dkvk4DLe1vYOd9kgAPdF4hp1QpWs1nmoi93dKF7EbrKmtf/26K+rPUVUOw62qru3u7snK3UQ/B4qvzkuXXrl2g50vi0v39Pb27txVQcZfu7q66Zjrzl0V3d09BVuG8hDdo8SCxOCfg39EVvMX9CZOklNXbdwpUYu+9UrMkU6i4qbLC1bHk21sPYI2NF1mP/Ej7zo7Y2AamFOcffZK3rkbSYdbJJ5Ykllrio6h+bzFfGsHsi/TOQvTT3SEFpZzGC653M/ueXhJdfSuQ2RLkkRJDF21cadEDFWcRDNPfmbl5EEFyAL7YXwdnqWo5jR5IsrAdHbioebYPUfoLvzWb02obiQjqYG5O9itOfhHiE9/Tm8JIEHT1U/uk1t6fGthYZ1fXIFEZ/5M9nx9o0+k12MNBCAAAQhAYHwEkERlJ9GoWNHr112dnY9u3/mevB4+7GSHRX2exYXPLvX399++8z25as9huBHRCS9fvWo+2y598hQ3KJFEU9Kzurt7qmsO03aksyYt4jBciVKSeu/+cI9uQ/Z+ovEMSaLsAyksKn39uquwqJRuLHNBIomSMBeyaTfZmCRRiXs62e3ISaJ/3WEpnSCl17Ab1OULFkUmJR9pyWm/HpS3gxbJq/Wxua1fZmH68XPipkvipsu57TdIEnUKis5q+ZJGatoOWYivahCfuZR99kpSbZO+ySyJUsVJNOVoG82+tCJjYOopyiIP/oubLuW0XydJlNx1EJj714HQKhyGO9iNpkvCfcfI0/rx+xty265R7dEkUfZesAwBCEAAAhAYfwEkUUVJ9Nr1m3VHG+iruuYw+6ZPeUmUBD6Jc0myoLwGZSbRmtp62ohE1qTryYJEKUmid767SzcjEVnlSZSEORLIctqu0mxE90sXVJ5ESctTdAxXF1WIT39ORx9lJlEdnuXavfXpDR2LolIEC7ztvILTjrXTJLqh6fKiqGTaVfZCfFVDbvuN+KoT2S2DD8jTAUu6jURAp+vjqxpkJtHQzXvEZy75pOSTWw7W1ZxiJ1G/9UN3ytJ2yEJ8VUNqfRt5PJ/+19rNh5QiiUpw4S0EIAABCGiQAJKo7CTq4R3Y2fno2vWb9Oq8xEklV+ePHj/58uWrjgsXSan0Jfis3E2791bNtHNW3KBEEq2qru3t7WVfMZfImhKdkS795tbt+w8e0tycm1/Y09NbUVmjqjFRB/8Icm8l6cm4jYkuikrOPnuFHRx9UvKzW67Q6ZNkJlGy0icln/R2+izHtKNDSVT66rzrmnX0ts7Bq/P7G6boGPqtL5SYLooeuMxn52UmUb61Q8rRNvq41RQdw/j9Q/OVSl+dn+cXvjg2TYdnyWG4oYXl6Q0d5vMWS5x38pZnPldU0rgkJEVm6eBjUqY267Yd94zYIG8DrIcABCAAAQioSwBJVHYS/d/T1g0nz7x9++5MU6uZ1RxXd+8Ln1365tZte0d3DsNV8MTS4brjPT29lfsP6vMs4taldj56fPPrWyTOKmiwprb+3buhfZFa9AEj8sk4duJUb29vSengrY3evqvMrOZIPLFEn2ciMz1tLizp6entuHDRzGpOYHDkz7/cf/iwkxRJpF7pq/Mf6RqHpu8UlTRY2v0VfcgzSRHF+z82t50+2yl+f4PkE0uyxkT//sTSZaegaMECb/KrRRKjidIJ0tjGJf34OeG+Yx+b2+ryBeSOSb61Q/KRlvSGjvkB0VN0DMmzU+zHd2TWMrdflNF4Ia7ymKFgnrGNS8SOA3nnv6IDuqH/9xQRh+HOD4gWn/6cXu6nTyzp8gXCiqMbmi7beQWz/65KHAUtkplEB+Nm7emU+tYZTssMTGcH5u74c8B1aOZ8n5T8wVtv49dP0TGcuWhFan1bzO5DZBTWzit4Q9Pl+P0N02c7TdExXBKbnnioefbSALK7j3SNo/Oqg5Ll3ukrcPBMKTtjvySUdo8uuPjGBCUXTzO2oWuwAAEIQAACEBhPASRRuUlUn2fR0nqOTpP09NmzzA2Dg2oSszjp8yxufn3r5ctXouT1g7MFWc1pbe8gtfr7+7+5dXuplz85o/IaJOOUfX19j5887e/vHxgYePzkKX2iiNT19V99/8FDMmFTV1d3WsbgLJvsWZzoRE+fXrxMqpRXVHd1dZNZnB48+JVMMqXMmOjUaRbR+QcyKtrnLv4rdbmExGU1fzE4kdCfEyGJT38uMYuTzKvzJF/SmZjIArkeLZHhpJMoh+H6pOSTSaPyzn8VsWNoDlH2fEx5526sqzklMaWRzFpLYtPFTZfzO27mnbsRV3k8/URHzJ4jBOpvMyu1Xw/dsofOrESTKIfhGtu4JNedTalvJdMCkLoSR0FWkjs7ZV6dn+cXntF4YbAb578SHTyddKQ58VAzmRaAMTBdtXEnmUwq79yNmD1H2JMDOK+KzTz5GQHMPis5mZRnxIaEbccMpsu4k5XDcF1XxidsO/6xqYy46RdXkFJ2xkjgSHuOBQhAAAIQgMB4CiCJyk2i5DTo8yyC18QMd0p5M6s5oWFr6ZNM7DMqs0E6Tum80NMvYA17e/ayh3cgncKJvV7essx9yduYvZ7RN9HlWbHX0MilyxeYzXWTvmOSvbEKl8moKslq7GYZA1OL+UtoZGQX0dmjJGqRJ+glVtKKunyBxfwldCZRun4sFkxsF0g/zER2pPi4+NYO5vMWS+OTH1JyXh4j3VtG3yQqb7/MB+c5DNcvrkBU0sgznytdEWsgAAEIQAAC4yCAJPqeJDoO50B6nHJ8djqsvdAkOqxa2HjcBLwixcIth6WHRd0CROu2HefPGJrBit0fHa7l2k2H5IVU9pZYhgAEIAABCIyRAJIokqhSAkiiY/Q3UFXNMvomqzN3h6SXTdHh0zZnOq8QlTTaug3+XoD0S0ubJ5jnqWc49CNP0htgDQQgAAEIQGCsBZBEZfwLPdboaB8CYyEwRYdvZDWf3bLB9Jm48s4GwTIEIAABCEw0ASRRJFEIQAACEIAABCAAAfUIIImqx32ifSNBfyAAAQhAAAIQgMD4CyCJIolCAAIQgAAEIAABCKhHAElUPe7j/50De4QABCAAAQhAAAITTQBJFEkUAhCAAAQgAAEIQEA9Akii6nGfaN9I0B8IQAACEIAABCAw/gJIokiiEIAABCAAAQhAAALqEUASVY/7+H/nwB4hAAEIQAACEIDARBPQsCSqpc1bHpvnFiBi/5DMaEz1+NZGAkfy0uNbj6apYdXV4Vp6hovdg5OHVQsbQwACEIAABCAAgQ9JQPOSqOWcxXGF9SuEG7W0eaM/E35xBeKqC+Q1bj/A/ZGu8erM3RHZlRK/iDP6w0ELEIAABCAAAQhAQIMENCyJElm3gHWikkYV/oyhHt9aWFg3bklU4OCZXHra1i1Agz4o6CoEIAABCEAAAhBQuYBGJlH7JaEpu5pnuaxQFcc4J1FH78i03WdtF/qrqv9oBwIQgAAEIAABCGiigEYmUduF/illTconOS1t3oIVwtTdzeKqC5kV51cmbGH0TdhnS2YS1dLmLQvPpLXWrN9jMH0WqfXeBtmNSy+7+gnTy1uV7790C1gDAQhAAAIQgAAEPgABTU6iSl/ddvSOTC9v9Qhfr21gNndJcOquZq9IMfvkyUyijt6RqbtbFqxY+49/Tp+9wC+59HRo+k5yc+p7G2Q3Lr3s6idMKWsymekiXYQ1EIAABCAAAQhAYPIIaGQSHQyOWw6Hb9hLBykVnLCp0yxiC2pDM3fRJ5x8onKEhXXsJ+VlJlHPiA2JO07Rh4o+cV7u4Bn2ka6xMg0q6M90a6e4LUdWZ+7+SNdYwWYoggAEIAABCEAAAh+8gEYmUQ7DNZ3lmrjjpDLXuI0EjillZ4SFdWHicvISbjmcUnbGSOBIz67MJGpoaS/ccjhtT2t4VoWrn1DPUEC2V6ZB2rLEgqufUFx1Ibag9mNTG4kivIUABCAAAQhAAAKTTUAjkygdE6XpUMFpI8FxVUrxokARfbn4xuhwLWktmUmUw3Cn6PBtF/oHJW9PKj2VWdHuFrCOw3CVaZC2LL3An+GAMVFpFqyBAAQgAAEIQGASCmhkEh16Ykm5+0RJylyVUkyvzkufZplJ1G5RkN2iILKxljZvVUoxuaavTIPSu2CvwX2ibA0sQwACEIAABCAwaQU0OYkqPQvSktDUjH3nPMIyp+jwdbiWK4QbQ9LLtPXNOAyX/MaS5ZzF8UVHgxK3Df7YktV88mS9X1xBStkZMleUnqEgIrsyOv/A1GkWHIaroEFlPkl4dl4ZJWwDAQhAAAIQgMAHL6CRSXS484lqafO8Ijdk7G0jv6WUsO34DPtl5NSyf2OJlNJ7T3W4lqtSijMrzourLqyv7IjbWmdm40ZqKWhQmU8M5hNVRgnbQAACEIAABCDwwQtoZBJdEpIygt9Y0tLm8cznsh+ZV+bsTtHh82c4kKFQie1H1iCH4VrYuSeVnrJfEirRIN5CAAIQgAAEIACBSSWgYUlUS5tnPd87cccp37X5mnuetLR5oek747YcmW7tpLlHgZ5DAAIQgAAEIACBUQpoXhL1DBe7BYim6PBHeeTqra7DtfQMF7uujFdvN7B3CEAAAhCAAAQgoEYBDUuiapTCriEAAQhAAAIQgAAEVCuAJMpVLShagwAEIAABCEAAAhBQUgBJFEkUAhCAAAQgAAEIQEA9Akii6nFX8osCNoMABCAAAQhAAAIfsACSKJIoBCAAAQhAAAIQgIB6BJBE1eP+AX+5waFBAAIQgAAEIAABJQWQRJFEIQABCEAAAhCAAATUI4Akqh53Jb8oYDMIQAACEIAABCDwAQsgiSKJQgACEIAABCAAAQioRwBJVK77NGObacY2KvwWose3NhI4kpce31qFLauqKVt717DIOFt7V1U1aGY1JywyLipWFBUrCouMM7OaI69lle9a3o4UrI9PTO+4cPGbW7eP1J9Y6uWvYEtNL7K1d42ITiDnJXhNjD7PYiIfkQ7XMiR1xxz3Vcp0cooOPzRj13yvcGU2xjYQgAAEIKB2ASRRuUk0PGtfeNY+FZ4hv7gCcdUF8vKLK1Bhy6pqqrCo9PXrrsKiUlU1GBUrev26a+DPP69fd0XFiuS1zN51Yor462++3bWnkm58pqn1wmeXnBd60jUjWxAmpD548GtFZY109YrKmr63bx89fnL7zvd3f7gXFhknvc0Hs6awqLSvr4+cl87ORx7egRP20D7SNV6duTtMXM7om0h08h9TDV3tly129JFYb+cWmFR60sZ1pcT68X+rxfBsrJ1Wugezdz3DYm7a6owZFnPZK7EMAQhAYNIKIImOXxIlHzI9vrWwsG6SJFH696qmtl75JEpy0pOnz3z9V5MW7v5wT8nAFBYZ9+jxE5lZk8Nwo2JF//n5l9KyvbRjZGGmnfNP//75Xz/9R4XjwRK7mJhvP714WSZsS+u5e/d+cl+2Yhy6vVSYkXa0fYbTMpn7cvSOFG0/YWQ1n11qYWq3Pnz98YJDpwqPxgfI+HrjF1cQU3BQh2vJrjWeyzxDQZz/urq8mlOFRzcJ//a108F2UW32fgfbRePZH+wLAhCAwIQVQBJFEv1LgD0wqdqP7AiSaH9/f8PJM6QbyidRMgpbU1s/rP57eAd2dj769OLlYdX6ADaWl0TlrR+LQ/ZKzBE3XRIs8JZuXIdruXbTIemvbQWxG0uTij1cVuxJ2ykziZrbLkouPe3oHSnd5visifNfV5Gxx8c1oDBuC5Lo+JhjLxCAgIYKIIn+lcMkTmF41r64rXVxW+vWV3ZkVpwPSt5Orw9O0eH7ROVk7G0TV13I2NvmE5UzRYdPqisoIhvIGxM1s3Ej+1pf2bF28yE6CKSlzVuwQpi6u1lcdWF95fmYgoMmM11IU65+writdR5hmenlreKqC6m7muctWyNxFDLf5m/a9vTZs/4//zx99ix/0zayGUmire0dL1+9GhgY6OvrazzVRG8iTEwRdz56TGp1PnqcmCJm16LX9GXGWZlJNCt302+/PR8YGHj79t0PP97r6uomjZAx0d9+e/702bOg0CgOw2UnUVd372vXb757925gYKCnp/fAwTrSQ/YVZ3LdeWBggEbSuz/ck15JRknp/QN0AxJJq6prf//99+LSPdSwuHTP77//XlVdS9eodoEo7d5b9fTZs4GBgd9//71gy3ayCzb+gwe/RrLuc5B3NiXMJd6SZqUTJxtqWJfv5/mFZzReyO+4mdN+PbL0QEbjBZeQoTsczOa6JVQ35p27kd9xM6Pxwjy/oZs4QwvL8ztusl8SkVTg4JlcetrWLUDC+SMdIw7D1ZtmviulVGYS/UjXODqvOiS9TKLiuL0lPeQw3E3CghEk0eWxeSm7mme5jMeY9LiZYEcQgAAEZAogiSpKounlrW4BIl2e1YIVa9N2n/WKHMpeXpHitN1nXXxjGH0TF98YJYvICZCZRPkzHEQljRHZlVzzOfwZDjEFB+m1RduF/qm7WzzCMqfo8M1tF8VtrYvOPzB12uAjJq5+wsx958Oz9hpZzTeymh+RXZmw7ZjB9FkyzzRdGRYZ9/z5i6vXvlrq5R8UGvXjvX89f/6C3BZJwtyvv3amZeT4B4VfuXq9u7tnfdZGDsMltX6896+g0CjpWuy7S5VMokGhUU+fPfvp3z/HCJMiohN+vPevvr4+dhJtaml7/vxFS+s5dhLV51nc/PrWy1evNhUWz3dZ2tTc1tfXR67Fk6dwCrZs7+rqbjzVRB7HobeW+gWsiYoVkVIaTzkMlzxTlZaR8/jJ0ytXr5Na5L5JX//VT54+u/XtHZJ09XkWt769w75ngJJKLISk7kgpa2K/InOqdHlWEptJv62pre/v7+/p6W0/dyE3v3DvvgOu7oMjhWz8sMi4n3+5//Mv99lFMs+mRPSUeEv2Lp1ECdSVq9cfP3malpETFStS5pGmGU7LMhs/FR08LXD1sXLyiN/fkNN2lSTRj81tk2qbUuvbbJYFGgrmxew5ktn4KbkWz7d2ECzwXineKm667BQULVjgPcNpGWNgSmXcAtYll56m38roerKgIIlyGK5fXEHc1jp9o08kasl8q+CUKSiS2ZTEypEl0eDUHZkV5x08wyRaw1sIQAACH54AkqiiJEqfWNLS5q1KKRZuPqzLs/rY1GbdtuMBoq300xAg2rpu2/GPTW0UFNGNZSZRz4gNiTtO0X9xrR19BoeCFg4+vj11mgV/hgMdc10SkpJSdsZI4EiSaEpZEx0itV8Sqsw4Slbupu7uHjqwFxq29sDBusDgweuYEiEyJT2ru7uH5LYTjWe6urqTUoeyeFKquKur+0Tj4NVziVoSb8mBS8egisqanp7e3PxCsgG7FgnENbX1La3nfvvteVhkHB0TJV06duIUqTXTzvnevZ9++vfPM+2cyRrFV+fllcq7Ot9w8szr113kqGPjkl++ekV3TXYn87/TjG3oJAlkgWc+V0ubJ3Nj9sqa2vo//viDnhpa1Hy2/cWLlxHRCWRNbn7hy1evSGpXcDYlzCXekqakk6ji9bRLEgtLhRlZzV84+EeQ9S4hceKmSySJShRZOXlkNn7qnZRLW1Bwdd4vrkBYWCdvognFSdTVT0j/ptB9yVtQcMoUFMlrjb1+ZEl0ig5fyQzN3heWIQABCGiiAJKoUkmUw3DdAtaRf9gEDp5pu8+6+gnp+R78N29Xs4Wdu4IiurHMJBqetS+lrClMXE5eEdmVGRXtdBdWDh5r1u9JLj2dUtaUtvss/fdV4t9a24X+KWVNJL/S3UkvzLRzvvj5F2/fvvv1187ms+3xiel0G3YcpFeuSRL95tZt9qMtJLpduXZjxEn004uX/zcm6h80dKGWvWuaRMlYYGt7B02iFZU1vb299E4ADsOVaEde1iTHKK9UXhKNiE548eJla3sHh+EeO3Hq+fMXNA5SNBUu1NTW04FhdrN3f7j3+nXXne/u3r7z/e073w+OH799S86LgrMpET0laXHo9wAAD8JJREFU3pL2VZVEQzbtTj/RYTpnIWmWnURDC8uzz16JrzohrDgqrDgaV3k8q+XL0MJyeoATIYnSzqh8YWRJVOXdQIMQgAAEJqwAkuhIkmjq7hYX3xh6Ul18Y2gSlVdEN5aXROO21i0KFLFfxtaD43w2ritTdjUHiLaazV5oJHBcujp9lEmU9CQ+Mb35bHtn56M//vjj29vfkWfG2XFQOon++msnfZjafdmKX3/tHGUSffT4ibfv0CSR7F3TJPq/q+cNJ8+8fPnq8ZOnJAeTJErvnuQw3I4LF9mJVl7WJEctr1ReEiVJ98nTZ/+7SH3/wcMvvrxGz6OChRFfz1WQRDsfPa472sB+xcYl0z7IPJsS0VPiLamrqiQaWliedrR9+qzBoXoOw5VIoutPfea3vtAndSN90VtFOQx3IiRRBadMQRH1V7CAJKoAB0UQgAAEOAwXSVTZJBqUvJ1cKOSZzxWVNPpE5dAPkE9UjqikkWc+V0ER3VhmEvWLK1i3/QTPXMYUgxK3u9Gh2f+7Oj90pZ7DcJUcE42NS66uOUzuMuQw3D0V+3t6hkYZ2XFQIolKXCAmg4XNZ9vJmGhXV3fR9p3kGCUaISulY1B1zeHu7p6U9CzpWuwkSm4nHRgYIElU4mI0uXfzl/sP6P2g8rIm2Yu8UgVJNClV/PLVqyvXbrx89SonbwtpR/F/7RYFsb9RLAoUOXiGfaRrrLgWh+HKS6KfXrz87Nl/g9f89eWHNqXgbNbU1nd1dQsTUsnG0qeA5Gz2UDdtVl5CpRtILHgkZG1oumzrEUTWs5Ood1LuhqbLdt4hElXoWwVJ1DNiA7nvhW7MXlB8dX5JSAr5W8muIm9ZwSlTUCSvNfZ6JFG2BpYhAAEISAsgiSpKoml7Wp2WR0/R4dsvCU3b00rTp+/a/NRdzXaLBv/dtVsUlLqr2XdtPsFVUER+Y8lyzuL4oqNBidsG7yC0mk+ex7ecszhlV3NEdqXB9Jla2rz5XuGxBbVmNm4chusRlpm2+6z9ktB//HO6rVvgn9fo2feJDjuJFhaV9vb2NrW0mVnN+d+L3ApJHkuSCJHs3CZMSH3x4uXX33zr6u7t6u799TffvnjxkqScoNCo3357fu36TVt7V/IwE73ETH9jqfFUU1dXd8GW7VGxIr+AwQf86VM4Pn4hS738v/v+B1qLnUTJZfH+/n4SmGbaOX97+7v//ve3xBSxPs+i9vDRN2/eHDz015xN5DGjO9/ddXX3trV3pYO47CeWyPNM7N98UpBESdgdGBigjy5J/y1S1Rp5STQtI6e7u+fHe//y8QvR51mUV1T/cv8BmbtAwdlcn7Wxu7vnTFOrmdWcpNTBeQ/olK70N5bYTyax57c/duJUb29vSengNXRv31XsH8f6SNc4NH2nqKTB0m4xPXDyxFL8/obps50MBfPiKo/RJ5bM7RelHT+fWt82c9Hgk+AOK8OTj7S4hPx1c8vC8HXZZ6/4phdM0THkWdnr8gW0WfsloUmlpyzs3Oka9oLiJBqSXhadV63MFwB2mypflplED+XsX+a8wsR4Nn1N1fvbFxUX35ig5GLV/sabyg8NDUIAAhBQiQCSqKIkGp61d932E2T6pDDxXj3DoX8jGX2TlQlbMivOi6suZFacX5mwhU7wpKCI/RtL5JeW0stb6W2dsxf4Je44RdcvWpVEnnHRMxSEifeurxzcV1LpqZC00tTdLQKHwV8bGtl9ovo8iwMH63p6eskcPRITIbGfgmcnUQ7DpZMuDQwM/Pbb86zcTfQjWF1z+M2bN2Q+pouff/Hbb8/JrZykBTo7Elm4+8M9UnFTYTGZLqq/v//uD/foUzgSSZTERDp0t9TL/853d/v7+6XnmSLNHq47/vbt4BxP/f39V65eJyulJyeisWww7iucT7Ro+87u7h72dE70wFW7IC+JDk4GVFj84sVLAvjmzZujxxrpE/3yzqY+z+Js23lC0dvb+9nnl//739/Iz1wRYYnzwp5O1dd/9f0HD8kGXV3daRl/XQGYOs0iOv9ARkX73MV/++kg51Wx4tOf53fczDt3I/FQc1bzF3QWp5luvqn1bXnnvyJzPIVu2cOOm7p8wdq99aQ0t+3aosgkqkouMrgH/3UfAi1SPIsTufKwJCSFvb1almUm0WMbB+fkZ798XP82U5VfXAG9CUct3cZOIQABCIybAJKo3CRKz8E0YxsyaxJdQxYYfRP+DAeaQdmlCorYm0kv6/GtZT5nPXWahcz10i0ov8YvYA0ZnlS+yuDkOHJqmVnNCQ1bO9zfKNLnWQQGRw63FofhOi/0ZA9qShwCGYull+wlSof79osvr91/8JDezzDc6irc3sM7UN6cSvLOi629a2jYWvagpvL9kbc7Rt9E5qRUU3QMzea66fIFi6KSN/w5MRN7XwamsyUmaVKm1C+uYO2mQ8P9taR5y9aItp8wneXK3oUGLfvFFSh/a4EGHRe6CgEIQEBaAEn0/UlUWg1rJo9ASWl5d3ePvJ8PnTwOio+Ub+2QUN3okZDFGJia2y9aV3Mq5Wgb39pBcS1lSvkzHNZtO+4m6yc95VU3mD5LuOUwnf1X3mYTdr28X5aasB1GxyAAAQiMRgBJFEkUArIFyPwA/f395BbY0fw1++DrTtEx9BJli5suD16dP/9Van3b7KV/u9w8GgFbt0BRSeNMZ6V+cGiKDj8kvWx15m6ZFytG041xq6ulzRPM86T3Ao3bfrEjCEAAAmoRQBKVnULUcjKw0wklQC7xj+AGhgl1FOPcGb61g4HpbJXv9GMzO+Uv0JvbLqK/BKHynqBBCEAAAhBQrQCSKJIoBCAAAQhAAAIQgIB6BJBE1eOu2u8TaA0CEIAABCAAAQhoogCSKJIoBCAAAQhAAAIQgIB6BJBE1eOuid9a0GcIQAACEIAABCCgWgEkUSRRCEAAAhCAAAQgAAH1CCCJqsddtd8n0BoEIAABCEAAAhDQRAEkUSRRCEAAAhCAAAQgAAH1CCCJqsddE7+1oM8QgAAEIAABCEBAtQIalkS1tHnLY/PcAkSYuVq1nwO0BgEIQAACEIAABMZfQPOSqOWcxXGF9SuEG7W0eePvhT1CAAIQgAAEIAABCKhKQMOSKDlst4B1opJGnvlcVSmgHQhAAAIQgAAEIACB8RfQyCRqvyQ0ZVfzLJcV4++FPUIAAhCAAAQgAAEIqEpAI5Oo7UL/lLIm24X+qlJAOxCAAAQgAAEIQAAC4y+gyUnULWD8vbBHCEAAAhCAAAQgAAFVCWhkEtXjWwu3HA7fsNdg+ixVQaAdCEAAAhCAAAQgAIFxFtDIJMphuKazXBN3nEwvb8U1+nH+xGB3EIAABCAAAQhAQFUCGplE6ZionqFAVRBoBwIQgAAEIAABCEBgnAU0MokOPbGE+0QZ/EAUBCAAAQhAAAIQ0GABTU6ieHYeSRQCEIAABCAAAQhosoBGJlHMJzrOI+fYHQQgAAEIQAACEBgLAY1MoktCUvAbS2PxaUCbEIAABCAAAQhAYDwFNCyJamnzrOd7J+445bs2fzyZsC8IQAACEIAABCAAAZULaF4S9QwXuwWIpujwVW6BBiEAAQhAAAIQgAAExlNAw5LoeNJgXxCAAAQgAAEIQAACYyqAJKrBEx+M6ScDjUMAAhCAAAQgAIGxFkASRRKFAAQgAAEIQAACEFCPAJKoetzH+hsG2ocABCAAAQhAAAITXwBJFEkUAhCAAAQgAAEIQEA9Akii6nGf+N9R0EMIQAACEIAABCAw1gJIokiiEIAABCAAAQhAAALqEUASVY/7WH/DQPsQgAAEIAABCEBg4gsgiSKJQgACEIAABCAAAQioR0AFSZQ/wyEoudh6vrd07jabvTA8a5+R1XzpIqyBAAQgAAEIQAACEJjkAipIooy+yYIVa5NKT9q5BUpoamnzVgg3rt18SI9vLVGEtxCAAAQgAAEIQAACk1xABUmUw3C1tHkR2ZUh6WXSmnp8a2FhnVekWLoIayAAAQhAAAIQgAAEJrOAapIoh+EGJW8Xbj6sy7OS1nQPThaVNPLM50oXYQ0EIAABCEAAAhCAwKQVUFkS9YsrEBbWybwKb2HnnlJ2xtE7UlrZZKaLqLghNHPXR7rG0qVYAwEIQAACEIAABCDwAQuoMonGba3TN/pEGotcoPeL3yxdZOXgkbq7OTr/wNRpFtKlWAMBCEAAAhCAAAQg8AELqCyJ2riuTNnVvDg4ldE3kfYKz9oXnrVPej2H4eryrGRWkbkxVkIAAhCAAAQgAAEIfDACKkuiHIa7MCA+Y985mdfoFSTRD4YSBwIBCEAAAhCAAAQgMCwBlSXRoTHRkJQpOnzpHiCJSptgDQQgAAEIQAACEJjkAipLon5xBfLuE/1I1zg6r1rmHE+TXB+HDwEIQAACEIAABCazgCqTqMzr8hyGyzOfKyppXBKSIg09zdgmKLnYxTdGughrIAABCEAAAhCAAAQ+bAGVJVEF84naLvRP3HHSws5dmtJI4JhSdsYvrkC6CGsgAAEIQAACEIAABD5sAdUkUQXX37W0eUGJ28LEe2XOGEqSqGfEhg9bGUcHAQhAAAIQgAAEICAtoIIkyuibLA5OTdnVbOO6UnoHdm6BiTtOfuLoI13EYbjOy2NEJY2ms1xllmIlBCAAAQhAAAIQgMAHLKCCJMo1nxMg2mo931uaabq1U8K2424B66SLyBqD6TNn2C+TV4r1EIAABCAAAQhAAAIfsIAKkqgCHR2u5XRrJwUboAgCEIAABCAAAQhAYNIK/C2JGvAsJy0EDhwCEIAABCAAAQhAYJwF/pZE5zktHufdY3cQgAAEIAABCEAAApNW4G9JVJiQOmkhcOAQgAAEIAABCEAAAuMs8Lckerzh9DjvHruDAAQgAAEIQAACEJi0An9Lon/88cfHRlaT1gIHDgEIQAACEIAABCAwngJ/S6IDAwMbN28bz91jXxCAAAQgAAEIQAACk1ZAMon+/vvvltb2k5YDBw4BCEAAAhCAAAQgMG4Ckkl0YGDgTHPbuO0eO4IABCAAAQhAAAIQmLQCMpLowMDAjp3lk1YEBw4BCEAAAhCAAAQgMD4CspMowuj46GMvEIAABCAAAQhAYDILyE2i5DI97hmdzB8OHDsEIAABCEAAAhAYUwFFSXRgYOD333/fuHkbpnYa03OAxiEAAQhAAAIQgMAkFPjYyOripS/+38D7/vzxxx/HG04LE1LnOS3Gb9NPwg8KDhkCEIAABCAAAQioRMCAZznPabEwIfV4w+k//vhjYGDg/Un0fUkV5RCAAAQgAAEIQAACEBiJAJLoSNRQBwIQgAAEIAABCEBg9AJIoqM3RAsQgAAEIAABCEAAAiMRQBIdiRrqQAACEIAABCAAAQiMXuD/A/aqfO7gFbD2AAAAAElFTkSuQmCC;" parent="1" vertex="1">
          <mxGeometry x="10" y="180" width="345.77" height="180" as="geometry" />
        </mxCell>
        <mxCell id="1MYzswAyzwjDxM2m_jSp-4" value="" style="shape=image;verticalLabelPosition=bottom;labelBackgroundColor=default;verticalAlign=top;aspect=fixed;imageAspect=0;image=data:image/png,iVBORw0KGgoAAAANSUhEUgAAAdkAAAIwCAIAAABFhoaCAAAgAElEQVR4Aex9i19M2/v/788Yztl0KGaUqKg+oUjSVaSbJKWie2bKpHtjNKVIRBeSXEacLiopSZ0i9zjOcY2k3NL9hk6X4/zMWb7rsz57LiVpBk+v/er17Gc/61nPeq/Z771m7TXr+X/Ll1sYG5ujA2TAAT4D8BmAz8DEfwaOHTvx/35SUoUDEAAEAAFAQI4I7Era//8YFBMOQAAQAAQAATkisDNxH3AxPIoAAUAAEJAzAsDFcu4AOT6HoWpAABBQHASAi4GLAQFAABCQPwLAxfLvA8V5MkMkgAAgIC8EgIuBiwEBQAAQkD8CwMXy7wN5PYehXkAAEFAcBICLgYsBAUAAEJA/AsDF8u8DxXkyQySAACAgLwSAi4GLAQFAABCQPwLAxfLvA/wcXmjm5MnL8IhI1VhkiZXSBFNH/9EbS3MCekAAEFAQBEbgYmN7n9C00tC0Uu6+wv+YrBnHoP9jsoa7rxA5N7b3ke05M0tYX99gtXqtbLOvfVVDe7GH52Z9Q3NUkYmFrbdfkL6huY29i28AFx/efkEmFjZum/yd1m/CIWFjBsXU0F7MFyQIs3O9/YKwAYNimjuxg/cXW7ltnalhQOoZFPOnqbMoJTVSqWNka+MVHZJyVt/CmdSDDAgAAt8iAiNw8dQZWmo6xgtM13L3FY3vPU8pz1HTXjZv8crApDxzJ7Zs7ITZuc3Nb2zsXWSbfe2rvgHcjo7OxKQUBsV0dN746lVz9aUryiytizVXh4aG+/reoqOzsyt2x+7CMyWtbe2uHr4MiqnM0rpx89bThkZ9Q3N2UFhLa1tPb2/Ds6aBgYHbv/+Byd3cic1OzJmuqks2RGuuQbRX9On4kw7m60k9g2Kq6RhzkwvHt19oVcApIAAITAwCI3AxCuLr3fPTVXXZiTnfHBfrG5rff/Do1atm9Hi4WHO17nE9rcNcPXxb29rzC4oZFHNrGK+7uyftwGEGxbx2vfZZYxPi3/DImN6+viPHslFZcS420l9xfNvhcI+I49sOAxfTEIZTQOB7QmCMXKyxyJKzOyc6qyr8YLmdz7ZJU1gMijlpCmvFhq1hB85FZ1UFJuXNN1yNkNIzcQzaczo6qyry0AXHzXGU8hyM4Odysb6hec3la0/qn6LxprWd850/7g7/+3fnj7vWds429i4Nz5pO5ZxGVYgGpLW37/xxV0N7Ma50zAIaF+/ek1J96Up3dw83JBq5ksjFH+ciCs+UPH/x0tzKvryiCg2KGRTzwcO6J/VPlVlaaLy8LyWDL0hAfsS5+KepsyZRrOkzNNNDU4CLx9xxUBAQUHwExsLFTM3FQXvynQJ3TlZSnbd4JXdfkeX6LQyKaWzvszXlzALTtZOVVG29eFv2FqjON2JqLt6y5/RK99BJU1jzl6wK3l9Mzg5/Fhe7evheu17b1t7ODgpDRHbnj7tPGxodnNwdnNyfv3h57Xotg2KWV1S9ePnK3MoeD0iTUw5K6wk1HePQtBLekWp8ePFFo1eJB+Liy1eu9/f379mXjm0u1lx92tCI54vxXIqrh2/zm5ai4tK29nY0KGZQzKTktP7+/nv3HwaH8hAjYz/iXIwuARdjiEAABL5XBMbCxcb2PoFJeTPnLkKgOPjG+MUe+3mauifvkGvIXqRUYs4ztvfB76AmK6mqzjearbvcP07oxInHaH4GF79puVF7u7OzC49GAzghePaWQTEzs4SvXzfbO27w9gvq7OxCX/zzC4rRyBTX+CWCbwC3t69veHh4aGi48EwJdkWbLy4rr8SXysorh4aGnz59hieFGRSTsyXswcO6oaHh7u6eAxlHsDFwMYYCBEDgR0NgLFxMowx0qqa9jL3zFMmzCMpJU1h2PtvCDpxj7zzlycsISS0hbUbPxf/888/ff//9+nWzo/NG5DkxKWVwcPAf4q+v761vABfNydbXN9g7bnj+4iWasZXWr0rMeaaO/itcuPgwWOEqzRhxcfWlK7l5hT29veGRMchS2hwFg2J6+wW1t3cczDwq7lPf0Lz03IX+/n70MhCtoxB/d8egmDAuFkcPNIDAd4bAWLjY1NE/aM9pPC5e5R4aEJ89dYaWF/+wU+BOBNBkJVWW5hJKeY6OkS13X+H8JauQXmQzpnFxT29vQmLy69fN9x88QmPM0Ah+Z2eXIC5RvEtiYnd1dXWXlVe2tLZ5+nDEDbBmhvoi15BkT14GPmw8o/BVmoDXUegbmj+qe4KngGVwsY29S2PTc8y2VqvXXr5yPWlvKvKsZ2DS8KzpYs1VdEp7yOHagYsxFCAAAt8rAmPhYtX5Rlv2nF6xYeukKayZGgac3Tl2PjwGxbRyCwneX6yx0IJBMZdYu3P3FWrqr1hgujYktQQNNheYrg1NG+O4GK1p44ZEd3f3oJVkegYm9fUNDx7WoanhpL2pRcWl+J3Y3XsPBgYGyiuqxrHnMBczKGZwKK+npxfNVIyei5VZWnf+uPv6dbOLm2hJdUS0oLu7R8Y6ChQ8cPE4diK4AgQUE4ERuNjciY1faiEBrT9baOa0NaU47MC5yEMXNoQmo6URlPKcdUG7Ig9dCDtQFppWuszOi0Exf56m7hS4M+rwb5GHLgQm5XF256A5ZX0L54iMctI5OV6mgUWuL05KTnv37v2vuQUMiukTwH3W2DQ4NPT+fX9PTy8ebzIoZmp6Znd3z9Yw0UNivA6Si9EyiZ6e3uBQ3sWaq8RMyT+Dg4N4IEwbFzMoJlr7MTQ03N/fPzAwUFVdg6eSYVw8Xj0FfgCBbw6BEbhYdntUZi8gF6ghY0p5zkwNA7TKDRenlOeozF6AT8dXMLGwJX/hhpxfu157994D2kKF8a33S7xpaC92dvWihSeNi6VV9PXWfUurEfSAACDwlRD4Ii7+SjF9oVsTC9vjJ3K6u3tiYnd9oasJLo6+hURklI/mp3ROnHjekepRGk9wQ6A6QAAQ+FwEvkMuLiuvfNPSmpJ26HOxAHtAABAABOSFwHfIxfKCEuoFBAABQGDMCAAXj9ubvTH3ARQEBAABQAC4GLgYEAAEAAH5IwBcLP8+gBEBIAAIAALAxcDFgAAgAAjIHwHgYvn3AYwIAAFAABAALv6BuFiJOQ/vnPe1P/ooHZ9rSPIM9U/7+cmoUWLuPpbmEpXZejJKwSVA4HtCYAQuVpB8d98T4p/VFmt2ZNCxIpa24WeVkmhMKc/xiEwX3/nIaf0mEwtbXITM3UfqGRTT1cNXmJ27e08K+tG2vqG5h+dmcpN+p/Wb8A8gnTjxnN05po7+Ssx52DkSRpm7z3CVu2/s0a/3c01aVHAKCMgXgRG4WEHy3ckXI1rtNkH89ds/bdNMuzTup3bBMaF5F1R1jb7cs+PmOPew/bTfpju7erW1t9+ovY39472Y3759NzAwcP7Cb+iH2qdyTg8MDDQ2Pe/o6ES7SKN9ojOzhKisjb1Lc/ObgqJP2zo7ceLFd+X/3Nx9EmPGoYIACHxPCIzAxaipX2/fg1HuX6xQiHskZgQeKZyYkMaLi9W0l3F25+gaO9DCTk3PHBwcbGltw7tCk3vO7dmX3tPbK4hLJPP1oa3m6usbjExXPap7gnmcL0jo6urG+aLEuXgMufukhU1rBZwCAt8BAmPk4gnOd5eZJbx778HN2t+Hh4cHBwfLyivRYM3Fzae+vuHDhw9DQ8M3am/rG5qHR8bUPa53dN7oG8C9/+CRo/NGbkj004ZGD8/NX95b1uxIXumVmPIbMRW3eKVXeKVXrNmRDIpJqczdsCM15sLN2MrbobnlepaODIo5f/nqoGNFzvw9/LLrsZW3A48Wqi8yFX3Tj93vl34SBbNsvW/wyXPzl6+2ZkeG51Xwzl7ml10PPFooqLgdfPKcqq6RXXBMVNHFrdmlsZW3eaVXVwVEoIKzdJb6HzgpqLgtqLjtf+DkLJ2lSG/NjgzIyPHYeTDmwk1Bxe2VAeFIb74u0D/+xNQZoiR75HGj9vbdew+am9/gNFQkF6OhrjA7t6CohMzDHcAJOXDoiJ6ByYmT/83Pfe58xcc0V3haQ5yLx5a7zz0iTcYGfmRbQAYEvmkExsLFcsl319/fn5kl1NBenJkl7O3r4wsS9A3NnzY0ov2LXdx8Xr9uvlhz1dnV6/mLl3xBQmaW8N2794lJKanpmU8bGjFH0Hrrs/LdobLi42Kn6MSoM5cM7NwolbkbkzJDc8tVdY10zOx5Zy977c2aqamvY2YfUVDlItjPoJhkcVN3TmRRtY6ZvV1wTHB2yeyFy4Ozz/qkCHXM7MPzK0zdOXbBMdvP31jhGzJ1pqZT1C7e2cuLVrtMVprlf+DkFmHx7IXLRUVOnvNO/pQ3xC44Jva3333TshdaO+taOmCOdo9Iw+mvMAKOzhtfv25OTc/88+59vJ89ycV4XEwqcXGUTrCjo1MQl4g2xSd3ixbnYlTwc/ditvXehjJ4kfWCDAh8fwiMhYvlk++u+Q3K6YmmOI8JT/EFCR0dnaERfNQrR45lt7S2bfRiP6p7kpklvHHzVktrW0FRSUFRCf4ePS79R5Ipg2KqzF0YfPKcU/Sn9CLay20iCqpW+IbomNlHFlWbun/KKuKdcpx9OF8GF6N5j8AjhR6JGaq6RsHZZxEX4/ni2QuMw/Mq7IJjdC0dIgqrsGdrdmRobvnsBcYfk0zbBceE51UgmWwsLZ0KupSccrC5+Y2zq1dmlvDVq2YEL54vfvfu/eDgINqeH3NxcCjvjz/v3X/wqPrSFRMLW0TB585XBHBC2trbyRwr48XFn7uPKNlqkAGBbwiBsXAx7fZAp1873x3+joy/OCcmpXR0dKIEdwyKiU+rqmtqLl978LCu+GzZvXsPb9b+firntLQu+ax8d8gJjYtVdY1C8y7YBX/KfYdPaVyMS2GBQTHJcfGIXIw8u8WnmbpzYi7cjKu6gw9e6RUdM1Hea2nzyxK5+Nr12uY3LTl5hWXllT09onlhBsXEOa1Lyy7geeSLNVef1D9VZmm5uPlkn8q7WHP1+YuXiLsLikoanjX9mluAOwihBFws7SMHekBAIgJj4WK55LvDtzrm4vhde7u6uvG4ODU9s6293cNzc2aW8MXLV4+f1EdEC541Nj1rbIrfJXXZw2flu0MIkmTKoJgsbcOQnPN4XDx3sUV4foU1O3LcuRiPi/VtXCOLqo2cvcV7dPRcbGPv8upV87PGpvsPHt1/8Ki7uwfNMOAhsKPzxpbWNpS5NTNL2NnZ5e0XhGpMTEppbHqOuDg0gv+mpbWx6Tme5UA2wMXivQMaQEAGAmPhYjnmu2NQTMzF5lb2jU3PL12+qqG92NzKvu5x/Z0/7iqztEIj+G/fvrtx85aegcnjJ/UvXr5ydhVlexqvwyk6Mfz0b5qGK7BD19j9ITnnNZZYTlaa5RS1K6Kwav7y1dK4eG3kzojTlZqGKyYrzXKNS+GViIa0dsEx0sbF/LLrxi7+DIrpELaDV3LFcM1GJda8oGNF7MP5MzX1GRTTbGPgOt7uyUqzZIyL1wTEevL+Z0Nn9DUigBOCWlFQVILevGEuRkmk0NDYxt7l5cvXCGplltbpwrN4TsPEwvb5i5eDQ0P47R9yOF5c7MSJp0WOYQcBEPieEBiBixUw3x3mYgbFZAeFtbS2ocRx9fUNaGGWveOG5jctx4SnGBTz3PkK9OV6HPtMfZHp1lNlMRW3YipubUrKYlDMaao6PinCmAs3+WXXo4trTDYEMCimNC7Gxbefv8HOzIs4XSmbiyNOV0YUVMWU3xBcqMWjbx1TW+6Js4ILtahGs42BqIHSxsVLVrqxE3Nw6m40F/Go7glO8oSTapNc7OnDaW/vQDM8COqhoeGBgYHu7h4yteC58xVt7e20B964cPHP09R9Y49auX16YIxjJ4IrQEDREBiBi2WHqyD57mzsXaQtk5Ad/5dcnaNvpjJ3IelhmqoOWrVGKqXJLG3Daao60q6K69UXmYrbq8xdOEffTNxYXKPEnOcXd9xkjWh8/SWHjb0LmpoY0Yk0LpZWUOIadl1jB3Zijur8cfipi7R6QQ8IKAgCX8TFCtIGCGM0CBhYuvjHCSfsJ8UoHV9oWomajmiBh+xDYu4+SnnOpuiDluu5ssvCVUDg+0AAuHgEmvg+uhm1wmztZgd/wbfSIvN1gfa+fNqPtr+V4CFOQOBzEQAu/oG4+HM/HGAPCAACE4YAcDFwMSAACAAC8kcAuFj+fTBhD16oCBAABBQWAeBi4GJAABAABOSPAHCx/PtAYR/UEBggAAhMGALAxcDFgAAgAAjIHwHgYvn3wYQ9eMeloumzdCYmDd3UGVpr2fGevAzxvFDiDcH7ipDGP09Tn7vAHFbFicMFGgVEYAQu/iby3Xl4bo7dsRv/nHc0KJeVV/5+58/RWH7rNixtw6BjRWjP+y9vi8rsBf5xwmV2/7O/h76huYubD8ZfQ3vxxx9P+wZwfQO4bpv8sf7jBhca2osTk1KE2bl4myEbexecIg8ZePpw0K8oUc6XDaHJBitcceSTKNZ8rSWOli562ssmUSysR/vteW/PIhM7TVHR2Bh1AH4tglECQZERGIGLv4l8dxWV1a9eNVutXjt6oMldF0ZfarwsVeYu9Nh1EG1bMV4+pfnBe3hKMxi9/udp6huj0u18eLQiBUUlHzc7xhvm+QZwe/v63r/v7+t729/f39Laxg4KY1BMR+eNL16+6untbXjWNDAwUFVdo8zSOnIsu6OjE2ddSUxK6e7uQa7E829RSmoxfjHHtx1OYMdnbz8a6yeglNTIYMR/eD1Hz5SdmPMfseRSZCmQAQFFQGAELkYhStwrYFyiF7/fxsXtiE7ky8XjyI8jtnQc69I1duDszlHTXkZWqmdg8rSh8e+//0a7azIopm8At6OjMzEphUEx9Q3NH9U9uXvvgTJL69r12qcNjSiHdEzsrp7e3uSUgwGckK6u7tT0TOSTTNQk/tlYZbzmUET6rH/38dCaa3CUl7nKeA0ZjDgXi/a3843xiEqHmQoSKJAVEIExcvFE5ruTkcLu9zt/9vW97et7W1/fgMfF0pLj+QRwnzU2ffjwobu751ljU93jetQfwaG85jctHz58+Ouvv1Amvf2pGX/eva9nYBK/a+/vd/7UMzBJSk578LDOcpUokd0XHn7pJ3mlVwUVt7eX3eCVXgnPq5i/fLXo6/kSy6BjRbGVt2MqbnmnHEc7AaH8dT4pxwUVt2Mu3HSN3T9ZaRZt2gEl0GNpG3KyTof8WiaoFOXKiyyqjqm4ZRccg7iYk5WP0u6xD+fjxEs6prZbhMWiGi/c9Nh5EO895Bq732PXQZRPj192fYmDB2qyEyfePSKN1vzQCH5rW/u167X19Q16BiY0Lv6Y90SYLcqJFxef1NbefuJkLiquZ2By4NCRAE6IMkvrUd0TtPcx2n7z3PkKZCPOxQt1TEwMVqGrKjO1DoSl2po5kfFI5GIdI9ugPfnquqLY4AAEFBaBsXDxBOe7k5HCzmn9Jt8AblFxKd5pHt384snx9AxM6usbntQ/dXBy9/ThvH7djLjY1cO3ta0d7cwbHhnT1dV9Kud0aAT/1atmD8/Npecu9PT2BnBCCopK/rx7X1ovoq1teEeq0RGRUa5v4SzNmEExxceq01R1tgiL0ZbEGkssQ3PLPRIz0H7E/LLr1uwoSmWuNTuKV3JlqZMXrTja216UlunkOWt21Er/cF7JFQN79w07UgOPFGIunqWzdP7y1aG55Sg53kxN/a3Zpd4px2dq6i+0Xh9RWLU2cieK2SMxQ1Bx2y0+Tc/SUW/FWsTRU2doBcRnr3IPpbUrv6D4aUNjXMKe1rZ2tBuyxHFxUHAEHiyLe3j+4qW5lT3etxMZiHMxWdByqW1WdIbWXANSKZGLWZpLgvacNlz16YlC2oMMCCgOAmPh4gnOd4eGTjJS2KGRF97LkTzFyfHYQWFdXd141108R5GZJWxpbcN775ZXVDU8awoIDH3W2BSXsOfBw7r29o7U9MwbtbcLikrGq9toZMqgmEudvCKLqvVtPr2kWh3EC8+vmLvYgtyPWJQx5PRvNkF8WvH/cvG/KfJoeZtoxg6hcSiBnqk7J6KwStfSATXKRbA/8Ggh2pBe5PD/ZNxkicyInnAFRSUmFrZNz1+gYS85XzwwMPD6dbPPv+/xMBeXlJajZCIJickMihkawe/o6OQLEk6czEWkjCqVWCO6NE9zcVZ0htOKDTg8JEjkYhl+aMXhFBCQIwJj4eKJz3cnO4UdSb74SzGiZrzxPM6Gh7DGXCyt7P0Hj4rPltU9rq+orL585fqjuieYx8V7S8fIdoULFx/mzoEzNf5nvEYrQuNHMvEdsiT5FOcexaWwgIw/i4vtgmOiiy/NX77aLjgGp8tDAq4IOaTFLJHRtobxurt7LtZczckrfNrQiOaFfQO4nZ1dWUdPRPJi29rb0TwyUiIM9+xLz8krbH7TIswWTVmgBKaFZ0rwZAWqWmKNDIo5Y+a81JB9HOct5DoKVAS4mNZrcPoNITAWLp74fHeyU9hJ41MyIZO0cfEx4SkyJwVONXTufMWzxqY/797fmbgPJc3Dy7DEe9fU0d+Tl4EPj4hUjUWW4mZYQyNTBsVc7uoXVXQRj4tX+IaEn/5Na9kqclyMS2EBOfwsLsbj4hW+IREFVdrLbXBUWBg9F584mdvT24sGuQ3Pmjo6Or39gsg5ivyCYpSlCc0Fo5R6qKK6x/WIixkUs6Co5MXLVy2tbeiNHzKQyMWIiLe4cH+aKsopRTuAi2mAwOk3hMBYuHji893JTmE3Gi5G36Z/v/OnvqG5uZV9w7NP7+48fTht7e15+UUoyXHzm5ay8koGxUxNzxwcHPyY5NjZ1QtlMkUvpsala5VY87jCs977j6M5AQbFnKmpH5xdsjEpk1KZO1NTP/BIgf+Bk5OVZknkYpTvDhWfpbN0a3YpmhcOlj5H4Zd+EqUdCck575eWzaCY6otMw/MrUI2iirjbrTlRqHUSuZhBMT15h9YExGIEyNduDIrp7OrV0tqWmSUkuRhNx6Oh8YmTuZ2dXeGRooTZLm4+b1paMRfzBQn9/f2tbe0oSxaqQpyLKSW1WD+B+FI2HJJELhatAtpbsMD0M5Y8YocgAAIThsAIXKwg+e6kpbCre1z/D/HX1/fWN4BLUjOeo2BQTG5IdFdX98DAwPv3otser6NISEzu6el9/75/cHCw9tYdtOiKHRTW0dGJEkj/efd+zeVr49slpu5sftn1mPIbMeU3zDaJ8ivrWTqG51dsLxNpgo4VoXRNErn43zkNUfHt52/wSq8GZOTI5uKt2aVbhMWiuipuhfxaNs/YGrVliYNH+OnfYspvbC+7EZ5fsdB6PdJL42IrtxDf2KM/T1NHZgGcEDwFjDQ3am/fvfeA9pqurLwSvVlVZmmdv/Db4NBQf3//0NBw7a075lb2qCAaNd+ovY1O0X9xLrY1czqzK7c4MQ8f6aEp02do4lISudhwlQdn168TltAEBwMCIPBZCIzAxbJ9KUi+O9lB0q7aO27Q0F5MU6JfIiAWFr/0lTSUylzNpSsplbmkf1VdI1oaPfIqKU9WmjV7gTEeWZOXJMrS0vGp6hqp6o4qoZzqfCN2Yo7ul/1uQkN7sdsmf4ldQAtbnItpBuKn4lw8aQrLI1LC71PEy4IGEJAvAl/ExfINHWqfeAQs13M3RR+klOdMQNWIi3lHqsmfNUurV03HODStRNzYYIWrX9xxGBRLww30ioMAcDH9/Y/i9I0CRjJpCsvel2++LlABYxMPSWW2nntE2hw9U/FLoAEEFA0B4GLgYkAAEAAE5I8AcLH8+0DRns8QDyAACEw8AsDFwMWAACAACMgfAeBi+ffBxD+BoUZAABBQNASAi4GLAQFAABCQPwLAxfLvA0V7PkM8gAAgMPEIABf/QFysxJwne9Oicfz8oT06XEOSZ6gvGtEtMqbt48HSXDIxifVGDA8MAIEJQGAELv4m8t1NAEzyqsKaHRl0rIilbfjlAVDKczwi08nUnMin0/pNKL8cOrWxd0Gp6nwDuKSeQTFdPXyF2bm796SgHyjqG5p7eG4mf0HntH4TTl7nxInn7M4xdfRXYs7DwU+drm61zG71cscZM/+rZFBMHSNbG6/okJSz5L7PhqvcfWOPws80MHogfN8IjMDF30S+uwnuIZsg/vrteyemUnI/ii+s0XFznHvYflqqIbS/M7kRxMWaq0NDw319b9++fTcwMHD+wm8oeeipnNMDAwONTc87Ojo7O7u4IdHefkGdnV2ZWUIUGNr6A+/yLP5z5GX6K04Jju/j7knmJp0SHF9usJJskcQ8XhJjJkuBDAh8NwiMwMWonRLvk3GBYAx7DoxLvV/iRNrWOV/iU1rZ8eJiNe1lnN0StpJA29GhbS1RDHhnZwbF3LMvvae3VxCXiPYpTjtwmEExlVlad/64W1/fYGS66lHdE8zjfEFCV1c3X5CA/NC4+GcltaSgxBB3URJSUR4mx81JQYk/E5lDJX7GpIUtDS7QAwLfLgJj5OKJzHdntXrto7onr141//33389fvOzs7BoaGkbbLbKDwpqev/jw4cPw8PCdP+5a24kyGxWfLXva0Ih2X+SGRL961Xz8RM649JA1O5JXegVteMYrvcIrvYJy3VMqczfsSI25cDO28nZobrmepSgt3vzlq4OOFTnz96BEc4FHC9HWayg9HYpn2Xrf4JPn5i9fbc2ODM+r4J29zC+7Hni0UFAhylmnqmtkFxwTVXRxa3ZpbOVtXunVVQERqOAsnaUoH52g4rb/gZM4hR3Kj+ex82DMhZuCitsrA8KRvfm6QP/4E1NnaNFwQDurNTe/SU45iC6RXIx3uSsoKiGzWAVwQg4cOqJnYHLipCiXHdq2n0wbyqCYNC6eRLFmqepMnf5pj7cN1ptSQ/ZPU9bA8UjkYgbFdI9Ic+LEYzMQAIHvFYGxcPEE57uzsXd5/ovMTu0AACAASURBVOJlZpbwYObR3r6+iGhBeUVV3eN6EwvbZ41NV67e0NBejPbDRWkr9Q3N7z94dOePu8tMrR/VPbn/4JGMDdjwnjI4W92IO9GIj4udohOjzlwysHOjVOZuTMoMzS1X1TXSMbPnnb3stTdrpqa+jpl9REGVi2A/g2KSxcn8HcHZJbMXLg/OPuuTItQxsw/PrzB159gFx2w/f2OFb8jUmZpOUbt4Zy8vWu0yWWmW/4GTW4TFsxcuFxU5eQ6lsEP58WJ/+903LXuhtbOupQPmaPeINNcQ+ryKo/PG16+bU9Mz/7x7H2X/ZFBMkovxuJhUknfC1jBeR0enIC4R5eYgt4qncTEq9dPUWbPV9EwMVh3jZdIyJEnjYlvvbX6xx/BGnWTtIAMC3xMCY+HiCc53Z2Pv0tj0PDEpBedJEmbn4t2HlVlabpv8fQO4tbfuYCXaffj16+ZXr5rJ7cnHpedIMv2Y0kll7sLgk+ecohORc+3lNhEFVSt8Q3TM7COLqk3dOUjvnXKcfThfBhcHHilkUMzAI4UeiRmiRKL/bgxPzlHMXmAcnldhFxyja+kQUViFPVuzI0Nzy2cvMEZcHJ5XgWSysV78w+Kjy+SUg83Nb5xdvTKzhK9eNaPhLZ4vfvfu/eDgYFFxqTJLC3NxcCjvjz/v3X/wqPrSFRMLW0TB585XBHBC2trbBXGfQBAfF6NgZqvpHQxPzYkTZkSkzddaQkYojYtpCb3IIiADAt8TAmPhYtrtgU7VtJexd54Sv+EnTWHZ+WwLO3COvfOUJy8jJLWEtBnNfLEMLj4mPNXX97a1rf3+g0ft7R2Yiz9mRTtxMndwaOjQ4eOye0uJOc/U0R+nqlvhwjVY8SkBqLSCNC6mZTzCpzQuxqWwQKa5swuOGZGLkWe3+DRTd07MhZtktjpe6RUdM9G+7CR3k/FL5OJr12ub37Tk5BWWlVf29IjmhdG4+GlDo28At7TsAp5Hvlhz9Un9U5T6JPtU3sWaq89fvETc/TH1ScOzpl9zC/BkBapX4rgYXZpEsba4cPdsScJTFgyKCVxM9hfIPyACY+HiCc53J42LPTw3t7W3H8w8iroNj93Q6qs3La3Nb1pGHBfPUF/kGpKMU9V58jLEV33RPhYkmTIoJkvbMCTnPB4Xi7I151dYsyPHnYvxuFjfxjWyqNrI2ZsW2GdxsY29y6tXzc8am1C2uu7uHjTDgGF0dN7Y0tqG0iNlZgk7O7twxr/EpJTGpueIi0Mj+G9aWhubnuNZDhQVjYt/VlKzWmY39//WGi/XX3mEd2iO+kLcBOBiDAUIPyYCY+HiCc53J42Lvf2Curt78vKLGBSTsyUMp01C88X3HzyytnN+VPfkzh930aqs8epgp+jE8NO/aRquwA5dY/eH5JzXWGI5WWmWU9SuiMKq+ctXS+PitZE7I05XahqumKw0yzUuhVciGtLKGBfzy64bu/gzKKZD2A5eyRXDNRtRvjv24fyZmvoMimm2MXAdbzdK8CFtXLwmINaTdwgHzKCYaMIngBOClDjpKuZiBsUsPFOChsY29i4vX76+dPmqhvZiZZbW6cKzeE4DpUcaHBrCb/+QQ3Eu3sXZGeER8dPUWZ81LnbixNMiJ1sBMiDw3SAwAhcrQr47aVyMyGJoaHhwcLCnp/dZY1PDsyYj01XlFVWdnV2ePqKJWm5IdGdn16+5BePYYeqLTLeeKoupuBVTcWtTUhaDYk5T1fFJEcZcuMkvux5dXGOyIUD0+4X/nS/Go2lcfPv5G+zMvIjTlbK5OOJ0ZURBVUz5DcGFWjz61jG15Z44K7hQi2o02/hpc3dpXLxkpRs7MWfm3P/+BO5izdVHdU/wUyo0gt/Z2SWISyS52NOH097ecSrnNINisoPCWlrbhoaGBwYGurt7kvamYkjPna8gc2kjPY2LP3aWxhz9jPC0vB3ZOXHCzMiDetrLsAdpcxQ/T1P3jT1q5fbpgUHagwwIfGcIjMDFslurCPnuNLQXO7t6YU6RHfA4Xp2jb0ZLTCctoZzESlnahtNUdSRekqhUX2Qqbq8yd+EcfTOJ9jSlEnOeX9xxkzWi8fWXHDb2LmhqYkQn4lyMikyfoUlmC8V+JM5R6Bo7sBNzVOePKh0fdgUCIPAtIvBFXPwtNviHjdnA0sU/TjhhPyl24sTzjlSHppWo6YgWeMg+kHFERjn5G2hKec6m6IOW67myy8JVQOD7QAC4eASa+D66GbXCbO1mB3/Bt9Ii83WB9r582o+2v5XgIU5A4HMRAC7+gbj4cz8cYA8IAAIThgBwMXAxIAAIAALyRwC4WP59MGEPXqgIEAAEFBYB4GLgYkAAEAAE5I8AcLH8+0BhH9QQGCAACEwYAsDFwMWAACAACMgfAeBi+ffBOD54p87QWsuOH82uGqhSG88oT17GKLPSjWOc4AoQAARoCIzAxd9Nvjur1Wvr6xtwQiAaChN/qm9o7uLmg38uiHf+9A3gevpwyCRyyiytqG1xJ3/NDw7lIXsbexecVk7022LtxZ4+HJSbDu17tyE0WeJuc9NnaM5S1ZlEsXB7DVa4OnHig/efGc0vMnApEAABQGDcERiBi7+bfHc4RcW4Izg2hwVFJR83CA6N4KPiKLz+/v6+vrfv3/f39PQmJCYzKKa+ofm9+w/fv+9/+vTZ+/f99+4/1Dc0P3Isu6Oj08NzMyqbmJTS3d2DXMnYg3TGzHkHwlPTQ1NoP0HWt3DmJhcCF4+tH6EUIDBeCIzAxagaiXsFjEsEMrhjXPxjJwrFxXoGJk8bGv/++2+0IyWDYpLhKbO0Ll2++uLlK3Mr+/yC4ta2dlcPXwbF9PThdHZ25RcUB3BCurq6U9MzUevI5EbS8ERbo/0aJwQuxh8JEAABhUJgjFysIPnurO2c7/xxd/jfP5TvTlpyPER2Dx89fv++/8OHDw8e1qHkeAyK6RPAfdrQ+OHDh8HBwarqGpyQqay8svrSFeS/v78/alvcePVcaAS/ta392vXa+voGPQMTGhfjDS23bY9veNZE7gu8Z186X5CgzNJ6VPcE6dGWlSi5FINiSuPi5QYrD4an+q7ZDFw8Xp0IfgCB8UVgLFysIPnuUELipw2NDk7uDk7uz1+8vHa9VlpyPMzF1nbOnj6c16+br12vZVBMcyv7pucvbtTeNreyDw7ltbd34LHqxZqrw8PDFZXV7KAwzpYwzNHiHYC2tsEZ82h73Ijb5xcUP21ojEvY09rWjnYQljguDo3Y1tz8BmVZpTnJLyh+/uKluZU93usSGUjk4ukzNPdx96yxWO9gvh64mIYknAICCoLAWLhYQfLdBXBCOjo6E5NSEJSZWcLXr5u3xSRITI5Hkt3HZBynck6jnEC0LdXPna9AyYRQtiEsj2Nv6RmY1Nc3FBSVmFjYNj1/ceJkLh4Xo/ni/v7+7u4eviCBjPmY8BRKwHFMeIpBMUMj+B0dnXxBwomTuYiUUYQSuXizc+AO/zhKSQ24eBz7EVwBAuOLwFi4WEHy3SUmpQwODv5D/PX1vd27L300XCzMzu3p6fX04QizcwkHIhHnbSN3VZcNuo6RLZkxz9w5cKaGgbQiW8N43d09F2uu5uQVPm1ovHvvgTJLC9FuUXEpOyis4VkTGrMjJdrKnS9IyMkrfFL/FE1NoKSfhWdK8GQFqk6ci/V1TTIjD5gsWTVHfaGbjVdGeJqO1lJKSQ2HB+/uMBQgAAJyRGAsXKwg+e5oX88RiNKSgJBjTHJcnJqe2d7egTO5kT0xei42dfQnM+Z5RKRqLLIkXZHyiZO5Pb29aJDb8Kypo6PT2y+IDC855WB3d8/WMB6DYv559z4ia+ThYs1VPH1cUFTy4uWrltY2/M1A4nyx9xr/7O1H0ZETJyzYmXM0OnOx3n93oAcuJnsHZEBAXgiMhYsVJN8d+rL/4GGduZUoBXLS3tSi4tJ1Lp4yxsW/3/lT39Dc0Xnj69fNv9/5k0ExUYZNnMnt+Imcw0dOoM4YPRePvvPI124Miuns6tXS2paZJSS5WN/Q/GlDIxoa70zc19PTuy8lA01t1z2ux1zMFyT09/e3trU7Om/EAYiPi/ElUcY8mC8eaVd7Ei6QAYGJRGAELlbwfHc+AdxnjU2DQ0NoTW7S3lQZ4+Km5y+eNjQODAwMDQ2/etW80YuNgI7aFtfW3j4wMNDf39/S2hYcKhqQovniusf149sZtDnuj5lDb9TevnvvwToXT/I1XWaWsKurOzA44uNQ95jw1F///g0NDdfXN7i4+aCQ0AqKG7W3yQiBi0k0QAYEviEERuBi2S1RhHx3DIppYmFL/g5NdsxoXCxuM/pMbuJlv7ZGmaXl4uYjYyEHDkA2F2MzUoA5ChINkAEBeSHwRVwsr6ChXmkIIC7mHan24h+WZkPqvfiHR5+VjiwIMiAACIwvAsDF39XeQOP74QBvgAAgMGEIABcDFwMCgAAgIH8EgIvl3wcT9uCFigABQEBhEQAuBi4GBAABQED+CAAXy78PFPZBDYEBAoDAhCEAXAxcDAgAAoCA/BEALpZ/H0zYgxcqAgQAAYVFALgYuBgQAAQAAfkjAFws/z5Q2Af1txgYS3MJpTxnAiKfob7INSTZk5dh6ug/YnUaiyw9IlJpxj9PU5+7wHzSlP+mHxzRDxh8xwiMwMXfTe7R77gLv+mmsbQNg44VWbMjx6UVBpYu/vEnVOcbkd5ov243sbD1DeCiw8behbTU0F6cmJQizM7F+/Y5rd9E2ugbmnv6cNCP0dV0jIP3n3HixOsY2WInlJKautqCOeoL0YFTC87UMDB3DuTsznHixGPjKSoaG6MOWK7nYg0IPzICI3Dxd5N7dBz7+JjwVElp+Tg6HJurhMTk6ktXUPrnsXmQVmqOvpnX3qyF1uulGYyjXlXXKDTvgl1wzJf7nKNnyk7M+Y+xA+kKbfTc8KwJ5bJiUExhdu7w8PDbt+/6+t4ODg7W3rqDuNXReeOLl696ensbnjUNDAxUVdcos7TKK6o+5ovBIJ84mdvW3u7s6sWgmBKTQK4yXlO4M6c4MQ8dgf/Ls178wyQXMyimxJjJ+EH+cRAYgYsREBI/duOC0Rj2shmXer/EydfYS3MM8Qizc/G292MoLqOIjpl9ZFG1qTtHhs14XRpHLnbwjfGISqd95Q+N4CPaRftBIy7GuAWHivb1P3Is++MOU9eu1z5taES8HBO7q6e3NznlIJljG20n/efd+6jtEm8KB/P1+4L3Tp2uLhEfcS4WbWQqKWyJxUH5fSMwRi6eyNyjqAMys4R37z2oqq4ZHBwcHh4+cOjIx3tDPPcog2Iqs7Ty8ov++uuvDx8+PG1obH7TErtjt9XqtfX1DZlZQuStrLwS7V8sLfeoMkvrbMn59+/7//nnn+7ungMZouoys4R9fW/Rrpt9fW/7+t5ihxI/JRKzmmpoLy6vqBocHPzw4UNz8xt2UBiDYkoLD7X6Zu3vw8PDg4ODZeWVyiyt2B27Ozu7+vv78fiurLxSYgCfq0QzBttKrwoqb/PLrvNKrwQdK2JpGzIo5kLr9WG5F2J/+337+RuusfsnK81iUEzX2P0bkzIDjxbG/mtvE8RnUMz5y1cHnzy3bL0odzWDYvqln3SN3T9/+eqtp8rCci8IKm8HHSvilV7ll11f7uqHuJiTlc8vux5beZt9OH+WzlJU0Mo/LOrMpbiqO1FnLln5i1D6mASApW3IzsxbExYfnl8R+9vvwdlnp8/W/bSJ/q5TxvafNhTFDS8oKml41vSssQmnMaQ9w9CW0M6uXm3t7SjfFYNi6hmYHDh0JIATgvaVRnoPz80dHZ24xyVy8eZ1gQns/85C4DCQIJGLdYxsg/bkq+uKUtDC8SMjMBYunuDco6h7hNm5Hz58uHX7D25IdAAnxNrOWWLuUQbFTE45+O7d+6PHT2poL87LL+rv709MSiE3ayf3JpaWezQ55WBHR2dEtECZpXW68GxnZxeeQxzluJj0zNkS1tLahhiz8ExJd3dPeGSMhvbiS5evojGatPCE2bn9/f2ZWUIN7cWZWcLevj6+IAEDgsd3Mj7BeOc2nBqVnZgzXVXEX9IO8XGxpuGKiNOVG5MyKZW5BnZuUUUXHUJFWbE9EjOizlxatt6PUpm7fvveqKKLWstW0YoHHin0SMzQMbOPOF251MnLmb8norBqnrF1wMFfPRIzMBfP0lk6f/nq0Nxy7+SjDIpptM47uviSTdA2SmWufUhs1JlLi1aL5naRPe/s5ZUB4Tpm9jrmn2YkdIxsucmFWgZWZKNwasFz5yse1T1RZmlJGxf7BnDJ3Imkk2vXa1FqFVoKGIlczHXdekpwvGBnzplduTvZCTNmziNdSeRiluaSoD2nDVd5kJYg/4AIjIWLJzj3KOoVYXbum5ZWe8cNuJNo+7Kj3KP2jhsu1lzFOUPxPSaN7KTlHk1OOdjV1b1r935llpaG9mIPz814++BRcnH8rr1dXd2hEaKhIoNi8gUJe/alow3gC4pKkNLbL6i9vSM1PVNaeOQgDo3dUO5RGqdgTMZFoJGp6PsHOzI8v2LuYgvkf8OOVK7wrBJrnkdiRuCRQqTUt3GNKrq43NWPVhxzcWjeBR0ze7vgmNC8C6q6Rh6JGZiL8XyxQ2gcvsrJOo1G3ypzFwafPIfYH3ExksnGStyFeWsYr7WtPTSCzxck4JTbeL747dt3Q0PDV67e0Dc0x58TBsUsKS1HGbASEpMZFDM1PbOtvd3Dc/PFmqtkviuJXLx6ueMG602UktpCbePj2w6HuH8azqNQJXLxtzhNRyIP8nghMBYunuDco6ipJCshjcTco74BXDIREb7HZJCdxNyjyiytX3MLurt7BoeGmp6/2C7YiREfJRcfE57q7evzDfift+S0MPApFlAtuAqy1TQb8hKOTVz4eZq6ka0nmRrVyNbz52mSJzRRcRqZMigmJlBkgE9JLsalsICMP4uL7YJjoosvzV++OvBIYVzVHfLwSBQlmkJcjLkbt1ciF+cXFHd39xSeKSkqLsXzwsLs3JbWtvDImOPCX3FeQd8AbmdnV9LeVAbF3LMvPSevsPlNizBblKLb2dWr+U3LMeGp5uY3eBJD2rs7HA+DYm6w3pQasn+asgZWAhdjKEAQR2AsXDzBuUdR0OLUIzH36MevtzWXr41+XEz74okBsrF3QblCTCxsz52v6OntxS9/MFFiY4lCYlJKZ2cXmg5mUEzk0Gr12tevm/G4WGK+O3IKhWz12Lh46gyttex4MjXqWnb81Bmib+vSDhqZioIP4oef/g2Pi52iE4NPnlOZu3DcuRiPi71Tjgcc/BWNi8k4R8/FKLXgq1fNaJDb0tqGRrUYUjSDgfIKou8r5RVVuK66x/WIi1EerCf1T/HIGtmIj4t/mT7HevkaJksbGThZbkgPTcHL2hgUE7gYwwuCOAJj4eIJzj2Kgsa3EG6DxNyjyiyt5JSDfX1vk5LT0Binr+9tYlIKMr5x85YyS8vazrnp+QuUy05a7tFz5yvetLSi5HJ8QUJnZxeeqC0oKmlrb3f1+PRuCsdDE5Dn6ktXlFla5lb2dY/r0W1fVl75+nWzi5sPmolub+/w9OFIC49sNY2LU9Mze3p6wyPHYTUYLfK5iy3CT//mFJ2I9fOXr44oqHKMiJ+sNEtjiWVY7gXX2P1ovhjPUWAGV19kGp5fgYrrWTpGFlWj+WIZcxR+6SenqeqoLzINyTnvlyZa1WDhtYVXesXCS/StYqamvnvCAT1LRxnjYjXtZUF7Ti8wXYtjpk1h4akGEtK0A4fx0PjEydzOzi6Ep4ubz5uWVszFmVnCv//+u76+AS+Mkzgunjpdfc+WpC0u3EkU65fpc5KCEkczRyHi9L0FZOS4CSD8UAiMwMWKkHsU9Qd5C+EeEs89itZRVFXXDA8Pv3/f39nZhbiYQTF370np7+//66+/3r59d/feA5xXVGLuUWs75z/v3h8aGn737v3AwABawIDqRQtRh4aGh4aGL1+5joMRFxCJ9/f3Dw4OPnhYZ23nzKCY+obmtbfuDA4OonypaFJSWnhkq2lcrG9ofu/+w6Eh0fqKx0/qNbQXiwcwZo1DaJzgQm1M+Q1eyZUFK51ESQU3BEQX1/DLrsdcuOmTIpymqiONi0XrtP4tvr3sRmRR9RZhsWwu3ppdukVYHFN+I6biVsivZfOMrRkUc7LSLMeI+O3nb6AafdOyZ2rqy+Din6ep+8QcWeUeipt84uT/rPlDX0GOHMsmIUXvV1FqbWWW1vkLvw0ODfX39w8NDdfeuoPyi4ua6bm5q6sbf5tBVYiPixkUU2OOfkZ4Wk6cMC8uO5GzazTv7gxXeXB2/aoyewGOHIQfE4ERuFg2KIqce1Tf0Nxq9Vo8X4waoszSsnfcgN6n05pG+3UWuqpvaI4GsDRjBsV0Wr8J/wSg7nE9Oek8ODiYmJSCi5CWWCkxBaqM8HBBmiAxbJrN2E6nqepoLLGkzRKoLzJFLDyiT0pl7uwFxiOaYQM0LsanSEDD8FHWaGzv4xd3XIn5P0sXaA5HPNXQXuy2yX80DzaJXIz8T5+hKXGJsfgcxaQpLI/IdDufT6nHRwwPDL5jBL6IixUfFxoXK37AEOGYEaCU52yMSl+xYeuYPXxWQTUd49C0Et6RatpP6SQ60bdwjsgoFzc2WOHqF3ccBsUSQfvRlN85Fzut33T12s3gUBh3SH1T9z194lVmL3APT5m74NPaOwVvmspsPfeItDl6pgoeJ4Q3MQh851w8MSBCLYAAIAAIfCECwMU/xIDxCz8lUBwQAAS+NgLAxcDFgAAgAAjIHwHgYvn3wdd+3oJ/QAAQUHwEgIuBiwEBQAAQkD8CwMXy7wPFf2JDhIAAIPC1EQAuBi4GBAABQED+CAAXy78PvvbzFvwDAoCA4iMAXAxcDAgAAoCA/BEALpZ/Hyj+ExsiBAQAga+NAHAxcDEgAAgAAvJHALhY/n3wtZ+34B8QAAQUHwHgYuBiQAAQAATkjwBwsfz7QPGf2BAhIAAIfG0EgIuBiwEBQAAQkD8CwMXy74Ov/bwF/4AAIKD4CAAXAxcDAoAAICB/BICL5d8Hiv/EhggBAUDgayMAXAxcDAgAAoCA/BEALpZ/H3zt5y34BwQAAcVHALgYuBgQAAQAAfkjAFws/z5Q/Cc2RAgIAAJfGwHgYuBiQAAQAATkjwBwsfz74Gs/b8E/IAAIKD4CwMXAxYAAIAAIyB8B4GL594HiP7EhQkAAEPjaCEwoF7sFxKH2YGE0zRuN8WhsRlMXg2LSXNFOSSe0S7RT0vKzZNIPKdOcyLhEs4RTQAAQUHwEJoKL3QLi0IHhwBoaoWA9aSnOj0iDjSUK2INsY9IMyeIhidtIC0m25WjixJ5RGLRgSP/4krhb0gxkQAAQ+CYQmAguRkCQ3IGhwUrSBiuxgBlKvKBEG1IpXlbcCdaIG9Nc4ThJBhRXSnQo7kpcQwtAogGujiZIPCUjARkQAAQUFoGJ5mJELuR/EhpSL05DMjT4EhbE3ZIaJEszRjwr2wZ7Q05IV6RMcitNT15CMsnv2C1WkjWSSixjAVuCAAgAAt8KAhPBxZgjSDIiZQwWsqSd4uJYTxMkuiJtpBmI67GGFLCMfZIaWsw0hiVPyVLIlUQNVooLOACJbrE9aQYyIAAIfBMITAQXIyBIpkAyqcE2EpUSocQcLS7Q7MV94uqkWeIiSMCn4gXxJXGBZiweJy5CWpLkjgxoZqSxtAE1soH/gAAg8K0gMAIXs+bom9l44kND15RBMX9SUjUwccTKZStcqelzZDdYIr9gbsJlSerBV0kBW0ocGKKr4swlrpFoSaudZkM6IUOi6cnAZHigXSJLiYdBVoEKYgoWL4gNQAAEAIFvCIERuPiXmfPmL7LExww1PQbFnDxllvr8ZVipoWv60y9qstuMyQuZkeQiLpMakmtoVSAz7BkJEu1pDrGf0eixDRZoVYjrSQ1pTNOTl6SFhIrQCuImYzCxBoOAHYIACAAC3wQCI3DxuLSBRijkqTjLkAwlwxKZkdSDXWEBBy+uQZdGo5doQypJWaJbbIAFiYFJ5FNURLwgDSXSgJRxRSAAAoCAgiMwEVyMIBDnCIkarJQh0BySjEySFIaeRnPkKbbBAq6XVgs2oFVBs6ddJU/HZileigwMXSVtSJmMGWRAABBQZATkw8U09sQAYR7BggwuQzbYUlwQd4s1SMBFsH40GhSSDEKnOcGnZBEs46pxSNget53UYHukxP+xQ4nGuBQIgAAgoJgITDQXI8qQhoU4j8iwJ9mHJkvzL1svXjtmQ1pB0pImk6eoFNZgAXsjNWRLkZ52FZciHwa0KqQFTJYFGRAABBQQgYnjYgVsPIQECAACgICCIABcDPu0AQKAACAgfwSAi+XfBwryWIYwAAFAQI4IABcDFwMCgAAgIH8EgIvl3wdyfBRD1YAAIKAgCAAXAxcDAoAAICB/BICL5d8HCvJYhjAAAUBAjggAFwMXAwKAACAgfwSAi//bB9Nn6ajMFm1+BAcgAAgoCAI/T1Ofu8B80hSWgsTz9cL4Wlwcu2P38xcvPX04OHRuSHR4ZAw+/XrCsvW+kUXVvNIrvNIr1uxIXJFf+kmkDDpWxNI2xHokqMxe4B8nXGbnReq9wzd4h2/Aml+Yc7QWLiCPGepaDIo5Q10LK39hfto+9CelWRp6elivtXCBqqY2MtbQ0/tJada/u4+KbGaoa02awlLX0UXG+Cqu9yelWeo6uqgIg2JOVZmtoac3VWU2MviFOUddRxd9WCdNYRmYGzn5rdEzWow12DPyj4zJ8HDxX5hzNBcswJ5RVChsBsVkacy387A1c7DABqgJZnbma70dNBcswAEzKOZsbZ213g5mduY4bIkokQ0nw0OubN1WhycFkG5HL1utXltf35CZJRx9kXGxVFdb4GC+fpn+CkpphM0Lx6U6uTjRFPSuvgAAIABJREFUNzRP2ptqbmU/+trFCWGUZaeoaGyMOmC5njtK+2/X7GtxcWJSSkdHp2/AfxG8d//hg4d1E4DUNFUd7eU2BnZu4fkVdsH/Zf85+mY6ZvbreLtD8y6o6hqRkfw8TX1jVLqdD49UMigmZ7snZ7snVtq6rT5wRvDpOCs4eiEhgLcRmWWVxyN95rk4nwi3SVNYWgsXpBfFHCz5P/szAkQrnO2eh0rjlq5czqCYVutWZpXHc7Z7zlDXSjwRmVESe+CM4GCJIK2Ab2Jjhuu1WrfyUGmc1bqVSGNmZ555Lg4HttbbIfFE5Ax1rakqs6P2cw6WCGIPBR8sEUTt50xVmU16RhEKMoJV1DTI8DLPxe05FaW9eNFsbZ29v0a5b3FGFS0yMUwp4K90XjVpCssnwi3zXFz8kdB9ubz0ohgUHktjfsKxsH25vO3p3IyS2IBtm9ADwNnPMfNc3K7jYQeLBTuPh7M05ktDSVp4KIC13g7b0//7EcKAjEawsXdpbn4jzM4djfF42Tit2PCr4HgCO/5geGpqyL4ZM+eNl2eF8rNj556ent74XXtHH5U4IYy+7Bw9U3Zizn+MHUZf5Fu0nDgunmB0VHWNQvMukFyMArALjhHnYl1jB87uHDXtZbQgOds913pL/gSs9VmzL5envXgRYhlMGRZrLNMKty9duVxr4YL9eTwzO3Nxn0cuxPtGejAoZkQyG7EqoiRU16QpLI7Aa+fx8Omz5qKyW3f5HbkQz93hg04RF6cV8HWXGDAoJuZi18B1e3+Nmq2tw6CYGnp6+/N4roHrSM9kJGR4U1Vm89O3RCSzGRTTfYvznlNRiD25O3xiM7dOVZm9wHhJSgF/tas1g2JOmsLamuCHwsMGDIq51Gr5/vxtS1cu11ywYG9OtM2G1WgovUsYjr5bcLZ7iqMkLTwU6lpvB/zIIYMfjTzxXKyutiAz8qDlUlsGxaSU1JKCdnk5+I0m1B/B5ku4mEExHXxjPKLSv++ZipG5uKy8svrSlTt/3B0eHu7v74/aFsegmD4B3KcNjR8+fBgcHKyqrtE3FDGOvqF59aUrQ0PDg4ODj5/Ud3Z2+QZw0VfFvr63fX1vf7/zJ/mxO3zkRE9v7z///PP+fX9efpEyS/R9X9ph5R8WdeZSXNWdqDOXrPzDkJmepePW7NLYytuCitv+B07O0lmKi38WFztx4t0j0nBZLMxQ18JzDliJmC45h+fCdkJKkmUwuZBkR5blbPfcJQyPO7z1P0sNdgnDdwnD8bgY876Znfn+PJ7WQtG3frV52oknIjkCr90nIhBFfvzij8bOiJ0RF6tqaccd3koyl8UaS0NLYxwPGQODYtLCCxR4b0sNQnMLSaci7TfaIUpd6byKQTGNrc3Sz8SY2VsgJ3N0dO022s7V00s8EbnWZw1S/sKcw97uabXOysHTDo3Tkd4tyDnhaNgvzDkSUZIWHvaJZoHQ6Wf9J7mYL0hobn5z4mQu+owdyDjS3d3zzz//dHf3HMg4wqCYAZyQV6+ak5I/fQbMrewfP6mvqKz+rBqN9FdkRWfMUV+IuHi79/YEdvxneWBQzMws4d17D27W/j48LLqPysorUcwubj719Q0fPnwYGhq+UXtb39A8PDKm7nG9o/NG3wDu/QePHJ03ckOinzY0enhu/txKafaGxlZ37z1ISk5TZmnV3rqTlJymZ2By797Dg5lHM7OE6F7u7OyK3bEbFfT04dTXN5wtOf/+ff+HDx+e1D91dBZ9X5RICAyKOYa26BjZBu3JV9c1oYX6PZ2OzMUXa64ODw9XVFazg8I4W8L0Dc3Nreybnr+4UXvb3Mo+OJTX3t6RX1DMoJj5BcU9vb1xCXv0Dc1rLl/r7evzDeAqs7TcNvn7BnBv3LxV97geY7c1jNfZ2ZWSdohBMVPSDvX09griEvFVmmC0zju6+JJN0DZKZa5N0Lbo4ktG67xV5i4Mzj7ruecwpTJXY4lleF6Fi2A/Ljh6Lp46QysgPnuVeyguK1tAA0M0YESWJMuQ4+J9+dvsNtrSZoE52z1DdwckHAtjb/cUZAQLMoJpXEwbF69Ya5V4IlLfzCjpVCQaZZvZmR84I/AO37A/f9siE0PExVqLFomYUWwUj8jOg7sehYGng7UWLkDh6ZsZ+UV7pBXwzRw+Ua37Fuf4I6Fs/ibcxqkqs3mpQWkFfGc/R/xworE5Bo1Eg0ExzewtknN4mgsWkHqMkrTwsLcxC5iL+YKE7u6e8ooqRGoxsbt6enqPHj+pob04+1Red3fP1jCeMkvr7r0Hd+89QDbJKQeR/rNqx1zMZGknBSXmxAnHwMXC7Nz+/v7MLKGG9uLMLGFvXx9fkKBvaP60ofHBwzpzK3sXN5/Xr5sv1lx1dvV6/uIlX5CQmSV89+59YlJKanrm04ZGEwvRwPwLjxu1t8+dr/Dw3NzZ2VV96Qquy8TC1jeAG79rb1dXd2JSCqrFN4Db09t79dpNcyt73wBuW3v7ufMV0ghhbG1haS4J2nPacJXo2+T3eoyKi5/UP0WfUYQC+roRwAlBp+fOVzypfzpn3qIn9U9rLl8jbcj54os1V8W5+PiJHA3txYivZXyG3BMOcIVnlVii2Tcl1ryVAeG6lp+mDiYrzdJculLHzN4nRRh4pBD30+i5eLqqLjsxx9xJ9A19NIfFGsvUQv5SK9GELzo42z0/zRefFRwu2+HBXS8+X5x0MlJDT7RIA81Bb93ll3kuzi3IeXs6F3Mxmi/OKIlNKeAbWhoj59wdPlt3ib7qRiSz0bAXcbGZg0XkPs7WBL+1PmsST0SSXOzgacdLDeKlBjl42iGyQ54PnBHsy99mtEo0uPg46E4r4O/ICuGlBu3L5e39NcrA/NMcOprfyDwXhwbFKIyflGa5bF6bUsDPKo+P2MueMVtztFz8f2N8iShJCw9jO2YBcXFFZXV3d09VdQ3+AF+sufqo7gk6NbGwff7i5amc0wyKKYhL7O7uQQOCa9drMS+PPgDExY6WLsd4mW42XkHruWPj4ubmNzb2LgyK6ezq1dbefkx4ii9I6OjoDI3go2COHMtuaW3b6MV+VPckM0t44+atlta2gqKSgqKSG7W3pQU8dYbWWna8Jy8DHa4hyTPURTNsEo9TOaf/vHs/NT2zvb3jwcO6qG1xjU3PnV0/vdn2DeB2dHSSXEye3qi9/eBhnTJLSyIhjK0tn3uTSmyUgitHxcUkhzIopjA795///WtufhO9bQf5qkR8eojGxWg43NLaNjQ0/KalNf1gFr5bxCFjH84neRYb2ATxeaVXwk//xs7MiyioIm2+EhfPUNfadTwsYNsmHAOi17jDW7UWLvAK3YAnW2VQFUf0XX5lSgF/gfESkos9uOu1Fy/acTgETw2zNObv/TUqJNF/fcDa8KQANEv7iYvtzEVTtHm8wFhvzMXOfo4Mimloabw+YG3MQfqIm4yZDA+NxNFMArLxjfTYkRVCrpfAZRcYL0k6GbktNUhnif6+/G144gIbBPA2xhwMxlN7VutW7s6OVJunzdnuKY4S4mLx4Tz2NmYBcTH6Uv9rbgH2U/e4/n8/vP9crLnKoJh6Bib19Q3Xrtd6+wW1tbcnpxzERUYpGOmvyIvLPhqduURPNGUX+MVcjIf2tLsJn1ZV19RcvvbgYV3x2bJ79x7erP0dPVckBvzzNHUjW88VLlx0mDr6KzGlvlqM37X3aUNjVXVNRWX104bG/IJiRK/Is2wuRnc6Dh4VwTFjgaaX3RbgYtEzU5xD0dPS2080vYgPaY9BbEDzY2Jh67bJX5mlpW9ofvxETl/fWxmffo/EjMCjhZP/XQeGBsIqcxdqLVsVfvq3lf7hqAqRzdcfF3uHb0g8EYnmbXHT8Ldvlsb8PaeiXAPXiU/Iksac7Z7TZ821WGNJTVcluRhR0oq1VoimRV/w7cxTC/n89C281KDtB7jpRTFLVy7HXDxpCitiLzujJBbNz0YksyP3cTAJogG4NLIjuZhBMe08bFMK+HhdGm0Bg5WTFTvGC79LFD1ITvP1li1JOBrmFvRp0YWKmoYgI3itzxpbt9V7TkWpzRMt4GNQTN9Ij7jDW6npqhJRkhYehmvMAuKCS5ev5uYVvnv3Hs8F36i9LW3Mm5kl7OjorKquaWx6/lkLtlCQhgvMj/AOzdNYjE4D13Pj/GM/N35hdi4eF2M6Q3MCeFycmp7Z1t7u4bk5M0v44uWrx0/qI6IFzxqbnjU2fdbaBhmxeXhubnr+oun5i8SklD/v3n9U96Squgbbj4aLpRHC2NoCXCyZix2dN7a0tl26fBVNLxw/kXP4yAk0PdTe3sEOClNmaRWfLUPzxbj/aFycmSXs7u6JiBYwKKanD6e1rR0vBZ00hbXKPXRNQCyl/GmtroXXFl7pFbNNIvY3sHePLKq28Nqivdwm6swlxwjR6xG9FWsjTleOjYtFAfAOrQkY+bb5OC+RVrid/OaOWodZhlyHQCM7jANtnZw4F09VmR2buRUNjTnbPfnpWxC9UtNV4w5v9Qpzw1zMoJiLTAwPnBUgLjaxNUst5K9wWsGgmNNnzeUf2IJnP8QHnmR4s7V1YjO3bksNoqarojhpXLzUavmBMwIXttOkKayflGYFxXmjEbr7Fuekk5Fq80UrN2w2rEaPEPRA4gi8flKatcjEcH/+NjRal4jSGLh4poaBsb2PjDEdagImMmWWVvWlK93dPdyQaAbFTE452Nf3dl9KBoNimlvZ/1Z1iR306VUwehEyMDBw5Fg27q+PH2x1XRMjW8+fp6mTSnF5xsx5B8JTXVdtnESxZsyclx6a4mL9aX4TjUlH8+pJIhd/nCZubHqO7jhzK/u6x/V3/rirzNIKjeC/ffvuxs1begYmj5/Uv3j5Ck8jiIf3WRo9A5OnDY2tbe3Orl4FRSXd3T2p6ZnYw2i4WBohjK0tajrG3L0FC0zX4hi+P2EscxQMihm1La6tvX1gYKC/v7+ltS04VLQyV9/Q/N79h0NDouUWbe3tXV3dvgFcdEuQ3wrRYx+9Yx0cHHz37v3g4ODN2t/RYgzRbxn+fZnGTS5kan4aYkxWmuUUvTum/Aa/7HpM+Q2n6N1ojOwUnRhTcSvmws3o4hruibNoTtnUnRNz4WZc1R18eCSKbrzAI4VYE1d1h1d6Rcfs02J1K7cQ39ijI95sH8ezxyp3kgdapEWyjIaeXnIOz9nPUbSA90yMRGNytYM4FzMopq27jWh92Irl5EIFUf6kIOedx8NXOa88cEaA3uOhF4l43YKDp13mubhDpXFZ5fGCjGC1+TqI7MgwkDEZnmgKeM/mGbM18eebxsUMimntsiqlgJ95Li7r/I49pz5NLk9VmY0mvtEyarSODU2SpBTwj1XuzCpPCIz1RnMdElGSFh6ORFzQt3DmJheq6XyaTxc3QBrMxeiTef/Bo9evmx2dNyqztPLyi/7666/37/sHBwdv3f6DHAIXFJW0trWjZQDYs7kTm52YM11VF2ukCYYLLY7zs3JihafjT0ZsjMI/9xj9sE4iFzMoJjso7OON1t/fPzAwUF/fgCK0d9zQ/KblmPAUg2Ki1zYyJvqkxSxNj2Y/GBSTL0hAYyyJ85PC7FwaNeNRl0RCGFtbDFd5cHb9qjL7f35PJC3yb1Q/MhfLaJiNvQt6yUDamFjYyngLR1qKFodpL3bb5K+h/Ylz8VVKec4UZQ18igRKZa7m0pWUyqdVt1g5d7EFomaa/ehPVecbsRNzdL+LxeSTprDU5utInOodPSDSLCUu8puqMps2aYOKszTmf40wjO19uHsLWJpLpAU5Gr0yS8vFzQc//lERNGVcXlFF82DrvS0gPnvqDFlrLskiM2bOwyyM9CzNJdy9Bcb2n1aIk8afJdvYu4z+5vosz1/PWBohjL4tk6awPCIl/BTr68UsF89fxMVyifgrVWq5nrsp+iCeFflKtYDbL0RgspKqe0Sa42bRIvfxPWzsXc6dr2hrbyd/uM+gmL8wtf13CM3XBX5JdaaOAf7xJ0Yzsv6SWr7XsgYrXP3ijn/fg2IGxQQu/nRLT5rCsvflf+Et973eDArVrslKqvj95DgG9vudP5uev0A/ZaK5/fIaJ01hTVb6NBdPcw6nshFQma3nHpE2R89Uttl3cBW4eJyHV9/BZwKaAAgAAhOPAHAxcDEgAAgAAvJHALhY/n0w8U9gqBEQAAQUDQHgYuBiQAAQAATkjwBwsfz7QNGezxAPIAAITDwCwMXAxYAAIAAIyB8B4GL598HEP4GhRkAAEFA0BICLgYsBAUAAEJA/AsDF8u8DRXs+QzyAACAw8QgAFwMXAwKAACAgfwSAi+XfBxP/BIYaAQFAQNEQAC4GLgYEAAFAQP4IABfLvw8U7fkM8QACgMDEIwBcDFwMCAACgID8EQAuln8fTPwTGGoEBAABRUMAuBi4GBAABAAB+SMAXCz/PlC05zPEAwgAAhOPAHAxcDEgAAgAAvJHALhY/n0w8U9gqBEQAAQUDQHgYuBiQAAQAATkjwBwsfz7QNGezxAPIAAITDwCwMXAxYAAIAAIyB8B4GL598HEP4GhRkAAEFA0BICLgYsBAUAAEJA/AsDF8u8DRXs+QzyAACAw8QgAFwMXAwKAACAgfwQmjovdAuLIRw3tFF8S14trsDEWRrQRNxDXYG9IGNGAZj+a0xF90gxop2QV4pfGpiF9Yhm7wgK+RBNGNGBQTNKGlGmu4BQQ+JERkBsX025Rsg9otyvtFFuSemkyNqZVR9pjG7eAONkHtkTepBmTZjRZYr3YRvyquAYbj6ZF2OZzQyXrJWXsEIdBu4r1SEBXxf/TzOAUEAAEJoiLyTtWnBdkdwNZlmaJL4kL2FK8OpqGtEQy9kZSD6kk9bi4eFmsodWIT8myWIkE8bIyjMmypJm4TGsFNiA9SJSxJa3t4sakJZLJSklZ3BI0gMAPi8BEcDG+/bBAu59lo0+WkmY5GhtpZWl67EpcIC3xVVIpsV2kpTSZVhCZjdKYDIAsQuqRfxpv0gzIUxl+ZJuRBWnVoUukknQFMiDwgyMwQVyM7kCMNb5jsYAu4RsVW9JIiqbH9jSBNBOnIXyVVjvWy6gU20grK64nNdJkWo00uGhXxU+lRTWiH1yQ5pMsSMZM2uMi2AALpJlEVxItyVIgAwI/GgITwcUIU3z7YYGmx9AjA3QP0/5jGxkCzT+mDLI6XAXND6068lTckqYh/ZOXcDy0SrFevCC+JC6IG0usCytxpWRbsIzNaG6RAQ06Gca0S/iUrJ2sArcLW4IACPzgCIzAxaw5+mY2nvjQ0DVlUMyflFQNTByxctkKV2r6HNk4kvceJgIs0MqSxrLpgFYQndKKIw+4LnSV/E86wWWxIMMnWRDLtIJk/PgSEvAproIWJNaTTrCSNCZlHAm2pAkST8lSyJt4paQNKdMagi9hPdleUsaWIAACgMAIXPzLzHnzF1niY4aaHoNiTp4yS33+MqzU0DX96Rc1GVCKMwV5Q+I7FnugaWin2EycZHFFpA2NU0ZTNfYjg5WkRSWuJ2tEgYlrJAYpw5jWQBmnOB5ao7CeVpaMTZoNGS1pT3OFTmlORrSX6ASUgMB3j8AIXPyV2i/7hqRdpd3MI4Ykbk+jIUwlMixRLdgAC7h2cQ2tyOdakg5JWZpbif5lFKRdop3SasFXsYCrw+iRRaSZkciPaE9WATIg8KMhMHFcjMeY+GaWeAOjq+QlUh5N94jbkxokk/9Jn9iSjBYHTLMkiYaUSTOJZZEBrkv8lHZJ3AktftKelMmCZIS01iEzsqA0mXQoQ8YIYD9YoJXCliAAAj84AhPBxbQ7H9+WSMCnuCdoGtopaSbOL7S6kDHpQZpMWmIbcYGsHcukgItgpbgGXaLpaW3BxaUZi5MacijRrTRjWi34VNwJvoQFmo14FciS1iMSg8Q+QQAEflgEJoKLSXBpNzDtRiUtsUwrgvXSBHF7rCGrI2XsCikl/sc2nyvg2nFB7B9raERGFhGPU/yqRIfIOTbGAqqLPCXDGPEqza14WawhI0fVkZWSMi4CAiDwwyIw0Vz8wwINDQcEAAFAQAYCwMXy359JRvfAJUAAEPhBEAAuBi4GBAABQED+CAAXy78PfpDHPjQTEAAEZCAAXAxcDAgAAoCA/BEALpZ/H8h4VMIlQAAQ+EEQAC4GLgYEAAFAQP4IABfLvw9+kMc+NBMQAARkIABcDFw80QhMmsJS0142aQpLxucSLv1/9r78ranji/tfeH95nzegFyJrQthC2ARkExAIi7IFIYZdA2ExASM7RFZRKaKCIiKoaF1QQQUVca+2rlhbWy3iWlHZwYoC0rdx+I63NwsBwaAdnzw+c2fOnDnzmbmfmXvuZc7XhQCZYmpguejrsnm2WTsBF7uweKlbm1K3Ngk31893XTqN1s93XSrcXA+Uu7B406hZqipv3+C2tvaq6lqppV915qnms7dbf4Zd0KIyikvKAtmRMGfmEj78TFHTFVHTlcyGC84hsaAhqrlj0u4GkB+37XvJ1j1DhNE5OzSo5rBIW58uKk9yWuIKc2gm5gwba/gzsbZW1zZQUaMaWliCTLqV1RyyHpT/eJSrnqGFJcxU1zagW1mpaxsAmXkUI0MLS7AAqKhR7ZhO7LilVk72cEnQMWTA5hg21qBFUJduZZVfuZpuJT6kcAo/wgBNQcMUqujomvouCvJ2DlDXNJxC9QmrzFGnzVGnQTGKiX1cwW47z1CYgxKTRWACLlbXYehbuFi7BQs3N9h6cCarXY48pmWkb+5sar84saSOyebLkZyWIj9WaEfHy9p9h6ZF26xScvHy1fsP2qBJXJ6gr69/d+1+mDNzCW1jGwt31qKwuKyGi26RAtCQKlnPZOFiC3dWzJY9iTX1hNYXMJfxiw/SzJzw+TqGjLXVKe4BTJiZXpJQcSwf/CobC6pOFrr4uOsYMor3ZlY2FlQcy9/emL/1aI6rnzus4r1s8Y6mQu9li0GOewCz6mShIJcLLoNjAov3ZuoYMtS1DbK2CLY35hfsWL29MT9riwDwtSCXW91cBBvdfHgNXBsYNtbFezMZNtawrUklCAM0qbpTE15kt/j7vF0lScWbhRt3i6pMTeynpkeylgpGXWC5aB2/6EBhrZOtF15A6sjiBVBaPgITcDGorG/hItxUP71cDDRr0iz5xQcRF8sfJPmlX/5WJ9hj4c7KbLgAuRiWRhVXErhYRY0albUtMDYPyoCEjiEjd5tQKtlhmrSsLYKsLQJMkwa4ODgmkIRRVNSogvzo9XvSNfWMgZLkDXE1Z4qEa8efsQAXbz2aY+lgR8IokIvDEpeVHsgyMLcgYRS6ldWWOlFY4jISRhHkcnO3CQmGgUuGjXXuNqGOIUNq6YSZX3iA5mkabUkujfAVL0IqGDUtKiMnJmdCIxUUCGSG7MmpTolIrc2tIXCxrMFVUDMSmyIX0xd4Cr47mF19Pn17cwBvDXz08wpPTqs4mV19PrGkzszRF+Br5RqUtPFIdvX5zB1nglYWYlqfgoAowsXevsG/3//jzz87Pnz48PTZ856e3pGRUbDD9QngtN65O/rxX+uduz4BHFnCYF/82+8P3r4dGhsbu/fbfZ+A8W0+L0H4sP3x2NjY8PDw+QuXbR3Hd2enms9euHQF6B8aGspaU0jCKPyktCdPn42NjY2OjoIWp2sOefsG/3rv90N19a9ed46NjT1+8tTRxfufk/srKmv6+vr//vvvvr7+isoa0BwvQfjo8ZOxsbG+vv5Hj5+AfXHB2u96enoHB98MDr7Be2OCOMt/+fW30dHRsbGxh+2PeQnSGQdoViXrBWUU5Zz6qeDc7fTDLQ6BUSDfOSQu/ci5gnO3885cj1q/XYMm5jLwU5yLDS1dkzYetnDyh3VBQuxBNjWH7gV8qX+k35bDa6ycxDs7PBeTMIp7AHNLnQgwuL6pefHeTEF+9Hd7M6h0M1AK9s6AnQEX0xjmhTuT4WaZhFE8lno6errI5+I5ZD19U3PozcCbp0gacrFPAOfXe7/fuNnK9GaRMIrk7PVjhbY/erL/4BGgVovKuHbjVuudu3TzSWxsjQxtqrMrAVGqYNS4oJXbUss0dUwUMXVCmTnqeioYFd8EvooLi8ffsF+TZonPRGkFEZgKF1NM7JM2HmYnrlcl00ztFws3N3iGrCJhFBcWL7nsmLVbsCqZ5h8tWlV6lGbmRDGxX7XxyOLIVBU1qpnDktVbjuO9w4pwsR8r9Omz51XVtdurdg0MDmZk5ze3nL//oE2Lymi9c/dh++NAdmQgO/Lps+c//nRDljDkYp8ADpcnePGi48efbpAwCtOb9eTps2s3bjG9WatTRV1d3YePHgfYXbx8dXR0tOXsBX5SmmBVmq0j08rOta2t/crVa3Rz+9AI3stXr5tbzssCWt/CJXVro6jmAvxF5+yUJUzCKMDC/oGBih01sQnCeH4yCaPkFWzo7x/Yted7urn9vv11fX39yWkiYMYfbQ8D2ZGgL4CLbR2ZMXFJ6Zl5r1534r0xP/504/6DNqY3i+nNuv+g7e4v97SoMrd4Pvys7OOXFoXFYdrGoXmbM+rPmy3yNXH0yjh6np21QZWsZ8eKzDp2yYefCfuiOBe7sHiJJXW6xgtgXfkJA3OL0gNZkavGV008FxP2xV7B3sV7M23dnUr2ZwJfh3sAs+JYfkx6+JbDaxa4OgIuZixYULw3E+ysCU0LcrmFO5Ohy3jKu2CCWhJGAVzsE8B58Efbw/bHQZzlJIwidfaSMEpzy/lnz/8EZJ2cJurr699Utl1Sp5wcSJTzNI1E0aKDBbXTyMWgXdgEwQwLJ3/hpnqGnXgPgX6TRWAqXEy4owJj8+IKds/VMOSKdoSllAILyBRTFxZPly5+PBSHZSLTaGZOBpaL4gtr2YIiaKWCXPz4ydPikrLikrLu7p7YBGHtvkP3H7QlCFK6u3uKS8qlexiAAAAgAElEQVSAtqrq2hcvOtbkrZMqTPAX7z94pKPjpR8rFOhMEKQAJSdPt/zR9hBQ1cXLV2EalAISvH7jNthT+7FC2SErYF8+MwEshHsioO3i5au/3/8D2OPq4f/02fP9B4/wk9J6e/tKSsuhDN5fTOgpCaP8+NONh+2Pw6LE79ZcPfwjVsTL4WL+zsMxZXuAZl0TWx9+Ft3BE1xi2sZmi3wtmIHCvSeiiitBJgmjKM7FTDafX3xQwX0TYNuimlTohcD7iysbC8qO5oAtLQmjCNfykjfEkTBKxiY+2PYCLnYP9MjcLEheFxfMWyr2+eK4OJAbICpPEpUnBXIDwL4Y7y+OSQ+HHfzMxMXLV9va2n+99/uz538CIiZhFKmzlxUUHhOX1NPTW7N7HwmjHD56/Omz54CXFbcBECXbK3xHxjZhWArbK3wKXKyuwwjmF3FFleAXlrJJx/DTCiqLi2fOmal4979eyalwMeGOApf65s789fvxPAtAUVGjBvDWpFWc5K/fzxVVppQ34mU+h4uLS8qGh4f/xv0bHHxTunmbIlxcu+9Qf/8Alyeo3XcIp0CcBBwNtzOEoeUlCO/9dn94ZGRgcPBMywU59wmZYuoWFO8VKoQ/O68wgjb8pSSHkjDK/QdtBPMuXr4K1yRQHT4Cg0tJPT4BnBs3W9+9e/f27dCNm61yPrGgmjumHDyN51mgU5WsF1awJefkjykHT/Or6kSNV/AyM8TFrv7u5fU5rv6f3s4BLo4ShpjbL1i7MwW6hql0s9IDWSnF8SEJweklCcCJPM7FAcyF3ou21IkSC2IgF3Pigv4ZX0dPl5CE4LztqwF3y/EX44dpCumLl6/+/fffHz58+PXe79ADJnX2xn50H/340422tnZWUPjTZ8/hU5ri7RoZ2uzNq9mfv8dn0VIVjBrIDJkCF8/VMHTy58Kp6xYUT6aYQhsQF0MopjExFS52C4pP2ngEPmkuiUxNKNqnrsOIztnJTlwPjFMl06gmDpiWkfixZXO9mcMSkC+WmaZ9cWpGTk9Pb35hMR4OP1aoIlwM98Xl26q6urpj4pLwSkCawHHiVz3m9lHclbaOTC0qIz0zr+Plqx8/Ojok6350bi4IS9kEdxZcUaUfN0uqJMiU5NB/nJ7XbtySdClMal+sRWVErIh39RC7aGPikv5oe9jW1m5l9+nrMYJJiTX1K0rGfSmYtjHDeYkGzWIhOzqz4YIda/w7ucSa+pnmYk0946KaVEF+NN5Li/dReAV7lx3NsXZxAK7h8vqcnG2rROVJuRXCbQ15CxcvglysokbNKOVXNhaA7ygyNvEzNwugWkEu9wtwccfLV2vXb+zr679w6Qp4KJE6e8FY5BVs6O3tO9V89tXrTi5v/OsUwjDJuTTUt96Ztd3NwQfIBDJDylO2aGjR5VSZbBHi4skipoj8VLiYZua0auMRr/BkFTWqLt1O8N3BAJ6IhFG8I1JWbzlOt/EgYRQHn0jh5noTWy9rt+CU8kawJbR2C07dOm37YuAxuPfbfbA5LSktbzjetCyUK4eLb7f+bOvIDOIsf/GiA3yTG8RZ/up156UfrtLN7bWojD17D+6s2QuAk+TiKO7K7u6eI/UntKgMurn9rdt3fr77qyIoKyIjlYs3lW0fHHyzuUzsEGB6s86dv8RPSgMdB31herPaH42/uwOtEPQAzwbwcWtRGY1Nzf841gE1kzAKpmW0NKFgyUdvPqgenLk+69glGx+xi9aLl5zZcGGBb+iisDhR4xXmCvFbAXG6aYr7Ymu34KSNR/TNnScEJCY9HH7tAIXxXKyubVBQlQy2xoJcbs62VYBeMU1a4c7k6LQIyMUkjLLA1bHiRD7gYrDd9mKLv8fS1DPOqVg1NS4GO0dDS5mrGjQbTqSSTVv/+uvtgUNHSRhF6uwFNK1FZdz95d779+8JbyN06XYuLB5+fwqbwCfmkvU3CNYLw1LmqOthZP21K9emRKZBAUNLVyd/7lyNz/roWBYX23pwVpUeVWR8oT0oARGYgIuZbD589QQS4PszG3d2ctnxtIqTmTvOhKduAp9GYFpGy5I2ZO44k1ZxKnVrk3NANAmjzNUwZCeuz9p5LnPHmcSSOsF3B4FP2daDk1HZjFeO3y9D+8BLLan0SsIo4HOC4ZGRt2+H+vsHSkrL5eyLnzx99rD98fv370dGRv/8s2N59PhHzVlrCju7ut6/fz80NPTqdefqVPG6IstHUVFZ0z8wMDQ09P79+46Xr/hJn2Y53uYppAkcCjRoURl1hxuAe2F4ePjmrTtg4RGmZPf29r1///7t26HXnV3AXyz52Hvx8lUSRsF3sK+vf13xJmge1cRBuLkhrnCPus742zwNmsWKkuq8M9dzTv0karq6JCGDhFHIVNMVJTvzz97KO3M9/XBLel0L8CkHrM4rPN+K/wWszqNZOqXWncFnptadoVmKPyjWNrAWbDjguGT82wxoBiEBOHf32fX4X3BMIJ6LSRgFfGKx0GuR+HUc79MfIkUkcdbvSV/CWVxxLB+8x1NRoyaviwNcTMIogdyAqpOFO5oKq5uL8itX65uJvwkR5HLxzVWdLMR/70ywUMzjCn+OCbmYhFEOHDr6119vSzZtlTp7YSvl26rAe1qYQ8Ioth4c4aZ6fQvxVx/yf3Qj28r0rQcLa+sK9xULNujofnIvEByM8vXIKpXFxUsiU3l5NZ9J9LIa/ebzJ+Bi+f3XNrDGf6AGhDEtI126HXwGhJnaBlP8VF6+DeB9lOLv0MC+WFKnHyvUj6XoXw2xQ1bAraWkqmnP0aIyQiN40NUI9bOCwhX/2klWB9W06JKDqEGzoDt4qv77D9s0aBaGC9xg61NLBPBEUZnbCNNjaqo+p5b4KzozC/hXeVNQJV7GSo/iPwqaghJZs/fHn25I+qZcWDxh6VGqidgto8hPU8dE8o/u/GPWAI+iIhomJUOmmMYV7vl8QCbV6Lck/Flc/C0BgfryZRDQNrCOK9wj/zXml7HkM1txC0qIL9qr4Dchirfl6uG/Z+/Bvr7+vIIN+FqqZFpkxtagleKP3Kf8m0cxj19by1yWOGUNcip6hScvz9omua7LqYKK8AggLp76zMbjiNKKI2Bk5RaZsVXbYIrHOyje0IxKqqhRVcmfDmSYrrZONZ99+ep12dYdkgpVybTPf56YFiWSthlbe0Sml83cs69ki99eDuJixMUIAYQAQkD5CCAuVv4YfHsrPOoRQgAhMFkEEBcjLkYIIAQQAspHAHGx8sdgsusnkkcIIAS+PQQQFyMuRgggBBACykcAcbHyx+DbW+FRjxACCIHJIoC4GHExQgAhgBBQPgITcPE3E+9O1hoF4uCB89fxUeNkyU8231DfOpAZ4mzrhZH1J1sXySMEEAL/HQQm4OLZE+/O1cP/wqUr+LMU5AyS4sLgGLPYBOG16zfxpwDLUa54Edsr/ED+nnX8ou3p5eUpm/HHAiiuBEkiBBAC/wUEJuBiAMHMHRGt+AErUo/OkTVCkxIGSvAHuMhSO6l8Q33rqsztngvFh1ViZP2SpA3RgeLDztEPIYAQQAhIIjBFLv6S8e7+OY3zduvPb978NTo6OjQ0NDj45uWr1+Bc19AIXltb+9jY2MjI6LUbt8DpObKE5Yeqm3YudrL1qs6uNDK0AVycG5O7jv8poInkSKAchABC4L+MwFS4+AvHuwPDI7nVtXVkPmx/DM4vDo3gvXjRAY6IhLHj8DHfXD38Hz1+gg9Vd/J0C37gFeHiSYWwg1xMoZqXJBUfLKxFXIwHHKURAggBPAJT4eIvHO8OmCvJxTn567q7e1IzxuON1+ze9+p1JydMfGiypDBQAr3DN262ErzDinAxHrgJ04CLgzxDd4uqIvyik0KEiIsnBA0JIAT+swhMhYsJx1HPdLw7MDaS9EoI+4a/lBT+5/Dv3bX7BwffvO7s+vXe711d3VPg4kmFsHOy9aor3Lcru8rBiknCKImIi5GvHCGAEJCNwFS4+AvHu5PFxUUbSnt7++C+uHxbVWdXVxR3pdR9cRR3ZWdX1/aqXUCb5C5YMkdyfdYxnEQIO0drZo1ohyndHuhJDBEWxhdI6kQ5CAGEAEKAhFGmwsVfON4dGCcrO9f2R0+uXb8J48kzvVmPnzwFoeqY3qz7D9pa79wFpZLCMXFJfX39dYcbxNF0VqXBuERwEijCxVBYkYSOrmlFennYkuUqGFVH13RbalmozwSxhRRRi2QQAgiBbxKBCbh4NsS7g7h/t7EMBJp7//49iBjGT0r7J0IdyGxraw/iLJcjXH+scWRkdHh4uL9/4NHjJ+2PnljZuQJvBj7ufUfHS8WDLcHmpCYcbTz25FQfLKg9UvR9xvIs9OceUlFCmQgBhICi+2JZSH35eHd0c/uIFfGEIG9+rFCp0eckhenm9pywaLizltWv6c3X0TVFLDy9kCJtCIFvD4EJ9sXfXodRjxACCAGEwCxEAHEx+kM4hABCACGgfAQQFyt/DGbhEo1MQgggBL4wAoiLERcjBBACCAHlI4C4WPlj8IWXX9QcQgAhMAsRQFyMuBghgBBACCgfAcTFyh+DWbhEI5MQAgiBL4wA4mLExQgBhABCQPkIIC5W/hh8zvJLppjq0u0+R8OXrEs1cdA2sPqSLaK2EAJfCwIKcbG+uXNswa7s6nPZ1edYcbnT2DctKqO4pCyQHTmNOuWrwrSMbD1DyBRT+WLyS218OHYBEfJl5JeqkvXcIgUGNovki8kvxbSMojK3+XGz5ItNqvRU89mZiPsHbHBcEhlbsEvbwHpSJtHMnBLW7ZvvunRStZAwQuDrQkAhLo7M2BqdU0WmmKqSaZiW0TT2kMsT9PX1767dP4065auycg1OLjtm7RYsX0x+6codh/g7D8uXkV9qtsg3+/glv6Txw5flC8sqDVpZGJm2RUWNKktgCvnTfkYSwYYp2DxzIb4ItqFLhIASEZiYi0FIOs+QVUq0EjUtiYC+ubPgu4OWLoGSRZ+TM9NcPAWzERd/zoCiul8LAhNwcWTaltStTVlV59IrTqdubRJ8d5Bm5kTCKFLj3ZEwSgBPFMwvisooz6o6l1ZxyszRVxYQBWu/6+npHRx8Mzj4pqq6VpaYnPyq6tqXr173DwwMDQ390fZwdHT06bPnco5Yc2HxUrc2pW5tEm6uhw+8NDMnXl6NLzczreJkdvW5mNxqOU/QVHPHpN0NoqYroqYrcdu+h7aFFWxZueNQZsOFwvOt6UfOOQSOn43pHBKXfuRcwbnbeWeuR63frkGzIGEU55DYzIYLQIkPPxMqoZo78qvqlqYVpR9uKTh3e/W+E5oGliSM4iPIEp34ofB8a86pn4IyilTJeqAKc1lifNFedR0GuPT2Df79/h9//tnx4cOHp8+e9/T0joyMgihTPgGc1jt3Rz/+a71z1yeAQ8Iop5rPPnv+57t37/r6+h8/efrhw4e7v9yzsnO9ePnqy1evO16+Ghsb6+npzclfB/TzEoQP2x+PjY0NDw+fv3AZhBYEei5cugL0Dw0NZa0pJGEU+aEFIzO2sgUThP5TUaN6hSdnVDZnVYkHZfWW47YeYrN16Xa8vJrs6nNZVS1hKaXT+5QGxwIlEAJfHoEJuPifcBiSoZplxbsjYRS2oCir6lxgXL6RlZuRlZucW8XWkRkTl5SemffqdSc+MJ3iENTuO/T4ydNAduSjx09u3GyNTRC+et1ZXFImS4O6DkPfwsXaLVi4uQHc2CSMom/hklJ2giMsJlNM9S1cVm084h+zRpYGVbKeycLFFu6smC17EmvqoVhUcWX28Ut2ARG6Jrb8nYdT687QLJ1MHL0yjp5nZ21QJevZsSKzjl0CzKtBszBf5GcXEJF+uCVgdR5UQrN0Sq07Izrxw+KEdAt3lgVTvOFd4Bua2XDBi5dMwihevGTRiR+cODGgSmTG1rCUUljdjxX69Nnzqura7VW7BgYHM7Lzm1vO33/QpkVltN65+7D9cSA7MpAd+fTZ8x9/ukHCKBcvX711+w6XJ+jq6j5+4lR+YXFXV3dsgvDi5av9/QPZOWttHZmXf/jx1evOIM5ypjfrydNn127cYnqzVqeKurq6Dx89Dpq+ePnq6Ohoy9kL/KQ0wao0W0emlZ1rW1s7PrRgc8t5aCcJo/jHrIkr2D1XwxCfSUg7LI5I3dq0aGncnHkGiyNT0ypO2XpwMC2j2IJdXNEO8MZSsOHAhJxOUIsuEQKzFoGpcLGseHeAi2NyqxX3YEoNhqQgWLX7DoE4SfcftF28fNWPFfr4yVM5XAzUEh54CZdhKaVc0Y4JDYgqriRwMby09QvLari4KCwOKMG0jc0W+VowA4V7T0QVV0LNgHkluTgwVbyvhD/Axf7CHEzbGKwE2sbiwNIkjBKdsxPPRLD7MNYUwCdBkNLd3QNhqaquffGigxUUfvHyVQBaR8fL2n2HYhOEHR0vARfD6FP8pLSent7ikjKgM0GQApo+ebrlj7aH4OjRi5evwjQoBVx8/cZtsAH3Y4WyQ1bAHpEwCiFGF74IptmJ6+FEgmNk4eQv3FTPsPMGYq5L4xNL6nSNF8BaKIEQ+HoRmAoXE+4l/CVbUBSds1NxOGYbFytovxwutnBnZTZccIsUqJL1wgq25Jz8MeXgaX5VnajxiiJcjGdnAKMXLzn9cEtey830uhbvuFToo1CQi4tLyoaHh/GH5Q8OvgGcOyEXxyYI+wcGanbvq913CK/h77//hifuS/Uv8xKE9367PzwyMjA4eKblAtObhZ8S+AmDz8en8b2DXGzrwRFuqte3cAGShEt8dZRGCHx1CEyFi2XFuwP74v84F1t5BgEuXsiOzmy4YMca/1wvsaZ+ClysbWxjsnCxKllPg2bhL8wRNV3xiB5/iYpnKxDiDzwWEPbFqRk5PT29+YXFhKk5qX1x+baqrq7umLgkghLg64D7aFBKN7eP4q60dWRqURnpmXkdL18BrwisqwgXS90XA/8S3Bc7LolK2niEauIANaMEQuDrRWAqXCwr3t10cbEu3c6FxZvwE+CZ8FFMeV+cduiM4QI3VbJeVHFl+uEWwwVui8LiRI1XmCvE1ClON01lX+zDz8w6dgkQutki3/Qj5+DrvqUJBXh3iiwfBfAY3PvtPticlpSWNxxv0qIy5HBxd3cPPylNi8q4cOlKd3dPWFRsEGf5q9edILSgFpWxZ+/BnTV7waSX3BdHcVd2d/ccqT+hRWXQze1v3b7z891f8XcIW1CEtxxfBNMOiyNSyk5YuYo/PXQOiE7ddtLWg0OmmMavrWUnrlcl08gU0+icqqiMcsUdYlA5SiAEZiECU+FiEkaxcWcnlx1PqziZueNMeOom+I5OQS4jYRTJZ+eLl68CgBR89pwsF0uN3Qeff0HT8u0HTt7C863wB17TRRVXik78IGq8knvqWs6pn9wi+SSMQqaarijZmX/2Vt6Z6+mHW9LrWmLK9pAwilukIO/Mdaih8Hwr2C9LepBJGEWDZhG1YXvemetrmq7mnbnOK9sDPsYgYRSHxRH84oPQWyqLi0kYhZcgfPT4yfDIyNu3Q/39AyWl5WA/K8tH8fjJ08HBN+/fvx8aGtpaMe5xylpT2NnVBTL/iTG4OlUEEJPkYhJGqaisAd+3vH//vuPlK35SGpz6czUMYwt2eUeMu55hPiGhokYNWlkIvsZZVXo0pewEeN1qZOWWWFKXXnE6o7KZl1cj56MXgkJ0iRCY5QhMzMVyOiA13p0ceQWLXFg8YenRr+jZE7iPVcl6xvYemLYxvpsaNAvDBW74nCmkMW1jk4WLCZrJFNO4wj2uS+MVVOjq4U94hyanohaVwQmLJsQVBJ4QOV8NEhSyQ1ZIxiG0dAnkF49/GUmQl7zEtIw0qOaS+Zo0S/gxn2QpykEIfI0IfBYXz0SHVcm0yIytQSv/9TnBTDQ0jToJr/KmUbN8VXaeofGFtV/R3hDTMlqRvd0zRCi/X6gUIfAfRGDWcfE/T7iqZNrX5QT0S8oJyf30qe+XnEbuwSsD4/O/ZIuf0xZzWSIrNufrGtzP6S+qixBQHIHZyMWKW48kEQIIAYTAt4EA4uJPf1jxbYwo6gVCACHwNSKAuBhxMUIAIYAQUD4CiIuVPwZf4xqObEYIIASmFwHExYiLEQIIAYSA8hFAXKz8MZje1RVpQwggBL5GBBAXIy5WAgJUEwf4t5pf423zZWyeJSjpGJhQjT8rJhkBLkyTZulgJ/XTRm19uqg8yWmJK6GK5KXU2IlzNQyNrZlSNUtqmG05SuPi+a5LhZvrweHuLizeNOIyc5qn0civS5XZIt/V3590DomdFrPFf6JStBcEJZgWhUDJl4+d+DnGg7gE8HQRSVUzgZK2Pj29JIFuZZVekuAfITPOA94YKt1s7c5Uv/BxYUsHO79wXx0DE7wMIZ1ekhCTHk7IxF+SdQ2ztgg48cQ4ZypqVAcP59KD2Uu5AXP+FzOBhFGEa3lOS1xj0sPxaqXGTlTTpi/PqvjCf0xkqG8dyAxxtvXCyPr4bk42rTQuxrSM9M2dTe0XJ5bUMdniAxym6zdzmqdg4e7a/Y1NzVOoOGEV1/CEqA3b4XHGE8p/jgA8CPRzlIC6RlZu/OKD8xUIDeXq4X/h0pV1xZsUbPTLx06UapiCf/gj9fgRqFBxlGAVRRI6hozcbUKGjXXuNmFwzMTRuTBNWtYWAWRAV3/3oppUQX50fuVqTT3jOWQ9qTvQ3G1CQS5Xvj3m9guK92Yu9P4Ue1dFjcrPWVF1snBtdcr2xnxReZK6tgFQkrlJ4B7AFORyCWqlxk6cIehkdYftFX4gf886ftH29PLylM06ulN/gFAaF4O+SQYNkdXnyebPnOZJWSL16JxJaZAlHLA6D5xMJEtgGvOnkYsDY/OisrZJvYcJBn/O2dYEVV/yUsE/iJfPxYqjNKmuQS4G7IavS6WbCdfy4P4XFC1cvKjk+0wT6/G43cExgYJcLlBiZrsgpTh+KTcArwSkCVzs6ufOz+XOoxBjFsdmRmVuFsCZYG6/oOxIjlewOFDAAlfHsqPjaRJGgVxMWD9kxU6cIfQke2qob12Vud1zoT8Jo2Bk/ZKkDdGB40EkJIUnzJl1XCwroJmT34rVW46Lai6s3nLcyW88ToSRlVt80d6P0c/ORWWUa+qJA8qBn+JcLDWSG93cvrnl/PDw8NjYWEfHS3DSGJcnePrsecHa70ATt1t/PtV8FsR8u/SDOLzF2NjY27dDIKx1VXUtOO1sZGT0c8L6wR7BBIiYl3vqWn7LLVHTVVHTlbCCLR//dlwvQJibc+qngnO3sxouuoYnkDAKCKPHydmYdexSwbnbaYfOWHkGkTAKwe0Qt+37sIItZot8k/efSjt0Jv/srY+R/a7mnPppUVgc4OLEmvq8M9fzW26tKKkGx8WpkvWCMopAi+mHW2CgP7NFvkm7G4IyirKOXSo83xq3dd+nQdmwn+CSCuIs/+XX30ZHR8fGxh62P+YliE+ruN3685s3f42Ojg4NDQ0Ovnn56jWXJ/gn39s3+Nd7vx+qq3/1unNsbOzxk6eOLt5SYycCyeMnTvX19YsHEXdcXE7+up6eXpD5y6+/gUGE8OITYQVbkvefyj19LevYpdX7GvPP3krYfoBMNdWgWUSXVueduV5w7jbsuA8/U9R0Ja/5Wl7LTXw8Q6koAS6O2bSLMC7jUc3+jdJkQzviu4BPq6hR9U3N55D1qHQzuOsEAi4+7lUnC9NKxHMG/gS53IxNn55Z/SN8ReVJzj5ua6tTAlcE5FYINfXGT8KyYzqVHsze1bKu5PvMku8z8RvY4JjA4r2ZOobjgRmhckdPl9IDWWa242FZHD1dyo7mLFws3inPoxjxc7mufu5AGFirY8iQJHSpsRMtnPyTNh42tJzA6axKpgXG5mXuOJNdfY5ffNDIavwMLxAD0ys8GRBORJr45pL6c7L1qs6uNDIUh9rByPq5Mbnr+BMEcpSqB2TOLi6WFdBsvktgctkx16AEVTLNNSghuezYfJdAdR1GXOGeZas2qJJpunQ7wXcH8aHqFORifCQ3waq0V687wZ1Zf6yxr68/PTOPbm5/6YerIIxFbIIQH68IxHYC50/29fUXrttIN7dvbGru7e2L4q4E+Cq4LwbWimouwB+/+KAmTRx7VNZPcl/sFZv68bB5Ibj5sxouWnuzxff8oebEmnoDm0V6FguFe0/Ebz9AwiiErS446t7CnZVx5OxCdjQnZ2NG/XlTF5+E7Qeiiist3FmixisrSnZq0Cwcly7POnYpOHO9OC4qPyv7+KVFYXGYtnFE0VZwcDNQLmq6kn64BfC4qYsP6AUhSBLI/PGnG/cftDG9WUxv1v0HbXd/uQeiN0ndF4PM/oGBih01sQnCeL44EqDU2IlA8v6DtkB2pE8Ap/3RE3CMMjiL+adrN5jerOyctf39A/CwVkmoo4or47buM1vkm1F/npOz0YkTk3H0vIU7KyS3NO3QGbqDJ6ZtzN24c/X3J6GzSHJfjEcpNG9zRv15s0W+gIsTdxHHRYzev0NJkTDKZEM7SnZEkRwtPTreSzuPYrRuV1pEkjjkK/ipaxtwU8Oztgj8wn1ztq1azFkC8ql0s437s1YXxWqKTyp0Lq/PUYSLjSwsSw9mey9bDJXnVQo3HxJ5s73xZsDWpSakxk6kmjgkbTziuGQ8BLDUiiSMsiQqbfWW46b2i1XJNHbienjH6Vu4pG5tTCyps3YL1rdw0TN1lKUBcjGFal6SVHywsPbb4WLCLIQBzZYmFMBolXM1DJ38uXDRU1GjUk0c9C1cwlM34UOKKMjFRRtKe3v7UjNyANw5+es2bt7m6uH/9Nnzow2NIDMmLqmrq/uf2BZyuBjGtkjNyOnt7SvaMH5UkIJcLGuw5eRLcnH89gPgiGRxvGQT2+QDJ9nZxYRnYXZ2ccrB01RzR1lcnFp3xsKdBZVHFd6/b7oAACAASURBVFcCLgbBSoA9K0p2JtbUq5L1BNVHYLAShvOS9MMt7ssTIdGDNL4LUk+m/vGnGw/bH4dFiV8Munr4R6yIn5CL9x88glcL0gTuJlwebWh88aLD2ze4uKSsp6cXHqkMF1RJhSSMAroPMbRwZwF8gDDN0snCneWXlJPVcNHCfTyOlCQX83cexo+LDz+L7uAJdQJVgamFYFzES8u/Q0kBLp5CaEepPVI8U8eQUbw3k+AWANX9I/2ytggwTRq4dGd5bDm8xtx+fIcLfBSg+u6z6/E/PEdL6tcxMEksiNnRVLi9MT8omgXdF3JslhojRpF7X12HkVC0b0lkKlCub+68qvQooG/xmeab6209Q+S0C4oAFwd5hu4WVUX4RSeFCL8dLibMQnjJFe3A8yzEyC0oPnVrU9LGI1xR5arSo3gZRcbjn+fB3bX7BwYHYz8+F0O1hNsYXirCxQQZBbkYLDBeoUL4c/Lnyo+UDOkSmk0I4wQuCfc8rPU5XBxVXJl84KQlU0xM+EPxC8+3gnh9BOXQQjigMEe8uQ7g3LjZ+u7du7dvh27cbA1kj0elgrDjhaVmAgFCEeGydt8h8HADE6DW1LjYyjNIHLS78UpiTf3qfSeyj1+WxcVUc8eUg6fhigX7ImtcZj8Xa+oZrylPCuKyNu7P2no0J5AbQPBCAC5WUaMaWlgybKyjhCEb92ctcHVk2FjjPRWSXAzAmUPWW5EStqOpEPiOIWJSE1PmYgI/4C8J8SWktgsynWy96gr37cqucrBikjBK4rfExbICmrEFRTAqMNgIq+swwJOIs380wIUQkgMPrhw0CbskELTY2zf4xYsOuC/mhEW/et1ZVV1L4Fl4G+MJlyCDL5JjhroOI5hfxBVVwl8wv0j+cemQVaFa/P6LTDUV1p4Izd8i654n0CX0USi+LwZNhK8VRwkh/AjKYakkF2tRGREr4sGR8zFxSX+0PWxra7eyE3v6CGQKlEjNlFpEkIQUXFJa3tvb95n74vjtB3hltSAOrFukILPhgiwuFt+iNfUrSsbDo2DaxgznJRo0C1njMvu5mBMXtGotj58XzYkLsnVdmLd9tW+Yj+S+GA46galhPoGLY9LDM0r5YC8MihJEy6GwrMSUuViDas5fvx/ui3WNFySW1IE3GYpzsaM1s0a0w5RuD8xLDBEWxhfIMnXC/NnlL5YV0MxhcUTq1iY7z1DxSyeHJcJN9Q6LI/TNnVdvOe4VLvYYGlm5JW08PIV9MfAeXrh0RYvKAP5KECjzVPPZFy86QiN4WlTGkfoTXV3dXJ4ACNcfE/su+Elp3d09wNWIJ1wCFx9taOzs6gIP4BMOxqQEvGJTso9ftguIgLV8+FniaKcfc7x4ydnHLzkti5F1zxsucEs/3MLOFsckBfFSgS9CFheLGq+EFZapkvVsfDhZxy6B85qDM9eLw/F9bJHu4Bm1YTsIYiKLi/XNnZM2HrF2+/RhKXAHXbl6jW5ur0VlNDY1P332HFCzlZ1r+6Mn167fBC4L0E0Cw8K+S3I3QRJyMRjE02fOaVEZy6P5nV1deH+xlWtQeNpm+BpHlo+Cv/OwoPqIBs1C18Q2pmyPqOkK5GJ2dnH6kXMmjl7QNoCSjY/Y8erFS85suLDAN1TWuJAwiiRK8sOJ2XmFWTiJX+V/zk/qdxRrypMIhDiHrBebGWXj4ijI5QbHBJrbL8itEJrZ223cn8XLiFBRoxrPn7/poAjvi5DFxQwb682HRC4+4y/ofMJ8Ko7lu/iIX6DZui4sO5qjyBfQUmMnism09Ch+mklFJoAn4q/fr0sX/9XJ4sjUVaVHwTfvinOxjq5pRXp52JLlKhhVR9d0W2pZqM8ETmqploBMpXGxrQcno7IZvqoS1VxgC8SvIKUGNFNRo/pEpWdUNqdVnMyobPaJSgfr55KotKyqlswdZ5LLjscX1gKfsizNslAAb9WHhoaGh4fv/XbfJ0B8z9g6Mm/cbB0eHgYx4uBXrvsPHhkeGRkaGuru7nnY/nhCLg7iLH/2/M+RkdGRkdEfrvwky4Yp5GvQLFbuOJTfIo6nl7irHtM2ViXrhRWW5TVfW9N0NffUNb8ksRNczj0fmFqYf+ZG7qlrmQ0XVtUel8/FGUfOrt7XmNcs/nhDUH1E18SWGI6v+VpE0VYQCEoWF8/VMOTl1cDNCOg1PpJeX18/hJqEUb7bWDY0NPT+47+STVslCRdokBo7URYXQ7Xv3r178+av/oF/vbvzj1mTVXXOyX/881hZXGwfGJV17JIY/OZribvqs49fsvULA8YYLnBL3n8qr+VmXsvNFSXVAKUVJeKPLnJO/SRqurokIUP+uEiiJJ+LCRHBpzCXSBhF6ncUYYnLCqqSoV8Yr5kZ6LnpoGjj/qz4j7tX90CPyhMFO5oKt9bnlh3917s7fC182nvZ4u/2ZlDpZiBTXdsgsSCmunlddXNRdfO65A1xhC898HVBWlbsRMclUYINByaMd4NpGYWnbsrccSat4mRy2XEbdzZQqzgX//Pe3tHGY09O9cGC2iNF32csz/qcP/dQGhdLIovPkRrQTJVMo5o4qJLH3xgAefFHFMYLFHHz4/VLpqUGZ7N1ZAZxiA9KdHN7VpC8PytSULmk2BRyaJZONEsnfEVM29jY3gM8PuPzpaYxbWMDaxepRVIztY1tCM2Jv+aRFo5PanXxPc/ixRXukQzy7ccKlRpJj25uH7EiXjLyniz9iuTTze0trJ05YdG2jsz2R0/OX7gMa6moUaVG2IMC+IThAjcYChafL95S2LrDLytAkQbNgu7gqeC4yEKJ0AoJo4B3UPgviCRlFMwhfEdBwih0KyvxX2R8/M5MUsk8ihHe/6uiRtU1Zih4J6qoUTM3fforEqicYWNdvDeTYTP+RTPMl5qwlBY7UUWNGpW5LYA3HhtXakV8JqZlNCFr4+WlpnV0TT+HhYHOWcrFUjuMMr8BBDAto+VZ24BnSSnd8VwS1P7oyY8/3cgUFfz4043BwTd5BRuUYomcRhVHab7rUsF3n76NlaNzakWc+ODsLYkTblEnq9xjqefanSlwUwyra+oZ+4T5wM+WYb5kQlbsRDuvsLjCPZ9Pr5ItznQO4uLP8rLN9PB8k/q1Dawj08uMrT2U1btAdmTL2Qvtj57cbv05LTNXWWbIb1dxlOR/byO/lQlLVdSovIyIYN7SCSUVF6Aam2Zs4sNv4BSviJeUGjtR28AqMmMrdPfj5Wd/GnEx4mKEAEIAIaB8BBAXK38MZv+KjSxECCAEZhoBxMWIixECCAGEgPIRQFys/DGY6fUW6UcIIARmPwKIixEXIwQQAggB5SOAuFj5YzD7V2xkIUIAITDTCCAuRlyMEEAIIASUjwDiYuWPwUyvt0g/QgAhMPsR+Aa5WGqUh9k/ErdbfwbhP9ra2r19P52eM/stRxYiBBACn4+AMrl4UsElFReWGuXh85GCGiYVTlRxYXbIitgEYcPxJnDMLmxulifYISuu/nh9daqif/4/y7uDzEMIKAsBZXIx4SQt+RBMSljWgV7ym1CwFH9C5oRVJiUMIjgozsV+3Cy3oPgJbZhRAcIZoTPaFlKOEPiGEVAaF8sKLhkawWtrax8bGxsZGb1245ato/jAfFnC/KS0J0+fjY2NjY6Ott65C467BKM1We5WZIxlhROVGqhUlrAWlXGi8fTbt0N///13X19/RWUNvml4zC4+U1ZawcMSfQI4rXfujn78h0dpdaqo4+WrsbGxd+/enWo+C44JPtV89nbrz6DFgrXfPX32nMsTcHmCtrZ2YPbY2NgfbQ+DOMu9fYPb2tr/+uvthw8f3r4VRwhF3hVZI4XyEQITIqA0Lpa6dbV1ZD5sf3zvt/tMb1ZoBO/Fiw54zrckt7p6+D96/AQcQx4awXv56vXJ0y2ww5LysAifAHEG8cco4w+kx0vCtORWV2qgUiAvKVyxo6a3ty8jOx+cUt/d3QMDlU52X6wIF2tRGa137j5sfxzIjgxkRz5sf9x6564WlREWFfu6s+vSD1fp5vbpmXm9vX0giBze4OKSsu7untgEYWyCsH9g4OqP15nerNgEYWdXF4Qa7YvhxEAJhMDnIDC7uDgnf113dw+MBFqze9+r152cMHEUJVncCoL0xCYIb9xshQFA5ch/DligLp6tQLhMqYFKpQrD1l09/GMThBu+29LX119cUgbzFdkXSx6Wn1HZbOvxKV4v1EbCKDFxST09veXbqkBmgiClYkeNlZ1rVXUtxJaEUZpbzrc/emJl54rvHZ6L8QGwr924de+3+0Ah4mI82iiNEJgyArOLi+HND/qDv5TKxbtr9w8Ovnnd2fXrvd+7urqnwMVkiqlbUDyM+OkVKrTzGg/QIAtTPFtJkj7BToIwCaMEcZb/0fbwzZu/Hj589Efbw7/+ejtZLsa0jPTNnfUtXOIKdoet3qhv4aJv7oxpGUk1uGhD6cDgIL4JIEYgfXiJNxjiTyBcvAyhSKoNKBMhgBCYEIHZxcVFG0p7e/vgvrh8W1VnVxd4hCdwnDheOndlZ1fX9qpdoJN4gpCkSFlA6BguCEvZBCN+ckWVftwsWcJSG5IVqFSqMAmjnDzd8ujxE+AHlyQyyInybQClivgoYhOEPT29JaXjEUJh0Pvdtfs7u7rAMwcJoxxtaASB5vAwIi5WZBSQDEJgWhBQJhdLBpf8x038+MlT4MQEkUCBc1McH1MiEmVMXFJfX3/d4QYSRhGsSnvd2TWFffEUQJQMJyo1UCnQLCl8/sLljpevgjjL/4n003TqzNDQEH7TOu1cbGXn2tbW/uu9320dmXRz+ytXr4FAy1yeoLOrq+5wgxaVERrB63j56lTzWRJGOXz0+OtOcbBULSrj9JlzA4ODwF+M91Hg+ZoTFt3Z1QXisU4BTFQFIYAQAAgok4thFEh8cEl+Utqr150g4mRbWzs+3JxkJMr6Y40jI6PDw8P9/QOPHj8BHk+pkSincbwlw4nKClQKPBKE2KPLo/l//tkxOjo6PDLyR9vDgcFB4My9/6Dtb9y/wcE3sQnCaTGblyB8/vwFAPn58xe8/6ldV7ypv3/g7Vtx0NUbN1vBVh327t27d7/e+/11Z5d8LiZhFBCP9f379wODg0mrM6fFZqQEIfBfQ0DJXCyObygtuKQfKxQEZieMh6Qw3dyeExaND9tOqDJDl5KxSqUGKgWtSwrL6uAMWQucNlKDewZxlgMWxjft7RssmYkXIKRtHZmhEbwvPwoEM9AlQuDrRUD5XPz1YocsRwggBBAC04UA4mJ0NhBCACGAEFA+AoiLlT8G07WuIj0IAYTA14sA4mLExQgBhABCQPkIIC5W/hh8vSs5shwhgBCYLgQQFyMuRgggBBACykcAcbHyx2C61lWkByGAEPh6EUBcjLgYIYAQQAgoHwHExcofg693JUeWIwQQAtOFwExx8XzXpQnr9tHMnKbLUKQHIYAQQAh8wwjMFBfbenCEm+r1LVy+YexQ1xACCAGEwHQhgLgY+SgQAggBhIDyEZiAi1XUqF7hyWkVJ7OrzyeW1Jk5+pIwCs3MiZdX48vN/Jh/Lia3WtvAmoRRMC2jYH5RVlVL5o4zMbnVws1oX6z8AZ6uRRvpQQggBGYUgQm42IXFSy47Zu0WrEqmseLyEkvqtA2s9S1cUspOcITFZIqpvoXLqo1H/GPW/BMh1DsiJbnsuJVrEKZlxE5cn1LeiHwUMzp4SDlCACHwzSAgj4tV1KjROTvYgiLQW6qJQ2JJna1niL6Fi3BTPQywFpZSyhXtUFGjxuRWsxPXA2HkL/5mpgjqCEIAIfAFEJDHxZo0S37xQXyMZFHNBSabT+BitqAoOmcnEGay+cBoxMVfYPBQEwgBhMA3g4A8Lp6rYRhXsDswNo/QW6lcjPbFBJTQJUIAIYAQUBwBeVwMXMCrtxw3tV9Mwii6dLtgfhHwF+N9FGBfDIRXlR41snJTUaP6rshE/mLFhwFJIgQQAv9xBCbgYvBpROaOM6nbTmZUNgfG5auSaVL3xeA7iuVZFZk7z6ZVnEraeES4uQG9u/uPTy/UfYQAQkBBBCbgYqBFlUyjmjiokmmKKFXXYajrMBSRRDIIAYQAQgAhABBQiIsRWAgBhABCACEwowggLkZ/joEQQAggBJSPAOJi5Y/BjC62SDlCACHwVSCAuBhxMUIAIYAQUD4CiIuVPwZfxaKNjEQIIARmFAHExYiLEQIIAYSA8hFAXKz8MZjRxRYpRwggBL4KBBAXIy5GCCAEEALKR+BfXFyOzfmg9n/+Rj+EAEIAIYAQmFYE7qj9X2s1LTk79H9xMSJitA4hBBACCIEZQuC82v9TlItnyAKkFiGAEEAIIASOqJEmzcVyKqAihABCACGAEFAcgfXYXLAOrcfmyqn1Lx8FXLjkVEBFCAGEAEIAIaA4AoiLlf9iVPHRQpIIAYTAt4oA4mLExQgBhABCQPkIIC5W/hh8q+s86hdCACGgOAKIixEXIwQQAggB5SOAuFj5Y6D4yokkEQIIgW8VAcTFiIsRAggBhIDyEUBcrPwx+FbXedQvhABCQHEEEBcjLkYIIAQQAspHAHGx8sdA8ZUTSSIEEALfKgKIixEXIwQQAggB5SOAuFj5Y/CtrvOoXwgBhIDiCCAuRlyMEEAIIASUjwDiYuWPgeIrJ5JECCAEvlUEEBcjLkYIIAQQAspHAHGx8sfgW13nUb8QAggBxRGYvVwckVAovxuSApI5UIPUopnIhC3CBKEVwiUUQ4kZRQDAjsCfUZCR8s9BYJZysYJ3Dv7WwqfxiOBVEWSkXhLkIxIKCWJAOcgn/I9vF6bxCkkYRao2KKzEhMviiOAVWcErsrxYsXM1DJRoyUw0DWGHiZloZUKdFMMFgRGpAGcjC5cJ5ZHAfweB2cjF+LsFn57yqEDGBBqgTpiAFClLktA0qChZnSAG1UpNSAormEO3dJvv6KugMNXI1s41aA6ZNqE8pmk0T5dhab/Ej5OEzTOcUH42C8BxlJWY0Pg5ZJqdaxDVyHZCSRJGUVxYVZ1G1mFo0yz9Q4Um1u6KKP8aZRSfdTPaO0zTyJHJ0dSzmNFWpkv5rONiPMGBTkrmAGqb1G2GVwLTMCGLK/ECUhGHNkgtJaiFwjAhq5b8fDu3YGZAjHwZWGpi7T4pbp2sPGxolicmHEqC/dg8Qz9OkoJ0OSlhEkaZlLziRE/oghIvZ8ksmqfLCAxP0aMrtKAqES7Q9CziYsBQUhGRVYS/wfBpvBJIfFAJlIQJqeROyMTrhEUwEyqHOXgZQkN4GXxaqhK8gJGFS/CKrJCYnLDYXMJzLsPKnRMtCo8vCIxIA7s58DjMiVkTHpfP5oqdD9YL/YC2+Q4+nGhRRELh0qg0QzMnfBOK3EXYPEOmX7T5Ai9V9Ym323jl+LT1Qj8ftoATs2ZpVNrioJVhcQVuS6JU1fRU1WmOTE4oLzc8vsA/VKijb0XCKDoGVn6cJD26HQmjqKrTXJdEOXuFyW8dP+5gLEDr+LHA24NPuyyOYHOzwuPyOTFrgldk+YcK1XVMSBhFXYvuyYoNj88Pi8118gwFBsgS1tA1WxK8Mjw+Pzwuf9GSyLnzPrl9JsXFigur65h4sWLNbL2WRqVFJBS6eEeATpnZeoG5AfEUQ6pvFRCWHJFQGBCW7MMWgLlhZOECPVTqOiY+bD7FcAEJo8ydZ7BoSWR4HLEvxpaLgqMyIxIKOdEiM1svEkaRM+vwCOPTUs3T1LPwD1kVHl8QErPGZqE/kLde6OeyeLxTFMMFPmy+uo4J6LXlxykdHp/vweJhmkZzNQy8WLFsblZYXAEnWjSh583YchHTL1qLOvEOeq6GgYd/jM+yxLC4Ah82PzAiNSw2F6zZUkd8vr2Pd2A8pmlEwiiaVHOfZYkm893w3YfpWcTFwCb8LQTT0FxCAn9f4dMEMfytiE/jq8A0TEBJfA7IxOcQ0vhLqAFvD0GAUCSnFEpK7osNzJyCV2QZMBxJGMXM1iswIk2TagbkJbnV0Mw5MDJVm2ZJwijmtt6siBSyNh0ql5SHRfgE3dLVP1QYwlvj7B2urmUMiubpMoJXiO9M+JOzf7dzC3bxjlDXMWFFpMy396EY2rDCk+fpMuY7+vqHrFLXoquo6Tm6L1sSzAcOFjMbT1Z4irqOyf86aI63RzINkQQJwqWkPCFHkgFV1WlegXFMv+g58/TVtei+yxLt3IJBLUnhOWSad1CCo/syFTU9dS26f6gQLoST3RdLKieYCi8B/v6hQqrxgnm6DLK2eP0wsnAJikqnGi9QUdOzcWb5hwoxTSNM08g/dLWTZ+icefraNMugqHTQF/zo4zeVi5ZEegXGYRqGmIbhkmC+oweHhFG0qBaBEakGpgtJGMXAdGFwVCbF0AYYg9cDzZOawJtntdCPFSEeYnUtY//Q1fZubBU1PW2aZWBEmqmNBwmj4Ge+Ht02MDxlni5D3OuoTEcmZ848/Xm6DFZ4CoQa3wWprcNMsjbdxTuCE7MmICzZyNxFRU0PFhES2DxDHzbfyMLFyMw5eHmGNs3SxpnFDIiRNeKq6jR3P+6iJZGqZH0P/xh3P66sPcT0cDHVyNbdjwt/dEsx8YNnK5jp7BUGFgdC3z7nEt5gUlkPr1mqpGQmJBFQFwjgxfA68TKS+bJK5WuTpQefj5+RIN91SZSTZyhIz5mnv2SZwMJuMbiUdVfMIdPm6TKoxnZLI9PwD3Gy5PEGwLS6lrHdoqXBUZmwdVg0YcLOLdjOLRgSzTxdhh8naZ4uA1TE5hnO02XQLd0CI9JApqqanpvvCv/Q1UFR6TQT+wn1Q5zxgwgzJ6wODYOSOvpWgeEpWnriNYyEUcBqpPZxHZIUhrXUtejzdBnO3uH4ZUmOPKxIwigm1u5wQoJE8IpMCBFeEqTF1BORqkf/Fzge/jFwzSBri1cFPbq9mMgiUjV0xxdsZsC4DH70IZHN0zVlRXx60jeycPFdljhXwxBwscl8N8Bc6lp0+FoCr0fSTnwO0y8aTp458/SNLFzUtehGFi7+oUKALQmj2DizvJbGq6rp4Wc+novxjggnz1CmX/QnQCbjo1BR09NnOHoHxgdFZYAHMrypII3NM1wclKBHt4UGmFi74wdXcsQ1dM1YESm+yxJ9liXK4cDp4eJ5uqZmCzzhD3RDVU3P0MwZZtIt3ebM05fsGz6HMPPwlwqKgSpQGK8BnwYC+DsTVpS8dfFisCJeGz4Nm4aScCuNF4PNEeQVucTPSCAP7yXJS8m7AtM08mDx2Nxsr8C4j4msqXGxqjrNxNrdP1QYHJXJsGaKV995+nRLNzjiZgs8aSYOsnoki4s1dM38OEnByzOYATHeQQlBURmQfebpmgZHZcJHb1maQT4ebbhUSw6lLCWSdAnvPVAFfykp/JGs3YJXZAWErXb347LCk/G3q1R5SUvAegle9FnaL5mny1DXMZGzZYPsCVWBhvBQRCQUmli7E2YFnD/4fKhNj24bwsvFK4FLgoHpQv9QYVhsrn+I0NBMvEEGP7wemCmZmKth4LssCS4VUIBQHV7iZz7EH9oJquNlCEVQv6yEJtVMvDuOFjH9osFThaSkHC6mW8occYY1M5SXa2wu78uZ6eFiSYunliPrVlEkX5YMsARfCtMwAe9VfAKm8WKS/ZpsqRx5BQkaP9uAPfjNhaqantfSePiYBucxtNx6oZ93UAJ4UJKcrJLysCJMzCHTXLzCQ2PzfJYl6jMcITtgmkbOXmHwScjdjyvnew9ZXCz2BXuHg7bg/QYuF3qEssKTFdwXQ2thAiIPE7BIMiFJl1TjBYGRqXBfbGC6MCAsGbh3JIXJ2nTx066ZM9BMGDJJeUkDYI7iwpKjCSaDjTMLagMJPbp9YESagvtiLT3LwIhU6H+AquaQaepaYu+WeFWeL6Yh/f8tvYrMIqCHGRDj4MYGaRU1PbI2XVWdRrd0CwhLhvtiC7vFwFWFhxHODUKv8TKEImi5ZEKPbhsUlR4Ss8bONQj63CTFgH9J6r5YzoiLXS4hQr+QVV9iXyzV6ClkyrpJpOYTMgmX+NZlFeHzYRom5HMxFJNMyG8ayuPFQFpBLrawWxwQloyfMUYWLoHh4y5gA9OFQVHpuv/z3H28FHu1YHO2i5b6h6zCNI1U1PSsFvpxYtZMdl88V8PA0sEHuqSh5kklZHEx0y/awz9GVZ02Z56+k2co3IKZ2XgGhqdqUs3NbL2AV1GR5iCkAHb8//KrAxZb6DHu+QG7/sVBK4ETc848se9v0ZJIoERSmKzDWBqVBl5naVLM/UNXT2FfDJR/DheDVwJLo9LABFDXotu5Bv3PXyy0cw0Sk4umkX/IKrA51TdxCIpKB8Im893YXPEzk6qanicrFjjKSRhFj25vab8EeKI/adYxCQhbDb+Ylpx1stA2t/VeGpWmSRV7/w1MFwZGpGpRLcRvEcJTAHpib3vIKrC3MLf19g9dDWa+jVNA8HKxx4ZAuHguVtMyDghLtrQf99fJsuFjp2wZ1kxZnlx8RVn7YlkjDvzF7n7cufPEL/3gnMHrBOlZty/GPwrh05KmE0iNcImXl1WEz8e3JfUGlqWQoAQvBtkcn4mXx+crnsY0jXzYgrDY3LDYXAf3ZaCijVNACG/NMm42J1oE/PUgX1Wd5ua7IiwuL5SX6xHA+7j1MPFZlhgelx8am+fJig1engFevzADYvAgQBJU3LBJScriYm39+Uuj0sLi8kJ4azwCeEFR6Vp6llTjBcErssCtDie3nDsHdgSYhMccDu6E1urR7TjRohDemhDeGuCh1tA18w8VcmLEOV6sWLzvT1LY0n5xWGxuKC83KCrDOygBeDwln/cln9AnNEyWAIGVgJiquvhD6VBe7jJudghvzQIXFniOAQaLPxRZnhkclQnMgLOFE7PGOzD+o3NZ/EEYWdfEOyghNDaPEy0KisoALmm85lBerrPX+Iclp9bAvwAAIABJREFUYKdMmHWybFZVpzm4Lwvl5XKiRWxultH/nuKpRrZBURmcaJFYs3c4GGs480Ni1rj7cf1DV8vnYhJGMbXxCOXlhvDE3QSML8sSBfNlcTEJo0gdcRtnVmB4KvgOR5NqHhieambjKbWtWcfFUq3E30tAQJEcWZKAIie8J2ETMCGpUFKJHGHJ6iBnav9jmkbwVQnQoKKmBx/rCDqxeYaEP9/A5hkSqhOqKPcS0zSSQ7WTso0wIlIXSFkKwVcQ0AkDxGRBJyksZ0RktThD+ZK2gYbmaoj/qAf6i0HmHDJN6tyYQ6bhlx8gLEszeJyHs87OLRgukCCB/3ZbVX3c3UHovtRpMFfDYFJzQ5ZyQlvTcvk5Iz67uHha4EBKEAIIgUkhQODiSdVFwtOFAOJidE4bQuC/jsB8R1+8X2u6yAXpmRQCiIv/6/fhpKYLEkYIIARmCAHExYiLEQIIAYSA8hFAXKz8MZihZRapRQggBL4iBBAXIy5GCCAEEALKRwBxsfLH4CtaupGpCAGEwAwhgLgYcTFCACGAEFA+AoiLlT8GM7TMIrUIAYTAV4TAdHIxpmVk6xlCppji+6+iRvUKT06rOCmquSDc3ED798nleMmZS99u/Xlw8M3g4Ju2tnZv3/EzZ2euuf+sZm/f4La2dgD17daf/7M4oI5PCoEAnigybcukqnyTwtPJxVauwcllx6z/d8A2wMvCyT+57LiDj/gUFTXxAeFUOTjurt3f2NQsRwBftK5404VLV1w9xs/8xxcR0uyQFbEJwobjTR0dL/1Yn057IYj9dy5dPfwvXLqyrniTgl1WcFy0qIyIFfGxCcJr12/ef9CmoPKvTowdsuLqj9dXp4qUa/lkB1G51sLW3YLi/bhZ8JKEUdiCouicnfic/2Z6OrlYKoJMNl/w3UEt/flSSwmZFy9fVfwert13aFLcOll5gm3f0qUfK7Sj42XtvkMKdmpS40LCKIrLq+swgvlFNu7jpyYqaI9yxWIThN3dPcUlZco1Y7KDqFxrYeuSzCuZA4X/U4np4WIXFi91a1Pq1ibh5vr5rksBgvNdlwo316dXnM6qOgdKA3gytxJV1bWDg2/ev38/MjIKHnKrqms/xnFh7Nl78O3bobGxsd7ePrCVK1j7XU9P79DQ0Ojo6Js3fw0OvjnVfBYIn2g8/fbt0N9//93X119RWYMfS0W4WJNmyRXt8I5IxrTE8amm9jvVfPbZ8z/fvXvX19f/+MnTDx8+3P3lnpWdq60j8+qP14eHh8fGxl697sxaU0jCKGvy1nV0vPxuo/jGtnVk3vn5lxs3Wx1dvGU1rUu34+XVZFefy6pqCUsphXa6sHjLs7YFrSzM3HEmq+qckz9XlobbrT+/efPX6Ojo0NDQ4OCbl69ec3kCEkYJjeC1tbWPjY2NjIxeu3HL1lF8PLyscZHaF9ii4lysSbPkFx9ksvmwrqyEt2/wr/d+P1RX/+p159jY2OMnTwFKFZU1fX39hBHnJQgfPX4yNjbWPzDwsP0xcJhUVddCJxWXJ3j67HnB2u9IGMUngNN65+7ox3+td+76BIgDCJEwCj8p7cnTZ2NjY6OjoyAfOGH++uvthw8f3r4VowcVSjVbi8qoO9wAZi8ccRJGWZ0q6nj5amxs7N27d6eaz2pRxdFMTjWfhY6dgrXfPX32nMsTgF4fP3Gqr69/bGys4+UrflIaCaPIGkSpZixaGhe9ZofJx3h0UgVgprdv8O/3//jzz44PHz48ffa8p6d3ZGQUrNlSR3xSsxewREZlc1ZVCyAEFxYP7Ivji/bG5FZnV59LqzjpFhQP7NHUs4jKKM+qOpdVdS4qoxyEcwbzPCylNKvqXOaOMwG8NfIftWHXZn9ierhYXYehb+Fi7RYs3Nxg+zEWFuw5k83nFx/UxJ2fC4skE5L38NaKnYODbzaXVYJp3dvbl7g6A1SU5NaKHTW9vX0Z2flaVMaR+hPd3T1R3JWwFUl5WAQTKmpU16CExJK6jMrm8NRNlP/F8tG3cEnd2iiquQB/cp6qLl6+euv2HS5P0NXVffzEqfzC4q6u7tgEYWNTc8fLV6ERPLq5/ZWr154+ew4cLAcOHe3s6uLyBHWHG3p7+4Qp2dAeQgLTMoot2MUV7SBTTHXpdoINB9iCIiDDZPOzq89HpG6h23gYWrrKj0MuuaWydWQ+bH9877f7TG9WaATvxYuOi5evwtYlx0VWX0AVSXmoipBQnIuBzf0DAxU7amIThPH8ZBJGySvY0N8/sGvP93Rz+3376/r6+pPTRFZ2rm1t7Q/bHweyI0FfwMMWfgLAva0WldF65y4QDmRH/jMoP/50g4RRgJIrV6/Rze1DI3gvX71ubjkPjId1CX2RvKyqru3vHyjaUEo3t286daarq5vLE4RFxb7u7Lr0w1W6uX16Zl5vb9/+g0cIDxPFJWXd3T2xCULQ6/sP2gLZkT4BnPZHT36++ytoSHIQJQ0AOVQTh4i0LekVp5M2HnEOiFYly4wY68cKffrseVV17faqXQODgxnZ+c0t5wF6skZc8dkLjJHcBbMFRSllJ6xcg1TJND9ulnBzA9XEQUWNGpVRHluwS9vAStvAKqFoX4hQvHAy2fy0ilMuLJ4qmebC4qWUN1o4TeyllIXMrMqfHi4GXdK3cBFuqp9eLv757q/XbtwC+pnerGfP/zza0Agu8bcWHlNXD//YBOGG77b09fXjHyRlyePrwjTFxD5oZWFK2YmwlFKYqWDi4uWrFy9fhbdKbIKwo+NlbIIQVPdjhcYmCHfX7u/t7QOZVnauv/z62+vOrv7+gZJNW+W0YuHkL9xUz7Ab3zW7Lo1PLKnTNRZH6p2ULwjaBtvKyV/X3d2TmpEDcmp273v1upMTNh43TBa3SvYFVJclD5sDBsOFDSRStzbqW8gMQgNsBrQF9Vy8fPX3+3+AfaWrh//TZ8/3HzzyD1P39PSWlJYTjMFPAMinCYIUvMOhqrr2xYsOVlA44OLrN26DbbIfK5QdsgIohHWhGbIS9367j5+9VdW1oRG8qupaPLbNLefbHz2xsnPFg0bgYuhNOtrQ+OJFB3j/LDmIsswA+apkmuOSyLiC3cllx80cfaUK+7FCHz95WlxSBg2o3XcI7zaUHHHFZy9oUSoXw52NkZWbcFO9tVuwoaWrsPQoJBMXFk+w4YCW/nz83k7XeEHSxiNwHy21R19R5mzn4vsP2vAbNPwl/tYCiAdxlv/R9vDNm78ePnz0R9vDv/56OzUuxrSMmGx+YkldStkJj5BE8VnaFFO3oHivUCH82XmFyRpmWVzMT0rr6Hg5MDh4/0Hbo8dP+vsHIEEnCFL6BwZut/4MaEWWZlsPjnBTPSQs/CV+jsqqDvMlb2N47wEZwiWeJoCAnL4QtniwUUICPEuZ2i9OLKnzWZ6hb+FCM3OSv2WT9HHff9D297//Xbx8VZbx+AkD+bS4pGx4eBivY3DwDRgXXoLw3m/3h0dGBgYHz7RcYHqPRyqCdQk9Ilx6+wYTHi+AAN4MEkaBl3iQYRcIIwWFSRiFUERoXfLS2JoZkbYlreJU9JodeqbikOGSPzlcLGfEFZy9oDn5XAz3c7YenIzKZvxqDZZq/DxX/KFKsqezMGe2czF+Z2Fl59r+6MnJ0y0AR/y8BDknT7c8evwEODolbxhJecnxUNdhhKdtzqxq4W/Y7ygOoz3+NKdjuCAsZRNXVAl/hHfBeFWyuPjnu7/euNkK2BbebMDNfe36za6u7gn3xcALBPfFjkuikjYeoX4MMoafo3hjpKYlb+OiDaW9vX1wX1y+raqzqwt6ePA0ARTK6gsolZSXagYJoyh+O0naTMIo127cuvvLPcICxk9K6+3tU3BfnJqR09PTm19YTLCQbm4fxV1p68jUojLSM/M6Xr4CvgsSRpGcWoS68PL+g7bLP/wILqHC3bX7O7u64DPH0YZG4K3CgwanB6HX+DlMKIKNSiZsPTirtxxP394czF8L3W6SYoDfZe2LZY24FpWh4OwFLSrIxQw7b+HmekuXQIKd+Hmu+OQhKJmdl7OLi482NHZ2dYVFxUKwqqpre3p60zPzSBilbOuO/v6BvIINoLR8W1V//wAoAjnnL1zuePkqiLMcuOeGhoYmuy/WoJr7cjONP0Y1hjZMNiGLi+/9dv/3+3/YOjKZ3qxrN27B/deBQ0d7enqFKdl1hxuAS1FWi2SKafzaWnbielUyjUwxjc6pisooB+8u8HNUVnWYD1a1a9dvQhb7x038+MlT4MRkerPuP2hrvXMXlkqOi6y+gCbwtAIblZpQ/HaSSj2byraD1wlip4c369z5S/ykNOBe+PXe77aOTFtH5u/3/wBP2ZvKtvf19YMJs2fvQfDYBISBo5yEUUpKyxuON2lRGVHcld3dPUfqT2hRGXRz+1u370BHLScsurOrq/7YuK9Mar9A5uGjx/v6+sELgLKtO3p6epPTRFyeoLOrq+5wgxaVERrB63j5Crx5Pnz0+OtO8eTXojJOnzk3MDgI/cXQR4HnYslBlGWJrQfHIyQRvuaVJSafi2WNuOKzF7S7JDI1aeMR/JKAZ2e4L56rYcjLqwGvRsSvtT1DfJZnqKhR8fNc8ckjp8uzp2h6uJjJ5uOfJkQ1F+CbcTx2E3Y7iLP82fM/R0ZGR0ZGf7jyE9gznj5z7v3793/99XZoaGh37X6oxNaR+cuvv42MjA4PDz/4o41ubr88mv/nnx2jo6PDIyN/tD0cGBws31ZFwiiEJ1lIglDV9CZkcXGmqKDv/7d35l9RHF0ff/+E55f3nMGkkciSGdnEkSUgiAR5UFBiFEFEXABFQHAAR/ZFVkERQUEQR4jiEkQBFTWI+5K4JCbGlRHXiCyyKggSfR3Lt1LpnmkGBmiW65njuVV1a+lPNd+uqe7p29L67l1PV1fXg2ppS0treFR86qbM9vbX6KERKxuH23fuIRFRNCRD85nBGSWReT9F5Vf6JRZq61sgzz5x5lH8zVuyOzs7uz79Q5vUopCIuvoGlCmV1rh5rMBjYM6L3GNBckl+3+/TQ4e4O7mGXC1Gd3Tfvn3b0dHZ3d1949ff0U6COCy2ubkFnTZNTc1Ii/EJ09nZ+bDm8cu6enSpRg9ddL9719HRKftq8v8bzXn5ha1tbQgIfoABje1A8eHud++6urra2ttD1kXLHTB6MObS5V+6u7s7Oztfv36TL9mNPNPSs1pb29CYr9+4ib7JYchv3769fedefUMjuxbLnURFI1Eyn2WPQu6M9/Xs/bgno61vsSZtf4ykKkZStThEtq6Sq8U8iq9nMiMgpShaUhWRdyI0+6jV7CXoNgN+FgC0mP9B/T/oo+QE99XNfclK2i84jEysPZatwss0ssH5LktpP9+Y77KUVp3059x281iB/vZUGYmmrtl4HdmDUKp8jEysPVcGGJlYk42w0GPOy4AcC9l7/2y0wGRSdXFbbmRiTVuk2zs6yz097B2d8d05chjMo0alVjYOSz390DnJ3HQm73eRnmTLcuk5zVvEPBCyFs2WO4k0nwFMyh1zP9rXMbBU8gQeryPUMZDdnR71n4FZF496THCAI5cATYtH7oHAyEc3AdDi0X+9Hd1ncK9Hp+QPuHttBxyAwKASAC0GLQYCQAAIcE8AtJj7ORjUiy00DgSAwIggAFoMWgwEgAAQ4J4AaDH3czAiLtowSCAABAaVAGgxaDEQAAJAgHsCoMXcz8GgXmyhcSAABEYEAdDiUaXFnoGydyIr8yE9SZusy8xn5pD+2MZu2MBFYAABICCXAGixUsollx3KpDT0ZljNcXVYYqD3+efILM6DXYS1zzMwhfahdY09eRSf9JTrRjqQNs0ZJ2mN43wwgAAQUERgtGnxEMfs0fl6Sk7Y1h2ROWmi1B+T9rjPWa4I9NDkYxHEhtx+yVJFdq8VSQdSoOXapDPYQAAIMAmMNi0e4teF+LutyQjZRGno8Sj+7G+dd0bl6U40Y1IeghxSAdFSV1GnWHxRFeyG83EOaZDt0yqSbshmb4rpDzlAAAiMAC2WG8lNbiwsr4ht4duPx0jOROb9FL79eNDmYl1j2wkCE7/EQhRZi0fxyQDgzJYnCEx84vLnrYxet+1obMHZoM3FhuYzWc6SNFFq8JLPATtsLByKEgptlYgqxtKgikVYBFmkExehvnASG3gMKAcnlZR4vOmB2ydbABsIAAG5BEaAFjMjuSmKhSX33eS0lTL5gj5my8h5VfwubX1zzYmmq1P2eEWxBT1CWqxGCRY6Ltmf+MOPKUXDR4vJ+cYajTNxDjJoSZoblmmagd2QQTZCa5bmCUkgAARoBEaGFgdtLtbS+wYPXVEsrH5oMa1lmnDP9QoXbTwwQWCCu6YZaaLUMM/wuFVxOWFbbS3nFMTm91WLv9DQnWbvNmu+D/rMmLOM0pSFoNacaGo/1xvnf6MgQBltPHgli2URObAkaaKpyFNRPm0A5KKYVoXpCTlAAAhgAiNDi/Hbo9G4FcXC6ocW01qmaXGvL2hPE6WWbfwxdHnYV5qGhgZT+6HF49QnGhjPMLacjT5GZjO/+Eq2+zxey0ho7oDzdT8FUsLTxjTwihUV0XSQTGJPlEkmsZTj9nFFdjeaP24Z54MBBIAAO4ERqcWKYmENvRanBCSvWx6uRgl4FB9psY1q8ZnYZ6vX0r5KJ/sWMFmKW0ZjoCVpmbgUG72OHByAwBgnMCK1WFEsLB7F/3KCwerk3cvWbUFR4FCOX2IhytGcaBqQuhcHAGcue/u6Ll76vXdeZA7/0ybGkrkyW+frKRyeUlj7sKFoMHgJTPNUlGRfF+PWUHdkI6StaDCQDwSAwIjUYkWxsNB0Ws1eGpF3Miq/Miq/ctrspZ8CF8pyIndUhm8/viImdwC1mNLQi1oRczh1f3Fy0Z74ApupjtyeUlj4sMEcD4tukgthVBE70xqkJWm90EppSZozJIEAEOBR/BGgxSzzpCgW1jgNXcHk6eM0dHFdNXWBlt43eLGM8wfEoDT0uF0Oo6PAuolvoKEcMl/u8ZJuNN3ESWzgxuU21WupolqQDwTGOIGRrcVjfPLg8IEAEBg1BECLVX0fxag5FeBAgAAQ4JAAaDFoMRAAAkCAewKgxdzPAYeXYugaCACBYUIAtBi0GAgAASDAPQHQYu7nYJhclmEYQAAIcEgAtBi0GAgAASDAPQHQYu7ngMNLMXQNBIDAMCEAWgxaDASAABDgngDHWvyN/cLAtH26xrbD5NIEwwACQAAIcEKAYy22cvQQZ5XpmdpxcvDQKRAAAkBgmBAALeb+u8kwORVgGEAACHBIYGC0WE1dMGd5aETeidiCs8EZJcafglDoGtv6JRbO84n+lH/GN6FAW18WtZ7SMlwkSo2RVEXvPOWbUCDeCutiuB4AASAw1gkMjBbbufiFZh+xmLlonIauy+rE4IwSbX0LPVO7sOxjHuJ0Df4UPVO7tVsOO/uu51F8J8+w0Oyj5vZulJahe/DGsJwK2KPg8GoMXQMBIDAcCAyAFqupC1bF73QPSkXHI5g8PTijxGr2Ej1TO3FWmZWjB8pfFpbpE7dTTV3gm1DgHrwRZcJ+8XA4CWAMQAAIcE5gALQYxcKIKzxHfhzcRTQtRgGYaYEzQIs5PwNgAEAACAwHAgOgxSiskat/Iu145GoxrItplCAJBIAAEBiwuB5OnmHrth2dYv0dj+J/bTRtkSgV7ReTexRoXYz2i9dmlhqaz1RTF8xbGQ37xXAiAgEgAAQGYF2MH42I3nkqPPdEVH6l6+qkcRq6ctfFyHlFTF70rtMReSdDthwWby2He3dwIgIBIDDGCQyMFiOIzChzLHDH6wjH6whZHKAICAABIDB2CAykFo8danCkQAAIAIGBJQBaPNafMB/Y8wlaAwJAoH8EQItBi4EAEAAC3BMALeZ+Dvp3FYVaQAAIjCYCoMWgxUAACAAB7gmAFnM/B6Pp2g7HAgSAQP8IgBaDFgMBIAAEuCegkhZ/UP8PfIAAEAACQGAACWykvmRZWW9M3/o/uPhvkGAgAASAABAYHAIb1JXW4hzqC5DjAbwMQlNAAAgAAUTgpvr/Wqhr4YUv0/jXuphZDDlAAAgAASAwBARAi7nf2h+CaYYugAAQGOYEQItBi4EAEAAC3BMALeZ+Dob55RqGBwSAwBAQAC0GLQYCQAAIcE8AtJj7ORiCSy50AQSAwDAnAFoMWgwEgAAQ4J4AaDH3czDML9cwPCAABIaAAGgxaDEQAAJAgHsCoMXcz8EQXHKhCyAABIY5AdBi0GIgAASAAPcEQIu5n4NhfrmG4QEBIDAEBECLQYuBABAAAtwTAC3mfg6G4JILXQABIDDMCYAWgxYDASAABLgnAFrM/RwM88s1DA8IAIEhIABaDFoMBIAAEOCeAGgx93MwBJdc6AIIAIFhTmCotdgzMIWdCOlA2rRazCJmDq0KSmI3bNDcmPnMHB7Fl5tJawr36BmYwvzIdYZMIAAExiaBIdViJfULu2FD7tygUqbGoRy5VWgaqqh9Mp+0aW3iItoYaG5yk7iu3FLIBAJAYKwRGDotZqoPM4dGv08ap6g1WiPMJK1TFZNyh8HsVK6bil1DdSAABEYugSHSYkXSoyifXMCy+CDuTKVjmQ/21phN4RyWNski9vaxp5Ju2B8MIAAERjeBodBiLGeKDIwYO+AcUpRpmTQ5oyVpzjiJukBJRVXIfNKmNaKoCLuhweODkmuQzmADASAwZgkMhRZjuKR4YRsbct0UaTHOlytwLG1iLWb6yB2AMm60MeB2mAZLa0xnyAECQGDsEOhFiwWGVrPm++CPkdlMHsX/QkN3mr0bzpwxZxmlaagMMlKJSJtWl1ZES2JnnI8NVERLYn+8SsU6ThaRNtkCaZM+ZCMsPqQbi01rGZJAAAiMNQK9aPFXX08xtpyNPzp65jyKP059ooHxDJxpZDbzi6/0lAFHahZp0+qiItpiE69nsTNugemJfUgDN0vTROzDbIeWgz2RQQ6AVkRL4q7xUeC6NE9IAgEgMDYJ9KLFAwiFpj60JNkRrYiWxJ44HxuoiJakZeJSbOAGsUEWkTZ2INvE8korpSVRO+T/NAdIAgEgMJYJcK/FTLGjCRbTAU0YzqetXnE+diNzFNn4JCAdFK2gaS33WgU7MA3cLxhAAAiMZQJDpMVYgzBrnIMNsojMJG3sg1QSFdEcaEmyClNbmc60HFqSbA0XYQOVkknaqpmliGwZbCAABMYagaHQYlKASL54PUtmKiOXyB83iw1SoGlt4iqkM9OHWcrMYdbC/So6IiV7l9syZAIBIDAWCAyFFo8FjnCMQAAIAAFVCIAWw3vagAAQAALcEwAt5n4OVLmWQl0gAARGBwHQYtBiIAAEgAD3BECLuZ+D0XFVh6MAAkBAFQKgxaDFQAAIAAHuCYAWcz8HqlxLoS4QAAKjgwBoMWgxEAACQIB7AqDF3M/B6Liqw1EAASCgCgHQ4n+0WHOiqba+7EV08AECvRIwMLPX4E/p1Q0cgICSBAZLi5M3bH767LmPXxAehzgsNjI6EScHz5ixxD+6/Fzc8ctxxy9/L4rGHa3O3Y8yQ3aXC0xscD4ytPUtAlKKZixYReb7Ri73jVyOc77iGwqnWpAfHQMhLh2vra9nbKqmLkA547X1J1vInCdbWIzX1sduOgZC1IKBqRl2RqXaekZxOSG2c+2xc58MSUGRVFrjNG9Rn2qNNWcfv6Cnz54nb9is4oE7eYZ5R+dSWkq9uVvFvqD6WCAwWFqcnpH96lWTf6AYQ/zz9t07d+/j5OAZE3RNTf47f9oCz8hDVQvW/aP+hlazTGe5LI7bHF5yStfMlhzAlxMMVsTkLvCLIzN5FD8owScowQdnOnvOyzuS9PlzLOmHU2mBcStwqWeIR96xpKl2n1V+1gIHyYmUvGNJeceSJCdS/KO9v9CYiNosqEzNO5KUX5GcXRo/y8URt6BjINxQEDZrgQPO6ZNRtO9gbe3L+S5L+1RrrDn7B4pfvWpKz8hW8cAVnTMqNgvVxyyBodPiIUasa2YbXnKK1GI0gAXrEplabGbnGrS5WM9kBm2QQQk+i3xdaZkouchv4daDcSbWlihJaeomS0ILT6UuC16McmYtcNhWEiecasGj+Jb2Ntml8V5rPZAWJ+TKLlFq6oKlIvftZQmW9p/lW8dAmJArRlXkdsqeCVrMzgeVDpQW8yi+otNGmWGADxCgEehdi09Wnj534fLN32/19PR0dnbGrE/hUXy/QPHDmsfv37/v7u4+e+6ilY1sKWdl43DuwuV373q6u7sfVEubmpr9A8VO8xZJpTXt7a/b21//dvMPsvtdhXtb29o+fPjQ0dFZcqhcS/DP933SDdlOARExRy6knL0Zc+SCU0AEyjSf7Ra673jy6V+Tqn4NyNs/0fRbXLFPWuwelOoVtR3XxYaOgfArvpwvoUbm5lnFcR+VFHtOtbPJ/DFGvMEvKX8dpanLo/ikFste5Bbikb43WsdAGJTgg7SYR/EpTd2UXaF46a2mLtCbYoKWz7hl5Q2sxVY2Dhcv/VwtfbjM259H8b9f4IGmr6en5+bvt75fILskVJ0+9+ftu+bTPu+H5Et219a+DAwKU747HsU/WXn6wqUr1dKH79+/7+jo3F10AFVfFx5X+7Lu/fv3b9++PVl5WksgjIxOvP9A6uaxwj9QfPvOPTePFeKw2Ic1j7191ijfo6Sg6GVdfWtbW2dnZ7X0YU9Pz9Nnz9H3gLz8wpaW1g8fPrS0tOblF/IoviJn/0BxU1Pzg2ppd3d3T0/Ppcu/oLNXSyAsOVTe0dH5/v37uvoGdJ7zKL6PX5BUWlNyqBy1T57D43WEAal7HRYHK38I4AkEFBHoXYvPX7zS09NTdfqcKCQiaG2ElY2Dg5PLk6fPrl7/1cHJZV14XGPjq0OlR3kU/1Dp0da2tpS0LUgL2trb/QPFWgKh58qYiicAAAAUZElEQVQA/0Dx1Ws37j+Q4nGERsQ1NTVnb9/Jo/jZ23e2trUlpaTjUpphu9g39uiF+SHrKe1J80PWxx69YLvYV3vS1HX7jvls2UVpTzKaPjuypGpp0jZcUXktHq8jDEzdN9crHNdlN9TUBaFpq5MloeQu8LLgxcmS0Bnfz8z8McbYSrZYpmkxTpJaTC6T2TtVphRp8TJv/59/ud7Q2CgKkV2xtATCm7/feljz2NXdy9Xd6+mz5z//cp1H8ZNS0ltaWhFz82n2UmkNylemI+xz/uKVlpbWlLQtRibWFccrm5tbvH3WLPP2r29ovHDpipGJdWR0YnNzy4Hiwx7LVj199jw+KU1SUPTmTUd6RnZOruRhzWN7R2fcWq9G0b6Dj588dXX3evT4yfUbN/0DxXX1DekZ2YnJm1pb237Ys9/IxHrfgZKWltbQiDhFzv6B4rb29ouXfraycYiN39DS0orOXklBUWtrW+qmTCMT61NV5+rqG9w8ZBtQ/oHi9vbXdfUNqZsy/QPFK1aJyHF6RW1fFpZJ5oANBPpHQCktrpY+JBetaC8Yr6FO/FRVLX1oOMWyWvrw4qWf0TiY+8XnL15havGevcVGJtZIr1n+LL3S8sRFxzQEstvWGoIp3wVGms3+vHUwTmPi5G+/M53l4pddFFxYhikor8Waumai9GIH93/9jeF2mIbjwtk5ZfHfOv0XF1Gaukn56zxDPL7iG6YWhi/yW8iZFr+su3r916amZnFYLBpeYFAYuT0qKSh68aLWxW25lkB46887t/68oyUQhkbEvXrVxHItxEdKM8g5DY+Kb25uSd2UKSkoqqtv8Fj2+S5oZdXZmkdPbGfOvXe/WlJQdPXajbr6htLyitLyiqvXf6U1yJ4s2ncQnUL3H0jPX7wy32Xp4ydP0zOyz1+8cu9+NTpF7R2dnz57fqD4sCJn2h7FxUs/338g1RII792vPn/xChqAt8+auvqGjMwcpMVNTc3IZg7PPSh1VfwuZj7kAIG+ElBKi0kN5VH8on0HP/z7X23ty9j1G2prXxbtO4hG0KsWo+VwXX3Du3c9L+vqc3cUkHJPOwzRrkOkzuLS+SHxcccvRx4+I5KURJWeJX0GSYt1DISb9kQErl+Jx8Cj+BZ207NL44MSfJYELkqWhEZvDVJTF+CFMPKc5eK49dB64VQL2ro4OMkXb1mQbfbDRvPy999/v3hRi9Z0PIqfnpHd3d1NTld7+2t0TzUrewdaQlZWnZVKa/B+hfJdk1qMNQ5vlaB2cPLsuYsXL/185+79o8dO/vnn3WvXfztQfFj5vtCJJ1eL7z+Qkgf44cOH8xevKKnF5y9eef78RUR0Ym3tS1oj6GTGxyV3qKDFcrFAZj8I9EeLc3IljY2vfFeHkP1pCYR9WhfbOzp7rgzQEgitbBz27C1ub3+dlb2DbJC0vdPzg38oG/fpOQS0ENaeNFU4Y27k4TPfBUQiT5nP4K+LfSOXp++NFhgZk8P7uBDeXhoflxMSlxOSsit068G4yRYWNC0OSvBBW8mkFusYCNP3RuPbfWSb/bCL9h1sbWtLS8968aL29p17aBs0PCq+qalZ7poX7TVdvnK1tvalpKCoHz3K1eLdRQcaGhvxuri0vOLjxoi9o7OkoOjZ878eVEujYpMePX7y6PGT1E19+3avSF6vXv8VLfDJQ1DkTNNWtC42n2Zf8+hJZdVZsgVk0/xpDqDFNCCQ7DeB/mixm8eKuvoGtCGoJRDu2Vu8q3Av2i9ubHwlConQEgiPHjuJ9ovxyMi/W3RrpaWlNSo2Cd0eqW9oxHKgpi6Y6xW+MDAZP7zpuGpt3PHLs1bK1H+ai1d0+TnHVWtN/js/5sgFt6hUHsU3n7Mo6vDp/mmxbABxOxcGJuOhKjI+7ktsL0v4zmMu6aCmLojPXYvvv+lNMdlyIMbZcx7W4i80Ji4OcMstT3RwnU1uEOvoT47KFG0qiqQpO9k4sqfNWWZq2/u+Kl6BisNiW1paz124rCUQor3gO3fvOzi58Ch+RmZO+dHj+CtI4e59XV1dT54+Q6Wouy8nGNg6+xiY9f6YMzmnWLN8/IIaGhvRzdilnn61L+tOVp7mUfzwqPjXr99cvXbDfJr9g2rps+d/Yb3+2mianYtfrz+dUCSvWdk72ttfb83O51F8ByeXM2cviEIiFDmj/eKfTp3REggRqIrjlejsbWlpRY/AL/X0O3fhMt4vJjd5aLOzKn6XMmcOrRYkgQCTQH+0mEfxY9anNDQ2dnV1dXZ21tU3rAuXPZlrZePw5+27797JHrdoaGxsbm7xDxTPd1lK+/aHnoFFD110d3e/edPR3d197fpvaB3Ho/joZpo4q4w/2RqNeJzGRPfYzYmVV+NP/pJYedU9djNaI7vHpidW3Ug8dS326EXx3mNoT3mmV1DiqWspZ2/ij3e67K80uLAM56ScvRl3/LLpLJk88Si+k2eYf/IPX04wYAIic4ISfHaf3kh+EnLFxlaWWw/GkQ8Fh25aHb01aNYCR8mJlN2nN/5wKi1jf/S3cz7vL+NGCipTozJFgkm9/3ZrVfwu9yDZJYf9g7VYprlZ29+86fjxYCl66OXR4yfd7951dHS2traRW58ey1Y1NDaim1e4ceU30OVqMY/ip6Vntba2dXR0dnd3X79xE82si9vy2pd16FkLdI8BXxKsHD3EWWV6pnZ4DHINRfKKHoF4+/Yt6vHGr787OLkocvYPFNc3ND5+8rSrq+vdu55796vRdYg8Ibu6uqpOnzMykZ1++BrDHNLXkyxF6cXTv/NkFkEOEOgrgd61mKXF+S5Lmb8ssHd0ZrkLR2vNyMTac2UAOunJIkrLUF3LiMyRPQGmPWnyt99R2pPIfEp70iRrRyTNZH6fbF1jW1F6sZmd/EeJ+9TUgDujK5Oz73oVW7Z3dHZf8q9tbh7Fz8re0dDYSNtuEkyeLs4stXPxU7FHN48V+PrK3pSdi584s1QweTq7G3uplkC41NNPyR55FN/e0Zl59io6IeV2bb8wYHXKnl6X83LrQiYQoBFQSYtpbY3o5Owl4pWxO/CuyPA5lm/sFwZtLjY0nzmwQzIysY5Zn4I3EMjGZ7oFBqTu1dQ1IzMHzx6noesVtd1tjey59RH0QT+anzYbfuU4kmZtOJ9goMWfzyQ1dYGLf/zwfG6/182TfpxhyRs2NzQ2VladZS4k1dQF4zRkP1cZss84DV3aqzmGrOt+d+QakDRrUR9+qNLvjqDiGCEAWjx0ijNGTik4TCAABPpBALQYtBgIAAEgwD0B0GLu56Afl1CoAgSAwCgjAFoMWgwEgAAQ4J4AaDH3czDKLu9wOEAACPSDAGgxaDEQAAJAgHsCoMX/zAHEu+vHxXwkVtHgT9E3++c1eyPxEGDMo4/AYGnxqIx394XGRCNzczLene5k2avfjczN8Svn1dQFBqZmOB85G5mb4zfE04LmoWh4qFavzsKpFrgjFYPjDVTYt4H6k/D2WZO8YTP+VbQyzZ6sPE2+2V2ZKsiHP9l6dfJu+JmG8sTAcwgIDJYWM9+ZOQri3QmnWuSWJ+6o+P+Qd0eSIjMC1dQFUZki/Gp5/P4g0hlVmb98Ho/io6B5OyqSCk+l5h1L2npove1ce/TCtvyK5LwjSTsqkraXxtvPn8Wj+It8XQsq0/4JsnckydlT1giP4qsYHI/lNQtDcNoxu6g6fe6vv2r7FDiVfBsGs0H2HEuHxaL0Yl3jf4U9ZK8CpUBgUAkMnRYP6mEwG1f+/cUsgcto8e6EUy22lfzrNUCoX3Nb622H1jt7zac0ddfnhKzPCaE0dWnOXms9th6M0zcxRVXwW9xQEmkxiq2npi4ISlq1cU+k5sRJi3xdUWQm5gGqGBxvuGkx8wB7zVFFi9XUBd4xua7+/4Sm7bU7cAACg0qgdy2GeHd4AmjyivN5FB+913ihz4Ls0ngUS5TmbGX/7bZPS2BUi0WLyZggLFqsYnA8UotRsLuMLFnEP7lh31QPjscS7+63m3+gcIhSaQ1eF0sKim79eefa9d96emThE1HQPPzOuffv37e0tD56/AS9Wh69uBWFqmtubklLz+JR/MtXrqJ31Z+qOoeM8xevoNdjoimwc/ETbTowZK/dIM8WsIEAk0DvWgzx7jA14VSLrYfWL1jhzNzYRQvbgspUHPKDpsVLRe5bD8YZmn5+4Q6LFtPWxVsOxFja26AedSeb4MGoaGAtlhQUtbW379lbjBqUG/ZN9eB4LPHu3Jes9A8Ulx89jl6mioZRtO9gZ2enpKDIyMQajTA+KQ29i7la+tDV3cvHL+jFi1qkxdvzdqH3F6MLSXNzS/C6qNLyij9u3bZ3dP4YIu/e/WorGweptAa/I5tH8U1tncVZZcJpTiqShOpAYEAIKKXFEO8OsSa3gPOOJGXsjzYyN8fTEBC3Ir8iebrjDOy8vTR+Q0FYXE5IVnFcfkWyq88C7CxXi9F+cX5FcnZpvM1s2ct8afvFkRmBuAUVDaTFlVVnX79+g2MdKQr7pnpwPNQyS7w78uXLKJwSlmb0kuXdRQdEIRHNzS34/ct4j+KPW7dx6DwHJ5dnz/8qLa/IyMyRSmsSkjbW1r58+ux5eFT84ydPw6PiMTc9UztxVpmVoywqNnyAAOcElNJiiHeH5om21CUnz9LeJrs0PmN/NNos5lF8chGNHpYg/eVqsbd4iYm15YZdYeINn98dzLJHQbbWDxuFN/777787OzvR7gSP4jNf/P/hwwcU9k314Hjs8e5YtBiNqmjfQdoNYazFKBQphoCSvqtDnj9/UXZEFuH07r0HJYfKH9Y8dnFbjt1AizEKMIYDgf5o8ZiNd6dIiylN3ZhtQetzQqba2aCbeEiL5d7oQ7MuV4vRvbs5i5yyS+Mt7GQvVh9ULW5tbSs5fOTchcstLa0objRL2DfVg+Oxx7tTRosVrYvv3L2P18XoEE78VGXv6PygWvr4ydO9+w+ePXfx3v3qP27dJv/kQItJGmBzTqA/Wjxm490p0uKPEfC2lyV8fJoN38QTGBkrckZTzqLF47X1kyWhaGncDy1WMjge3i+2snG4feceDh19qPSo3LBvPIqvYnA8lnh3tE0JWhKvi9F+8W83/7CycXBwcql59PnenaSgqKmpGYWqy96+s7W1LTF508dboFev3Xj9+k14VHxOrqSlpbW0vIL8e7Ny9FibWapn8nlPiSwCGwgMPYH+aPGYjXcn2y8+kkiLdycwMs7YHx2athq9DV3fxDTzxxjfyOWKtHiRryvZguREyqwFDuQzbbJnkL3mbzu03mz6NJrz7tMb0dqZ5URRMjge1mIexXfzWIFDRysK+8aj+CoGx1MU7+7+A+kH4l97+2v/QDG5TMZazKP44rDY5uaWrq6ujo7O+oZG/BzFT6fOdHV1vXnT0dnZiULq8Sj+geLDL17Inln29llTV9+AN5oRvble4X6JhYPxnn6W2YEiIKCIQO9arKgm2l5kRgyDeHcsxAa7aKCC48kN+zaowfH6RMbFbTkzRqKRibXHslVK/nJPgz9ldcoe1WP69WnY4AwEWAiopMUs7Y64omEb765PJEd9cLw+0WBxnrM8dEVM7jAMb8gyZiga3QRAiz8/zzSc49316RQcjC/dwyo4Xp9oyHWeZOHoFZmtrW8htxQygQAnBECL4dlSIAAEgAD3BECLuZ8DTi7C0CkQAALDigBoMWgxEAACQIB7AqDF3M/BsLo4w2CAABDghABoMWgxEAACQIB7AqDF3M8BJxdh6BQIAIFhRQC0GLQYCAABIMA9gVGixeoT9NUowbC6ysFggAAQAALKExhgLdYxsPQQpxtZzlZ+BKp4Uhp6rg5LJNE7csOzNXUmq9IU1AUCQAAIcEhggLV4iN9DmBq4ITs0K943HrSYw3MIugYCQEB1Ar1r8QK/uEWiVO+onBjJmYi8k8Y2sjjEeiYz/JN/iC04E73zlNuaFErLcILAxC+xMDz3RMyuMxF5J8K3H/dLLJwgMNE1tg1M2/eN/UI0Vq+IbQv84pBt5+K3IibXbU1K9M5TMZIzts4+EwQmPnH581ZGr9t2NLbgbNDmYkPzmSwH+aWGHo/iuzosAS1moQRFQAAIDH8CvWuxe1BqjOSM6+okQ/OZhuYzKS1DDf6UgNS9S0O3aPCnGFnOXptZ6uQZhg6VuS6m5ZBvdHRwF8UWnPUM32Y01dHAzF5zoqmmrpkovXhV/C5tfXPNiaarU/Z4RckCYrJ/QIvZ+UApEAACw5+AUlrsm1CAXs6LjsfK0UOcWWpgZo+Szr7rsQNNeWUr6H9HFaNpcdDmYi29bzAmpMUO7iKUM9crXLTxwARBLwE3QYsxQDCAABAYoQSU0uJV8bvIw3NwF8UVniM/ovRiFNucpry9ajGuiNqnabGDu4jmQA4D26DFGAUYQAAIjFAC/dFim7neioLTgBaP0PMAhg0EgAC3BPqjxdr6FsEZJe7BG8dp6KqpC2YtEv3X1R8dxteTLEO2HJ7rHYGPCjmjHEPzmeKsMvegVFTKXPbCuhhzAwMIAIExRaA/Wsyj+MY280K2HI7Kr4zM+yk4o4R8oHj2krXRkqqo/MqwnIpJFo48io9yIvN+EmeV+Sf/AFo8ps4wOFggAASUIdC7FrO0oqlrhraJaT6UluHXRtPI233jNHTJe3Q0f0gCASAABMY4AZW0eIyzg8MHAkAACAwUAdDiXh5eHijQ0A4QAAJAgIUAaDFoMRAAAkCAewKgxdzPAculEoqAABAYIwRAi0GLgQAQAALcEwAt5n4OxshlHw4TCAABFgKgxaDFQAAIAAHuCYAWcz8HLJdKKAICQGCMEAAtBi0GAkAACHBPALSY+zkYI5d9OEwgAARYCMi0+AsNXRYPKAICQAAIAIHBJiDT4ocPH/muDhnsnqB9IAAEgAAQUERApsUfPv1ramr++ZfrxSVlObmSTRnbNqZvhQ8QAAJAAAgMDYHLV67+H8fbEpycOEvdAAAAAElFTkSuQmCC;" vertex="1" parent="1">
          <mxGeometry x="360" y="20" width="287.18" height="340" as="geometry" />
        </mxCell>
      </root>
    </mxGraphModel>
  </diagram>
</mxfile>
